SplineFontDB: 3.0
FontName: KApIqaDRoman-Medium
FullName: Klingon (KApIqaD) Roman Medium
FamilyName: KApIqaD Roman Med
Weight: Medium
Copyright: Copyright (c) 2019 by qurgh and 2020 by zrajm. All rights reserved.\nhttps://hol.kag.org/page/piqadsupport.html\nhttp://klingonska.devel/writing/play/
Version: 5.000
DefaultBaseFilename: kapiqadroman-medium
ItalicAngle: 0
UnderlinePosition: -600
UnderlineWidth: 200
Ascent: 1800
Descent: 248
InvalidEm: 0
sfntRevision: 0x00050000
LayerCount: 2
Layer: 0 1 "Back" 1
Layer: 1 1 "Fore" 0
XUID: [1021 725 -817995265 12128558]
StyleMap: 0x0040
FSType: 0
OS2Version: 4
OS2_WeightWidthSlopeOnly: 0
OS2_UseTypoMetrics: 0
CreationTime: 1560587118
ModificationTime: 1599530525
PfmFamily: 81
TTFWeight: 500
TTFWidth: 5
LineGap: 1500
VLineGap: 0
Panose: 0 0 0 0 0 0 0 0 0 0
OS2TypoAscent: 1800
OS2TypoAOffset: 0
OS2TypoDescent: -248
OS2TypoDOffset: 0
OS2TypoLinegap: 1500
OS2WinAscent: 1795
OS2WinAOffset: 0
OS2WinDescent: 849
OS2WinDOffset: 0
HheadAscent: 1800
HheadAOffset: 0
HheadDescent: -248
HheadDOffset: 0
OS2SubXSize: 1500
OS2SubYSize: 1600
OS2SubXOff: 0
OS2SubYOff: 982
OS2SupXSize: 1500
OS2SupYSize: 1600
OS2SupXOff: 0
OS2SupYOff: 0
OS2StrikeYSize: 102
OS2StrikeYPos: 530
OS2CapHeight: -1
OS2XHeight: -1
OS2Vendor: 'PfEd'
OS2CodePages: 00000001.00000000
OS2UnicodeRanges: 00000001.10000000.00000000.00000000
Lookup: 6 0 0 "'liga' Standard Ligatures in Latin lookup 0" { "'liga' Standard Ligatures in Latin lookup 0 subtable"  } ['liga' ('DFLT' <'dflt' > 'latn' <'dflt' > ) ]
Lookup: 4 0 1 "'liga' Standard Ligatures in Latin lookup 1" { "'liga' Standard Ligatures in Latin lookup 1 subtable"  } ['liga' ('DFLT' <'dflt' > 'latn' <'dflt' > ) ]
Lookup: 1 0 0 "'liga' Standard Ligatures in Latin lookup 2" { "'liga' Standard Ligatures in Latin lookup 2 subtable"  } ['liga' ('DFLT' <'dflt' > 'latn' <'dflt' > ) ]
Lookup: 4 0 0 "Ligature Substitution lookup 3" { "Ligature Substitution lookup 3 subtable"  } []

StartChar: .notdef
Encoding: 65536 -1 0
Width: 1253
Flags: W
LayerCount: 2
Fore
SplineSet
436 1152 m 1,0,-1
 436 732 l 1,1,-1
 634 588 l 1,2,-1
 670 1032 l 1,3,-1
 436 1152 l 1,0,-1
812 980 m 1,4,-1
 774 470 l 1,5,-1
 1040 238 l 1,6,-1
 456 476 l 1,7,-1
 456 -308 l 1,8,-1
 256 -308 l 1,9,-1
 256 1450 l 1,10,-1
 456 1450 l 1,11,-1
 1022 868 l 1,12,-1
 812 980 l 1,4,-1
EndSplineSet
EndChar

StartChar: uni0000.1
Encoding: 65538 -1 4
Width: 1253
GlyphClass: 2
Flags: W
LayerCount: 2
Fore
SplineSet
436 1152 m 1,0,-1
 436 732 l 1,1,-1
 634 588 l 1,2,-1
 670 1032 l 1,3,-1
 436 1152 l 1,0,-1
812 980 m 1,4,-1
 774 470 l 1,5,-1
 1040 238 l 1,6,-1
 456 476 l 1,7,-1
 456 -308 l 1,8,-1
 256 -308 l 1,9,-1
 256 1450 l 1,10,-1
 456 1450 l 1,11,-1
 1022 868 l 1,12,-1
 812 980 l 1,4,-1
EndSplineSet
EndChar

StartChar: uniF8D0
Encoding: 63696 63696 5
Width: 2099
Flags: W
LayerCount: 2
Fore
SplineSet
0 20 m 1,0,1
 157 99 157 99 344 336 c 0,2,3
 434 451 434 451 528.5 586.5 c 128,-1,4
 623 722 623 722 714 860.5 c 128,-1,5
 805 999 805 999 889.5 1130.5 c 128,-1,6
 974 1262 974 1262 1044 1368 c 0,7,8
 1193 1592 1193 1592 1270 1638 c 1,9,-1
 2028 1638 l 1,10,-1
 2028 1577 l 1,11,12
 1860 1532 1860 1532 1715 1469.5 c 128,-1,13
 1570 1407 1570 1407 1463.5 1333 c 128,-1,14
 1357 1259 1357 1259 1296.5 1177 c 128,-1,15
 1236 1095 1236 1095 1236 1013 c 0,16,17
 1236 956 1236 956 1266 903.5 c 128,-1,18
 1296 851 1296 851 1359.5 803 c 128,-1,19
 1423 755 1423 755 1522.5 713 c 128,-1,20
 1622 671 1622 671 1761 635 c 1,21,-1
 1761 573 l 1,22,23
 1710 568 1710 568 1653 564 c 128,-1,24
 1596 560 1596 560 1530 557 c 2,25,-1
 1270 545 l 2,26,27
 1208 541 1208 541 1154 535.5 c 128,-1,28
 1100 530 1100 530 1059.5 522.5 c 128,-1,29
 1019 515 1019 515 995.5 504 c 128,-1,30
 972 493 972 493 971 479 c 0,31,32
 977 419 977 419 1124 391 c 0,33,34
 1199 377 1199 377 1286.5 354 c 128,-1,35
 1374 331 1374 331 1475 299 c 0,36,37
 1677 235 1677 235 1839 76 c 0,38,39
 2004 -85 2004 -85 2048 -410 c 1,40,-1
 1987 -410 l 1,41,42
 1929 -326 1929 -326 1871.5 -266 c 128,-1,43
 1814 -206 1814 -206 1747 -165.5 c 128,-1,44
 1680 -125 1680 -125 1599 -100.5 c 128,-1,45
 1518 -76 1518 -76 1414 -63.5 c 128,-1,46
 1310 -51 1310 -51 1178.5 -47 c 128,-1,47
 1047 -43 1047 -43 879 -43 c 0,48,49
 816 -43 816 -43 747 -43.5 c 128,-1,50
 678 -44 678 -44 602 -44 c 0,51,52
 340 -44 340 -44 0 -41 c 1,53,-1
 0 20 l 1,0,1
EndSplineSet
EndChar

StartChar: uniF8D1
Encoding: 63697 63697 6
Width: 2048
Flags: W
LayerCount: 2
Fore
SplineSet
10 1149 m 1,0,1
 83 1186 83 1186 151 1249 c 128,-1,2
 219 1312 219 1312 276 1387 c 128,-1,3
 333 1462 333 1462 376.5 1543.5 c 128,-1,4
 420 1625 420 1625 446 1700 c 1,5,6
 513 1698 513 1698 559.5 1683.5 c 128,-1,7
 606 1669 606 1669 638 1646.5 c 128,-1,8
 670 1624 670 1624 690 1594.5 c 128,-1,9
 710 1565 710 1565 723 1532 c 2,10,-1
 774 1405 l 2,11,12
 790 1366 790 1366 822 1338.5 c 128,-1,13
 854 1311 854 1311 897 1311 c 0,14,15
 942 1311 942 1311 997.5 1336 c 128,-1,16
 1053 1361 1053 1361 1110.5 1399.5 c 128,-1,17
 1168 1438 1168 1438 1224 1485 c 128,-1,18
 1280 1532 1280 1532 1327 1577 c 0,19,20
 1328 1577 1328 1577 1346 1579.5 c 128,-1,21
 1364 1582 1364 1582 1399 1587 c 2,22,-1
 1575 1612 l 2,23,24
 1623 1617 1623 1617 1675 1622 c 128,-1,25
 1727 1627 1727 1627 1779 1630.5 c 128,-1,26
 1831 1634 1831 1634 1881 1636 c 128,-1,27
 1931 1638 1931 1638 1975 1638 c 2,28,-1
 2007 1638 l 1,29,-1
 2007 1577 l 1,30,31
 1935 1565 1935 1565 1844 1530.5 c 128,-1,32
 1753 1496 1753 1496 1659.5 1444 c 128,-1,33
 1566 1392 1566 1392 1476.5 1326 c 128,-1,34
 1387 1260 1387 1260 1316.5 1186 c 128,-1,35
 1246 1112 1246 1112 1203 1034 c 128,-1,36
 1160 956 1160 956 1159 879 c 0,37,38
 1159 742 1159 742 1182.5 619.5 c 128,-1,39
 1206 497 1206 497 1247.5 386 c 128,-1,40
 1289 275 1289 275 1344.5 175.5 c 128,-1,41
 1400 76 1400 76 1464 -14.5 c 128,-1,42
 1528 -105 1528 -105 1597 -188 c 128,-1,43
 1666 -271 1666 -271 1735 -348 c 1,44,-1
 1735 -410 l 1,45,46
 1572 -312 1572 -312 1446.5 -201.5 c 128,-1,47
 1321 -91 1321 -91 1221 30 c 128,-1,48
 1121 151 1121 151 1040.5 282 c 128,-1,49
 960 413 960 413 887 553 c 0,50,51
 837 647 837 647 787 745 c 128,-1,52
 737 843 737 843 686 946 c 1,53,54
 666 952 666 952 649.5 954.5 c 128,-1,55
 633 957 633 957 618 957 c 0,56,57
 593 957 593 957 572.5 947 c 128,-1,58
 552 937 552 937 535.5 920.5 c 128,-1,59
 519 904 519 904 505.5 882.5 c 128,-1,60
 492 861 492 861 481 838 c 0,61,62
 469 813 469 813 453.5 789 c 128,-1,63
 438 765 438 765 417 746.5 c 128,-1,64
 396 728 396 728 369 716.5 c 128,-1,65
 342 705 342 705 307 705 c 0,66,67
 279 705 279 705 248 711 c 1,68,69
 249 719 249 719 249.5 728 c 128,-1,70
 250 737 250 737 250 745 c 0,71,72
 250 808 250 808 225 860.5 c 128,-1,73
 200 913 200 913 163 961 c 128,-1,74
 126 1009 126 1009 84.5 1054.5 c 128,-1,75
 43 1100 43 1100 10 1149 c 1,0,1
EndSplineSet
EndChar

StartChar: uniF8D2
Encoding: 63698 63698 7
Width: 2304
Flags: W
LayerCount: 2
Fore
SplineSet
0 266 m 1,0,1
 123 399 123 399 227 558.5 c 128,-1,2
 331 718 331 718 416 894.5 c 128,-1,3
 501 1071 501 1071 566.5 1259 c 128,-1,4
 632 1447 632 1447 676 1638 c 1,5,6
 727 1621 727 1621 778 1570 c 128,-1,7
 829 1519 829 1519 879.5 1446.5 c 128,-1,8
 930 1374 930 1374 979.5 1286.5 c 128,-1,9
 1029 1199 1029 1199 1078 1108.5 c 128,-1,10
 1127 1018 1127 1018 1174.5 930.5 c 128,-1,11
 1222 843 1222 843 1268 772 c 0,12,13
 1359 631 1359 631 1448 625 c 1,14,15
 1503 627 1503 627 1556 657.5 c 128,-1,16
 1609 688 1609 688 1660.5 739 c 128,-1,17
 1712 790 1712 790 1761.5 858 c 128,-1,18
 1811 926 1811 926 1858.5 1004 c 128,-1,19
 1906 1082 1906 1082 1950.5 1166 c 128,-1,20
 1995 1250 1995 1250 2037 1333 c 128,-1,21
 2079 1416 2079 1416 2117.5 1494 c 128,-1,22
 2156 1572 2156 1572 2191 1638 c 1,23,-1
 2253 1638 l 1,24,25
 2125 1106 2125 1106 2122 721 c 0,26,27
 2120 526 2120 526 2119.5 367.5 c 128,-1,28
 2119 209 2119 209 2116 82 c 256,29,30
 2113 -45 2113 -45 2076.5 -136.5 c 128,-1,31
 2040 -228 2040 -228 1972 -289 c 0,32,33
 1900 -355 1900 -355 1762.5 -383 c 128,-1,34
 1625 -411 1625 -411 1413 -410 c 0,35,36
 1348 -410 1348 -410 1267 -401.5 c 128,-1,37
 1186 -393 1186 -393 1084 -362 c 128,-1,38
 982 -331 982 -331 856 -269.5 c 128,-1,39
 730 -208 730 -208 573 -102 c 1,40,-1
 618 -57 l 1,41,42
 893 -92 893 -92 1092 -112.5 c 128,-1,43
 1291 -133 1291 -133 1424 -133 c 0,44,45
 1518 -133 1518 -133 1584.5 -121 c 128,-1,46
 1651 -109 1651 -109 1692.5 -81 c 128,-1,47
 1734 -53 1734 -53 1753 -6.5 c 128,-1,48
 1772 40 1772 40 1772 109 c 0,49,50
 1772 205 1772 205 1741 344 c 1,51,52
 1732 356 1732 356 1643 356 c 0,53,54
 1585 356 1585 356 1509 352.5 c 128,-1,55
 1433 349 1433 349 1355 345.5 c 128,-1,56
 1277 342 1277 342 1204.5 338.5 c 128,-1,57
 1132 335 1132 335 1083 335 c 0,58,59
 1017 335 1017 335 1014 348 c 2,60,-1
 1014 380 l 2,61,62
 1014 477 1014 477 1004.5 544 c 128,-1,63
 995 611 995 611 976.5 652 c 128,-1,64
 958 693 958 693 930.5 711 c 128,-1,65
 903 729 903 729 867 729 c 0,66,67
 833 729 833 729 787 710 c 128,-1,68
 741 691 741 691 685.5 658 c 128,-1,69
 630 625 630 625 566 580 c 128,-1,70
 502 535 502 535 432 483 c 0,71,72
 336 413 336 413 228.5 344 c 128,-1,73
 121 275 121 275 0 205 c 1,74,-1
 0 266 l 1,0,1
EndSplineSet
Ligature2: "'liga' Standard Ligatures in Latin lookup 1 subtable" C H
Ligature2: "'liga' Standard Ligatures in Latin lookup 1 subtable" C h
Ligature2: "'liga' Standard Ligatures in Latin lookup 1 subtable" c H
Ligature2: "'liga' Standard Ligatures in Latin lookup 1 subtable" c h
EndChar

StartChar: uniF8D3
Encoding: 63699 63699 8
Width: 1743
Flags: W
LayerCount: 2
Fore
SplineSet
952 494 m 0,0,1
 901 533 901 533 844 586.5 c 128,-1,2
 787 640 787 640 731.5 704 c 128,-1,3
 676 768 676 768 624.5 840.5 c 128,-1,4
 573 913 573 913 532 989 c 0,5,6
 484 1077 484 1077 455.5 1174 c 128,-1,7
 427 1271 427 1271 427 1365 c 0,8,9
 427 1504 427 1504 502 1638 c 1,10,-1
 537 1683 l 1,11,12
 557 1552 557 1552 604.5 1428 c 128,-1,13
 652 1304 652 1304 718.5 1189 c 128,-1,14
 785 1074 785 1074 865.5 968.5 c 128,-1,15
 946 863 946 863 1032 768 c 128,-1,16
 1118 673 1118 673 1205 589 c 128,-1,17
 1292 505 1292 505 1370.5 434 c 128,-1,18
 1449 363 1449 363 1516 305 c 128,-1,19
 1583 247 1583 247 1628 203 c 1,20,21
 1692 130 1692 130 1692 63 c 0,22,23
 1692 4 1692 4 1646 -50.5 c 128,-1,24
 1600 -105 1600 -105 1524.5 -152.5 c 128,-1,25
 1449 -200 1449 -200 1352.5 -239.5 c 128,-1,26
 1256 -279 1256 -279 1155 -306.5 c 128,-1,27
 1054 -334 1054 -334 957 -349.5 c 128,-1,28
 860 -365 860 -365 783 -365 c 0,29,30
 757 -365 757 -365 733 -363.5 c 128,-1,31
 709 -362 709 -362 686 -358 c 1,32,-1
 686 -195 l 1,33,34
 817 -179 817 -179 911.5 -148.5 c 128,-1,35
 1006 -118 1006 -118 1066.5 -76 c 128,-1,36
 1127 -34 1127 -34 1155.5 17.5 c 128,-1,37
 1184 69 1184 69 1184 126 c 0,38,39
 1184 171 1184 171 1167.5 218 c 128,-1,40
 1151 265 1151 265 1121 312 c 128,-1,41
 1091 359 1091 359 1048 405 c 128,-1,42
 1005 451 1005 451 952 494 c 0,0,1
502 -410 m 1,43,44
 359 -395 359 -395 263 -371.5 c 128,-1,45
 167 -348 167 -348 108.5 -316 c 128,-1,46
 50 -284 50 -284 25 -242.5 c 128,-1,47
 0 -201 0 -201 0 -150 c 0,48,49
 0 -60 0 -60 84 51 c 0,50,51
 147 135 147 135 215 218.5 c 128,-1,52
 283 302 283 302 360 387 c 0,53,54
 514 558 514 558 532 696 c 1,55,-1
 578 641 l 1,56,-1
 578 623 l 2,57,58
 578 459 578 459 500 324 c 0,59,60
 458 252 458 252 419 190 c 128,-1,61
 380 128 380 128 342 76 c 0,62,63
 278 -10 278 -10 278 -63 c 0,64,65
 278 -98 278 -98 321 -115.5 c 128,-1,66
 364 -133 364 -133 472 -133 c 2,67,-1
 502 -133 l 1,68,-1
 502 -410 l 1,43,44
EndSplineSet
EndChar

StartChar: uniF8D4
Encoding: 63700 63700 9
Width: 1444
Flags: W
LayerCount: 2
Fore
SplineSet
244 -389 m 1,0,-1
 182 -389 l 1,1,2
 163 -249 163 -249 145.5 -135 c 128,-1,3
 128 -21 128 -21 111.5 74 c 128,-1,4
 95 169 95 169 80 248.5 c 128,-1,5
 65 328 65 328 52.5 399.5 c 128,-1,6
 40 471 40 471 30 538 c 128,-1,7
 20 605 20 605 13 675.5 c 128,-1,8
 6 746 6 746 2 823.5 c 128,-1,9
 -2 901 -2 901 -2 993 c 0,10,11
 3 1224 3 1224 49 1618 c 1,12,13
 196 1618 196 1618 318 1620 c 128,-1,14
 440 1622 440 1622 541.5 1624.5 c 128,-1,15
 643 1627 643 1627 726 1630.5 c 128,-1,16
 809 1634 809 1634 877.5 1636.5 c 128,-1,17
 946 1639 946 1639 1003 1641 c 128,-1,18
 1060 1643 1060 1643 1110 1643 c 0,19,20
 1178 1643 1178 1643 1238.5 1637 c 128,-1,21
 1299 1631 1299 1631 1360 1618 c 1,22,23
 1365 1579 1365 1579 1367.5 1549 c 128,-1,24
 1370 1519 1370 1519 1370 1499 c 0,25,26
 1370 1469 1370 1469 1365 1448 c 128,-1,27
 1360 1427 1360 1427 1353.5 1404.5 c 128,-1,28
 1347 1382 1347 1382 1340 1351 c 128,-1,29
 1333 1320 1333 1320 1329 1270 c 1,30,-1
 1114 1270 l 2,31,32
 959 1270 959 1270 804 1262 c 128,-1,33
 649 1254 649 1254 502 1229 c 1,34,35
 472 1089 472 1089 444 969 c 128,-1,36
 416 849 416 849 394 743.5 c 128,-1,37
 372 638 372 638 358.5 544.5 c 128,-1,38
 345 451 345 451 345 366 c 0,39,40
 345 252 345 252 372.5 148.5 c 128,-1,41
 400 45 400 45 469 -61 c 1,42,-1
 244 -389 l 1,0,-1
EndSplineSet
EndChar

StartChar: uniF8D5
Encoding: 63701 63701 10
Width: 2386
Flags: W
LayerCount: 2
Fore
SplineSet
1225 1243 m 1,0,1
 1155 1284 1155 1284 1105.5 1307.5 c 128,-1,2
 1056 1331 1056 1331 1020 1343.5 c 128,-1,3
 984 1356 984 1356 959 1362.5 c 128,-1,4
 934 1369 934 1369 914 1377 c 128,-1,5
 894 1385 894 1385 876.5 1399 c 128,-1,6
 859 1413 859 1413 837 1440.5 c 128,-1,7
 815 1468 815 1468 786.5 1512.5 c 128,-1,8
 758 1557 758 1557 717 1628 c 1,9,10
 723 1626 723 1626 850 1626 c 2,11,-1
 1593 1626 l 2,12,13
 1702 1626 1702 1626 1802 1627 c 128,-1,14
 1902 1628 1902 1628 1993 1628 c 0,15,16
 2052 1628 2052 1628 2096.5 1600 c 128,-1,17
 2141 1572 2141 1572 2179 1530.5 c 128,-1,18
 2217 1489 2217 1489 2254 1441 c 128,-1,19
 2291 1393 2291 1393 2335 1352 c 1,20,-1
 2335 1290 l 1,21,22
 2278 1307 2278 1307 2226 1313.5 c 128,-1,23
 2174 1320 2174 1320 2120 1320 c 0,24,25
 2068 1320 2068 1320 2010 1313.5 c 128,-1,26
 1952 1307 1952 1307 1882 1296 c 2,27,-1
 1673 1268 l 1,28,29
 1657 1213 1657 1213 1638.5 1137.5 c 128,-1,30
 1620 1062 1620 1062 1600.5 974.5 c 128,-1,31
 1581 887 1581 887 1561.5 792 c 128,-1,32
 1542 697 1542 697 1525.5 603 c 128,-1,33
 1509 509 1509 509 1496.5 420 c 128,-1,34
 1484 331 1484 331 1477 256 c 1,35,36
 1534 247 1534 247 1590.5 240.5 c 128,-1,37
 1647 234 1647 234 1706 223.5 c 128,-1,38
 1765 213 1765 213 1828 195 c 128,-1,39
 1891 177 1891 177 1962 145 c 128,-1,40
 2033 113 2033 113 2113.5 64 c 128,-1,41
 2194 15 2194 15 2288 -57 c 1,42,-1
 2243 -102 l 1,43,44
 2106 -58 2106 -58 1960 -36 c 128,-1,45
 1814 -14 1814 -14 1656 -14 c 0,46,47
 1490 -14 1490 -14 1322.5 -32.5 c 128,-1,48
 1155 -51 1155 -51 996 -82.5 c 128,-1,49
 837 -114 837 -114 691.5 -154.5 c 128,-1,50
 546 -195 546 -195 424 -239 c 128,-1,51
 302 -283 302 -283 209 -327 c 128,-1,52
 116 -371 116 -371 61 -410 c 1,53,-1
 0 -410 l 1,54,55
 37 -313 37 -313 132.5 -224.5 c 128,-1,56
 228 -136 228 -136 362.5 -58 c 128,-1,57
 497 20 497 20 661 88 c 128,-1,58
 825 156 825 156 999 213 c 1,59,60
 1012 266 1012 266 1033 348 c 128,-1,61
 1054 430 1054 430 1077.5 526.5 c 128,-1,62
 1101 623 1101 623 1126 726.5 c 128,-1,63
 1151 830 1151 830 1171.5 926.5 c 128,-1,64
 1192 1023 1192 1023 1206.5 1106 c 128,-1,65
 1221 1189 1221 1189 1225 1243 c 1,0,1
EndSplineSet
Ligature2: "Ligature Substitution lookup 3 subtable" g h
Ligature2: "'liga' Standard Ligatures in Latin lookup 1 subtable" G H
Ligature2: "'liga' Standard Ligatures in Latin lookup 1 subtable" G h
Ligature2: "'liga' Standard Ligatures in Latin lookup 1 subtable" g H
Ligature2: "'liga' Standard Ligatures in Latin lookup 1 subtable" g h
EndChar

StartChar: uniF8D6
Encoding: 63702 63702 11
Width: 1096
Flags: W
LayerCount: 2
Fore
SplineSet
0 1075 m 1,0,1
 90 1153 90 1153 158.5 1229 c 128,-1,2
 227 1305 227 1305 290 1376.5 c 128,-1,3
 353 1448 353 1448 417.5 1514 c 128,-1,4
 482 1580 482 1580 563 1638 c 1,5,-1
 625 1638 l 1,6,7
 672 1585 672 1585 721.5 1526 c 128,-1,8
 771 1467 771 1467 818 1409 c 128,-1,9
 865 1351 865 1351 906.5 1298 c 128,-1,10
 948 1245 948 1245 978.5 1204.5 c 128,-1,11
 1009 1164 1009 1164 1027 1140 c 128,-1,12
 1045 1116 1045 1116 1044 1116 c 0,13,14
 934 962 934 962 844.5 844.5 c 128,-1,15
 755 727 755 727 691.5 630.5 c 128,-1,16
 628 534 628 534 593.5 452 c 128,-1,17
 559 370 559 370 559 286 c 0,18,19
 559 229 559 229 573.5 166.5 c 128,-1,20
 588 104 588 104 620 31 c 128,-1,21
 652 -42 652 -42 702 -126.5 c 128,-1,22
 752 -211 752 -211 823 -313 c 1,23,-1
 780 -358 l 1,24,25
 651 -282 651 -282 544 -175 c 128,-1,26
 437 -68 437 -68 351.5 57 c 128,-1,27
 266 182 266 182 202 318 c 128,-1,28
 138 454 138 454 94.5 587.5 c 128,-1,29
 51 721 51 721 27.5 846.5 c 128,-1,30
 4 972 4 972 0 1075 c 1,0,1
756 1149 m 1,31,-1
 756 1152 l 2,32,33
 756 1172 756 1172 677 1172 c 0,34,35
 634 1172 634 1172 576.5 1166.5 c 128,-1,36
 519 1161 519 1161 460 1151 c 128,-1,37
 401 1141 401 1141 347.5 1127.5 c 128,-1,38
 294 1114 294 1114 258 1098 c 1,39,40
 255 1079 255 1079 253 1058 c 0,41,42
 251 1040 251 1040 250 1015.5 c 128,-1,43
 249 991 249 991 249 964 c 0,44,45
 249 914 249 914 253.5 863.5 c 128,-1,46
 258 813 258 813 271.5 771.5 c 128,-1,47
 285 730 285 730 309.5 703.5 c 128,-1,48
 334 677 334 677 375 676 c 0,49,50
 432 676 432 676 474.5 695.5 c 128,-1,51
 517 715 517 715 550 748.5 c 128,-1,52
 583 782 583 782 609 828 c 128,-1,53
 635 874 635 874 658.5 926.5 c 128,-1,54
 682 979 682 979 705 1036 c 128,-1,55
 728 1093 728 1093 756 1149 c 1,31,-1
EndSplineSet
EndChar

StartChar: uniF8D7
Encoding: 63703 63703 12
Width: 1694
Flags: W
LayerCount: 2
Fore
SplineSet
0 1006 m 1,0,1
 1 1084 1 1084 30 1167 c 128,-1,2
 59 1250 59 1250 104 1332.5 c 128,-1,3
 149 1415 149 1415 204 1492.5 c 128,-1,4
 259 1570 259 1570 313 1638 c 1,5,-1
 807 1604 l 1,6,7
 771 1580 771 1580 728.5 1544.5 c 128,-1,8
 686 1509 686 1509 643.5 1467.5 c 128,-1,9
 601 1426 601 1426 561.5 1381.5 c 128,-1,10
 522 1337 522 1337 491.5 1294 c 128,-1,11
 461 1251 461 1251 442.5 1213 c 128,-1,12
 424 1175 424 1175 424 1146 c 0,13,14
 424 1122 424 1122 444.5 1090 c 128,-1,15
 465 1058 465 1058 499.5 1024 c 128,-1,16
 534 990 534 990 581 957 c 128,-1,17
 628 924 628 924 680.5 898 c 128,-1,18
 733 872 733 872 789 856 c 128,-1,19
 845 840 845 840 898 840 c 0,20,21
 974 840 974 840 1031.5 872.5 c 128,-1,22
 1089 905 1089 905 1128 957.5 c 128,-1,23
 1167 1010 1167 1010 1186.5 1076.5 c 128,-1,24
 1206 1143 1206 1143 1206 1211 c 0,25,26
 1206 1294 1206 1294 1184 1392.5 c 128,-1,27
 1162 1491 1162 1491 1116 1604 c 1,28,-1
 1239 1604 l 2,29,30
 1342 1604 1342 1604 1435 1598 c 128,-1,31
 1528 1592 1528 1592 1614 1577 c 1,32,33
 1614 1537 1614 1537 1616 1499 c 128,-1,34
 1618 1461 1618 1461 1622 1425 c 2,35,-1
 1636 1286 l 2,36,37
 1638 1266 1638 1266 1639 1246 c 128,-1,38
 1640 1226 1640 1226 1640 1206 c 0,39,40
 1640 1161 1640 1161 1634 1119 c 128,-1,41
 1628 1077 1628 1077 1614 1036 c 1,42,-1
 1231 694 l 2,43,44
 1203 669 1203 669 1180.5 648.5 c 128,-1,45
 1158 628 1158 628 1136 608.5 c 128,-1,46
 1114 589 1114 589 1091 568 c 128,-1,47
 1068 547 1068 547 1040 522 c 0,48,49
 1014 498 1014 498 997 456.5 c 128,-1,50
 980 415 980 415 980 361 c 0,51,52
 980 299 980 299 1004.5 223 c 128,-1,53
 1029 147 1029 147 1088 61 c 128,-1,54
 1147 -25 1147 -25 1246 -119.5 c 128,-1,55
 1345 -214 1345 -214 1495 -313 c 1,56,-1
 1491 -358 l 1,57,58
 1405 -341 1405 -341 1336 -326 c 128,-1,59
 1267 -311 1267 -311 1210 -294 c 128,-1,60
 1153 -277 1153 -277 1105 -254.5 c 128,-1,61
 1057 -232 1057 -232 1011.5 -201 c 128,-1,62
 966 -170 966 -170 921 -128 c 128,-1,63
 876 -86 876 -86 824.5 -29 c 128,-1,64
 773 28 773 28 713 103 c 128,-1,65
 653 178 653 178 578 274 c 0,66,67
 476 405 476 405 333 587 c 128,-1,68
 190 769 190 769 0 1006 c 1,0,1
EndSplineSet
EndChar

StartChar: uniF8D8
Encoding: 63704 63704 13
Width: 2007
Flags: W
LayerCount: 2
Fore
SplineSet
225 1323 m 1,0,1
 247 1339 247 1339 269.5 1356 c 128,-1,2
 292 1373 292 1373 315 1393 c 2,3,-1
 502 1554 l 2,4,5
 525 1576 525 1576 548 1597 c 128,-1,6
 571 1618 571 1618 594 1638 c 1,7,8
 699 1597 699 1597 811 1568.5 c 128,-1,9
 923 1540 923 1540 1040.5 1523 c 128,-1,10
 1158 1506 1158 1506 1280.5 1498.5 c 128,-1,11
 1403 1491 1403 1491 1528 1491 c 0,12,13
 1625 1491 1625 1491 1719.5 1492.5 c 128,-1,14
 1814 1494 1814 1494 1911 1499 c 1,15,-1
 1956 1454 l 1,16,17
 1945 1333 1945 1333 1917.5 1194 c 128,-1,18
 1890 1055 1890 1055 1847.5 910.5 c 128,-1,19
 1805 766 1805 766 1748 623.5 c 128,-1,20
 1691 481 1691 481 1620.5 354 c 128,-1,21
 1550 227 1550 227 1467 122 c 128,-1,22
 1384 17 1384 17 1290 -51 c 1,23,-1
 1229 -51 l 1,24,25
 1284 69 1284 69 1327 188 c 128,-1,26
 1370 307 1370 307 1399 418 c 128,-1,27
 1428 529 1428 529 1443 630 c 128,-1,28
 1458 731 1458 731 1458 815 c 0,29,30
 1458 956 1458 956 1414 1034.5 c 128,-1,31
 1370 1113 1370 1113 1280 1118 c 1,32,33
 1202 1114 1202 1114 1141 1072.5 c 128,-1,34
 1080 1031 1080 1031 1032 950 c 0,35,36
 984 870 984 870 935 774 c 128,-1,37
 886 678 886 678 836 563 c 0,38,39
 784 448 784 448 714 339.5 c 128,-1,40
 644 231 644 231 555 123 c 0,41,42
 466 16 466 16 344 -66.5 c 128,-1,43
 222 -149 222 -149 61 -205 c 1,44,-1
 0 -205 l 1,45,46
 156 -39 156 -39 273 117.5 c 128,-1,47
 390 274 390 274 468 416.5 c 128,-1,48
 546 559 546 559 585 684.5 c 128,-1,49
 624 810 624 810 624 914 c 0,50,51
 624 1093 624 1093 523.5 1197.5 c 128,-1,52
 423 1302 423 1302 225 1323 c 1,0,1
EndSplineSet
EndChar

StartChar: uniF8D9
Encoding: 63705 63705 14
Width: 1509
Flags: W
LayerCount: 2
Fore
SplineSet
0 4 m 1,0,1
 17 38 17 38 35 70 c 128,-1,2
 53 102 53 102 77.5 142.5 c 128,-1,3
 102 183 102 183 136.5 238 c 128,-1,4
 171 293 171 293 221 372.5 c 128,-1,5
 271 452 271 452 340 563 c 128,-1,6
 409 674 409 674 502.5 826.5 c 128,-1,7
 596 979 596 979 717 1179 c 128,-1,8
 838 1379 838 1379 993 1638 c 1,9,10
 1062 1603 1062 1603 1107 1571 c 128,-1,11
 1152 1539 1152 1539 1184 1503.5 c 128,-1,12
 1216 1468 1216 1468 1242 1426 c 128,-1,13
 1268 1384 1268 1384 1300 1329 c 0,14,15
 1320 1295 1320 1295 1348 1255 c 128,-1,16
 1376 1215 1376 1215 1413 1167 c 1,17,-1
 1413 1106 l 1,18,19
 1330 1091 1330 1091 1270.5 1085 c 128,-1,20
 1211 1079 1211 1079 1168.5 1075.5 c 128,-1,21
 1126 1072 1126 1072 1097 1068 c 128,-1,22
 1068 1064 1068 1064 1046.5 1054.5 c 128,-1,23
 1025 1045 1025 1045 1007.5 1026.5 c 128,-1,24
 990 1008 990 1008 970 975 c 128,-1,25
 950 942 950 942 924 891.5 c 128,-1,26
 898 841 898 841 860 768 c 1,27,28
 811 687 811 687 777 624.5 c 128,-1,29
 743 562 743 562 721.5 514.5 c 128,-1,30
 700 467 700 467 690.5 433 c 128,-1,31
 681 399 681 399 681 375 c 0,32,33
 681 335 681 335 707 320 c 128,-1,34
 733 305 733 305 776.5 298.5 c 128,-1,35
 820 292 820 292 876.5 285.5 c 128,-1,36
 933 279 933 279 993 256 c 0,37,38
 1059 226 1059 226 1108.5 196 c 128,-1,39
 1158 166 1158 166 1197 130 c 128,-1,40
 1236 94 1236 94 1267 49 c 128,-1,41
 1298 4 1298 4 1327.5 -55.5 c 128,-1,42
 1357 -115 1357 -115 1388.5 -191 c 128,-1,43
 1420 -267 1420 -267 1458 -365 c 1,44,-1
 1413 -410 l 1,45,46
 1380 -368 1380 -368 1340.5 -323 c 128,-1,47
 1301 -278 1301 -278 1247 -235.5 c 128,-1,48
 1193 -193 1193 -193 1120 -155 c 128,-1,49
 1047 -117 1047 -117 947 -88.5 c 128,-1,50
 847 -60 847 -60 716 -43 c 128,-1,51
 585 -26 585 -26 415 -26 c 0,52,53
 248 -26 248 -26 41 -41 c 1,54,-1
 0 4 l 1,0,1
EndSplineSet
EndChar

StartChar: uniF8DA
Encoding: 63706 63706 15
Width: 1454
Flags: W
LayerCount: 2
Fore
SplineSet
983 -410 m 1,0,1
 829 -332 829 -332 696 -228.5 c 128,-1,2
 563 -125 563 -125 454 -4.5 c 128,-1,3
 345 116 345 116 260.5 249 c 128,-1,4
 176 382 176 382 118 520 c 128,-1,5
 60 658 60 658 30 796 c 128,-1,6
 0 934 0 934 0 1065 c 1,7,8
 127 1122 127 1122 221.5 1175 c 128,-1,9
 316 1228 316 1228 384.5 1277.5 c 128,-1,10
 453 1327 453 1327 498 1372 c 128,-1,11
 543 1417 543 1417 573 1456 c 0,12,13
 604 1496 604 1496 628 1527.5 c 128,-1,14
 652 1559 652 1559 676 1582.5 c 128,-1,15
 700 1606 700 1606 729 1620 c 128,-1,16
 758 1634 758 1634 799 1638 c 1,17,18
 876 1620 876 1620 945.5 1576 c 128,-1,19
 1015 1532 1015 1532 1086 1459 c 128,-1,20
 1157 1386 1157 1386 1234 1283 c 128,-1,21
 1311 1180 1311 1180 1403 1044 c 1,22,23
 1401 948 1401 948 1385 848.5 c 128,-1,24
 1369 749 1369 749 1329 642 c 128,-1,25
 1289 535 1289 535 1220 417 c 128,-1,26
 1151 299 1151 299 1044 164 c 1,27,-1
 983 164 l 1,28,29
 1004 227 1004 227 1022 300.5 c 128,-1,30
 1040 374 1040 374 1053 451 c 128,-1,31
 1066 528 1066 528 1073.5 606 c 128,-1,32
 1081 684 1081 684 1081 756 c 256,33,34
 1081 828 1081 828 1067.5 888.5 c 128,-1,35
 1054 949 1054 949 1026 992.5 c 128,-1,36
 998 1036 998 1036 954 1060.5 c 128,-1,37
 910 1085 910 1085 850 1085 c 0,38,39
 782 1081 782 1081 727 1052.5 c 128,-1,40
 672 1024 672 1024 633.5 972 c 128,-1,41
 595 920 595 920 574 845 c 128,-1,42
 553 770 553 770 553 674 c 0,43,44
 554 579 554 579 581 464.5 c 128,-1,45
 608 350 608 350 665.5 219 c 128,-1,46
 723 88 723 88 812.5 -59 c 128,-1,47
 902 -206 902 -206 1028 -365 c 1,48,-1
 983 -410 l 1,0,1
EndSplineSet
EndChar

StartChar: uniF8DB
Encoding: 63707 63707 16
Width: 1782
Flags: W
LayerCount: 2
Fore
SplineSet
6 881 m 0,0,1
 0 899 0 899 0 920 c 0,2,3
 0 981 0 981 53 1055.5 c 128,-1,4
 106 1130 106 1130 202 1219 c 128,-1,5
 298 1308 298 1308 431 1412.5 c 128,-1,6
 564 1517 564 1517 723 1638 c 1,7,8
 805 1619 805 1619 884 1582 c 128,-1,9
 963 1545 963 1545 1033.5 1492.5 c 128,-1,10
 1104 1440 1104 1440 1163 1373.5 c 128,-1,11
 1222 1307 1222 1307 1266 1229 c 1,12,13
 1203 1169 1203 1169 1148 1141.5 c 128,-1,14
 1093 1114 1093 1114 1044 1114 c 0,15,16
 950 1114 950 1114 862 1147 c 0,17,18
 840 1155 840 1155 818 1159 c 128,-1,19
 796 1163 796 1163 773 1163 c 0,20,21
 735 1163 735 1163 699.5 1154 c 128,-1,22
 664 1145 664 1145 626 1120.5 c 128,-1,23
 588 1096 588 1096 546.5 1053 c 128,-1,24
 505 1010 505 1010 457 942 c 0,25,26
 455 938 455 938 455 935 c 0,27,28
 455 921 455 921 501 915 c 128,-1,29
 547 909 547 909 625 909 c 0,30,31
 689 909 689 909 765.5 912 c 128,-1,32
 842 915 842 915 922.5 919.5 c 128,-1,33
 1003 924 1003 924 1083 930 c 128,-1,34
 1163 936 1163 936 1235 942 c 1,35,36
 1308 913 1308 913 1364.5 850 c 128,-1,37
 1421 787 1421 787 1460 676 c 1,38,39
 1438 656 1438 656 1412.5 644.5 c 128,-1,40
 1387 633 1387 633 1357.5 627.5 c 128,-1,41
 1328 622 1328 622 1293.5 620.5 c 128,-1,42
 1259 619 1259 619 1219 619 c 0,43,44
 1191 619 1191 619 1162 620 c 128,-1,45
 1133 621 1133 621 1104 621 c 0,46,47
 1062 621 1062 621 1024.5 613.5 c 128,-1,48
 987 606 987 606 958.5 586.5 c 128,-1,49
 930 567 930 567 913.5 534 c 128,-1,50
 897 501 897 501 897 449 c 0,51,52
 897 429 897 429 926 374 c 128,-1,53
 955 319 955 319 1008.5 245 c 128,-1,54
 1062 171 1062 171 1137 85.5 c 128,-1,55
 1212 0 1212 0 1305 -82 c 128,-1,56
 1398 -164 1398 -164 1505.5 -234 c 128,-1,57
 1613 -304 1613 -304 1731 -348 c 1,58,-1
 1731 -410 l 1,59,60
 1707 -411 1707 -411 1675.5 -411.5 c 128,-1,61
 1644 -412 1644 -412 1606 -412 c 0,62,63
 1548 -412 1548 -412 1482.5 -410.5 c 128,-1,64
 1417 -409 1417 -409 1352 -404.5 c 128,-1,65
 1287 -400 1287 -400 1227 -391.5 c 128,-1,66
 1167 -383 1167 -383 1120 -369 c 1,67,68
 996 -199 996 -199 865.5 -59.5 c 128,-1,69
 735 80 735 80 610.5 198.5 c 128,-1,70
 486 317 486 317 373 420.5 c 128,-1,71
 260 524 260 524 170 623 c 0,72,73
 52 751 52 751 6 881 c 0,0,1
EndSplineSet
EndChar

StartChar: uniF8DC
Encoding: 63708 63708 17
Width: 2255
Flags: W
LayerCount: 2
Fore
SplineSet
0 1628 m 1,0,1
 161 1627 161 1627 328 1621 c 128,-1,2
 495 1615 495 1615 665 1608.5 c 128,-1,3
 835 1602 835 1602 1006.5 1596.5 c 128,-1,4
 1178 1591 1178 1591 1348 1591 c 0,5,6
 1528 1591 1528 1591 1705 1598.5 c 128,-1,7
 1882 1606 1882 1606 2058 1628 c 1,8,9
 2134 1608 2134 1608 2168.5 1566 c 128,-1,10
 2203 1524 2203 1524 2203 1456 c 0,11,12
 2203 1407 2203 1407 2185.5 1339.5 c 128,-1,13
 2168 1272 2168 1272 2136.5 1186.5 c 128,-1,14
 2105 1101 2105 1101 2061.5 998.5 c 128,-1,15
 2018 896 2018 896 1966 778 c 1,16,-1
 1921 823 l 1,17,18
 1924 856 1924 856 1924 887 c 0,19,20
 1924 988 1924 988 1892.5 1065 c 128,-1,21
 1861 1142 1861 1142 1811.5 1194 c 128,-1,22
 1762 1246 1762 1246 1701 1272.5 c 128,-1,23
 1640 1299 1640 1299 1582 1299 c 0,24,25
 1545 1299 1545 1299 1510 1286.5 c 128,-1,26
 1475 1274 1475 1274 1448 1249 c 128,-1,27
 1421 1224 1421 1224 1404.5 1186.5 c 128,-1,28
 1388 1149 1388 1149 1388 1100 c 0,29,30
 1388 1001 1388 1001 1454 850 c 1,31,32
 1302 848 1302 848 1190.5 827 c 128,-1,33
 1079 806 1079 806 1006.5 767.5 c 128,-1,34
 934 729 934 729 898.5 675.5 c 128,-1,35
 863 622 863 622 863 555 c 0,36,37
 863 462 863 462 929 352 c 128,-1,38
 995 242 995 242 1120 124.5 c 128,-1,39
 1245 7 1245 7 1425 -113.5 c 128,-1,40
 1605 -234 1605 -234 1833 -348 c 1,41,-1
 1833 -410 l 1,42,43
 1668 -408 1668 -408 1512.5 -373.5 c 128,-1,44
 1357 -339 1357 -339 1215 -282 c 128,-1,45
 1073 -225 1073 -225 945.5 -151 c 128,-1,46
 818 -77 818 -77 709 4.5 c 128,-1,47
 600 86 600 86 511 170.5 c 128,-1,48
 422 255 422 255 358 332 c 0,49,50
 296 405 296 405 266.5 455.5 c 128,-1,51
 237 506 237 506 236 532 c 0,52,53
 237 582 237 582 253.5 621.5 c 128,-1,54
 270 661 270 661 296.5 693.5 c 128,-1,55
 323 726 323 726 357 754 c 128,-1,56
 391 782 391 782 427 808.5 c 128,-1,57
 463 835 463 835 497.5 863 c 128,-1,58
 532 891 532 891 559.5 923.5 c 128,-1,59
 587 956 587 956 605 995.5 c 128,-1,60
 623 1035 623 1035 625 1085 c 0,61,62
 624 1113 624 1113 597.5 1146.5 c 128,-1,63
 571 1180 571 1180 523 1219 c 128,-1,64
 475 1258 475 1258 407.5 1303.5 c 128,-1,65
 340 1349 340 1349 256 1403 c 2,66,-1
 0 1573 l 1,67,-1
 0 1628 l 1,0,1
EndSplineSet
Ligature2: "'liga' Standard Ligatures in Latin lookup 1 subtable" N G
Ligature2: "'liga' Standard Ligatures in Latin lookup 1 subtable" N g
Ligature2: "'liga' Standard Ligatures in Latin lookup 1 subtable" n G
Ligature2: "'liga' Standard Ligatures in Latin lookup 1 subtable" n g
EndChar

StartChar: uniF8DD
Encoding: 63709 63709 18
Width: 1976
Flags: W
LayerCount: 2
Fore
SplineSet
45 1638 m 1,0,1
 164 1614 164 1614 276.5 1598.5 c 128,-1,2
 389 1583 389 1583 498.5 1573.5 c 128,-1,3
 608 1564 608 1564 715.5 1560 c 128,-1,4
 823 1556 823 1556 932 1556 c 0,5,6
 1019 1556 1019 1556 1107.5 1557.5 c 128,-1,7
 1196 1559 1196 1559 1288 1563 c 2,8,-1
 1761 1587 l 1,9,10
 1761 1574 1761 1574 1761.5 1563 c 128,-1,11
 1762 1552 1762 1552 1762 1542 c 0,12,13
 1762 1531 1762 1531 1761.5 1522 c 128,-1,14
 1761 1513 1761 1513 1761 1505 c 0,15,16
 1761 1479 1761 1479 1765 1451.5 c 128,-1,17
 1769 1424 1769 1424 1785 1382.5 c 128,-1,18
 1801 1341 1801 1341 1834 1280 c 128,-1,19
 1867 1219 1867 1219 1925 1126 c 1,20,-1
 1880 1081 l 1,21,22
 1816 1110 1816 1110 1769 1131.5 c 128,-1,23
 1722 1153 1722 1153 1700 1153 c 0,24,25
 1668 1153 1668 1153 1668 1119 c 0,26,27
 1668 1098 1668 1098 1677.5 1062.5 c 128,-1,28
 1687 1027 1687 1027 1707.5 974.5 c 128,-1,29
 1728 922 1728 922 1759 850.5 c 128,-1,30
 1790 779 1790 779 1833 686 c 1,31,32
 1790 641 1790 641 1736 604 c 128,-1,33
 1682 567 1682 567 1616 537 c 0,34,35
 1566 514 1566 514 1519 486 c 128,-1,36
 1472 458 1472 458 1435.5 424 c 128,-1,37
 1399 390 1399 390 1377 348.5 c 128,-1,38
 1355 307 1355 307 1355 257 c 0,39,40
 1355 205 1355 205 1374.5 144 c 128,-1,41
 1394 83 1394 83 1438.5 8 c 128,-1,42
 1483 -67 1483 -67 1555.5 -159 c 128,-1,43
 1628 -251 1628 -251 1735 -365 c 1,44,-1
 1690 -410 l 1,45,46
 1463 -334 1463 -334 1314.5 -250.5 c 128,-1,47
 1166 -167 1166 -167 1079 -77 c 128,-1,48
 992 13 992 13 957 109 c 128,-1,49
 922 205 922 205 922 307 c 0,50,51
 923 379 923 379 936.5 433.5 c 128,-1,52
 950 488 950 488 972.5 529 c 128,-1,53
 995 570 995 570 1024 600 c 128,-1,54
 1053 630 1053 630 1085 653 c 0,55,56
 1116 675 1116 675 1145 699.5 c 128,-1,57
 1174 724 1174 724 1196.5 755 c 128,-1,58
 1219 786 1219 786 1233 826.5 c 128,-1,59
 1247 867 1247 867 1249 922 c 0,60,61
 1248 991 1248 991 1224 1037 c 128,-1,62
 1200 1083 1200 1083 1155 1114.5 c 128,-1,63
 1110 1146 1110 1146 1044.5 1167.5 c 128,-1,64
 979 1189 979 1189 895 1208 c 0,65,66
 810 1227 810 1227 710 1255.5 c 128,-1,67
 610 1284 610 1284 497.5 1328 c 128,-1,68
 385 1372 385 1372 260 1436.5 c 128,-1,69
 135 1501 135 1501 0 1593 c 1,70,-1
 45 1638 l 1,0,1
EndSplineSet
EndChar

StartChar: uniF8DE
Encoding: 63710 63710 19
Width: 1444
Flags: W
LayerCount: 2
Fore
SplineSet
51 717 m 1,0,1
 136 775 136 775 204 843.5 c 128,-1,2
 272 912 272 912 326 987 c 128,-1,3
 380 1062 380 1062 421.5 1140 c 128,-1,4
 463 1218 463 1218 496 1296 c 128,-1,5
 529 1374 529 1374 554 1449.5 c 128,-1,6
 579 1525 579 1525 600 1593 c 1,7,-1
 645 1638 l 1,8,9
 666 1636 666 1636 678 1616.5 c 128,-1,10
 690 1597 690 1597 690 1559 c 0,11,12
 690 1513 690 1513 686 1455.5 c 128,-1,13
 682 1398 682 1398 682 1333 c 0,14,15
 682 1291 682 1291 686 1255.5 c 128,-1,16
 690 1220 690 1220 701.5 1194 c 128,-1,17
 713 1168 713 1168 734 1153 c 128,-1,18
 755 1138 755 1138 788 1137 c 0,19,20
 808 1139 808 1139 827.5 1139 c 128,-1,21
 847 1139 847 1139 867 1139 c 0,22,23
 995 1139 995 1139 1093 1109 c 128,-1,24
 1191 1079 1191 1079 1257.5 1024.5 c 128,-1,25
 1324 970 1324 970 1358 893 c 128,-1,26
 1392 816 1392 816 1392 723 c 0,27,28
 1392 540 1392 540 1272.5 354 c 128,-1,29
 1153 168 1153 168 920 -4 c 0,30,31
 752 -129 752 -129 522 -217 c 128,-1,32
 292 -305 292 -305 0 -358 c 1,33,-1
 0 -297 l 1,34,35
 133 -243 133 -243 253.5 -175 c 128,-1,36
 374 -107 374 -107 476.5 -30 c 128,-1,37
 579 47 579 47 662 130.5 c 128,-1,38
 745 214 745 214 803 298 c 128,-1,39
 861 382 861 382 892.5 464 c 128,-1,40
 924 546 924 546 924 621 c 0,41,42
 924 682 924 682 899.5 734 c 128,-1,43
 875 786 875 786 841 825.5 c 128,-1,44
 807 865 807 865 769.5 890 c 128,-1,45
 732 915 732 915 707 922 c 0,46,47
 675 930 675 930 647 930 c 0,48,49
 590 930 590 930 529 902.5 c 128,-1,50
 468 875 468 875 400 835.5 c 128,-1,51
 332 796 332 796 256.5 751 c 128,-1,52
 181 706 181 706 96 672 c 1,53,-1
 51 717 l 1,0,1
EndSplineSet
EndChar

StartChar: uniF8DF
Encoding: 63711 63711 20
Width: 942
Flags: W
LayerCount: 2
Fore
SplineSet
0 881 m 1,0,1
 30 920 30 920 78 964.5 c 128,-1,2
 126 1009 126 1009 182.5 1058.5 c 128,-1,3
 239 1108 239 1108 300 1162.5 c 128,-1,4
 361 1217 361 1217 417.5 1276.5 c 128,-1,5
 474 1336 474 1336 520 1401 c 128,-1,6
 566 1466 566 1466 594 1536 c 1,7,8
 651 1524 651 1524 695.5 1496 c 128,-1,9
 740 1468 740 1468 773 1432.5 c 128,-1,10
 806 1397 806 1397 828.5 1358.5 c 128,-1,11
 851 1320 851 1320 865 1286.5 c 128,-1,12
 879 1253 879 1253 885 1228.5 c 128,-1,13
 891 1204 891 1204 891 1198 c 0,14,15
 870 1160 870 1160 851 1135.5 c 128,-1,16
 832 1111 832 1111 812 1092 c 128,-1,17
 792 1073 792 1073 771 1056 c 128,-1,18
 750 1039 750 1039 725.5 1017 c 128,-1,19
 701 995 701 995 672 964 c 128,-1,20
 643 933 643 933 608 885 c 1,21,22
 648 827 648 827 687 771 c 128,-1,23
 726 715 726 715 756 653.5 c 128,-1,24
 786 592 786 592 804.5 522.5 c 128,-1,25
 823 453 823 453 823 369 c 0,26,27
 823 301 823 301 810.5 222 c 128,-1,28
 798 143 798 143 770.5 47.5 c 128,-1,29
 743 -48 743 -48 699.5 -161 c 128,-1,30
 656 -274 656 -274 594 -410 c 1,31,-1
 532 -410 l 1,32,33
 532 -234 532 -234 529 -104 c 128,-1,34
 526 26 526 26 517 123 c 128,-1,35
 508 220 508 220 491.5 289.5 c 128,-1,36
 475 359 475 359 448 413.5 c 128,-1,37
 421 468 421 468 382 513.5 c 128,-1,38
 343 559 343 559 289 608 c 0,39,40
 234 658 234 658 162.5 725.5 c 128,-1,41
 91 793 91 793 0 881 c 1,0,1
EndSplineSet
EndChar

StartChar: uniF8E0
Encoding: 63712 63712 21
Width: 1546
Flags: W
LayerCount: 2
Fore
SplineSet
0 676 m 1,0,1
 74 718 74 718 145 773.5 c 128,-1,2
 216 829 216 829 282.5 892 c 128,-1,3
 349 955 349 955 410.5 1024 c 128,-1,4
 472 1093 472 1093 527 1163.5 c 128,-1,5
 582 1234 582 1234 629.5 1302.5 c 128,-1,6
 677 1371 677 1371 717 1434 c 1,7,-1
 731 1434 l 2,8,9
 779 1434 779 1434 837 1441.5 c 128,-1,10
 895 1449 895 1449 957 1462 c 128,-1,11
 1019 1475 1019 1475 1081.5 1493.5 c 128,-1,12
 1144 1512 1144 1512 1202 1535 c 128,-1,13
 1260 1558 1260 1558 1309 1584 c 128,-1,14
 1358 1610 1358 1610 1393 1638 c 1,15,-1
 1434 1638 l 1,16,17
 1424 1566 1424 1566 1387.5 1490.5 c 128,-1,18
 1351 1415 1351 1415 1296 1339.5 c 128,-1,19
 1241 1264 1241 1264 1172.5 1190.5 c 128,-1,20
 1104 1117 1104 1117 1032 1050.5 c 128,-1,21
 960 984 960 984 888 926 c 128,-1,22
 816 868 816 868 754 823 c 0,23,24
 696 781 696 781 666.5 759.5 c 128,-1,25
 637 738 637 738 635 737 c 1,26,27
 713 651 713 651 749.5 564 c 128,-1,28
 786 477 786 477 786 386 c 0,29,30
 786 301 786 301 758 219 c 128,-1,31
 730 137 730 137 680 60 c 128,-1,32
 630 -17 630 -17 561 -87.5 c 128,-1,33
 492 -158 492 -158 410 -218 c 128,-1,34
 328 -278 328 -278 235 -327 c 128,-1,35
 142 -376 142 -376 45 -410 c 1,36,-1
 0 -365 l 1,37,38
 90 -316 90 -316 165 -248 c 128,-1,39
 240 -180 240 -180 294.5 -101.5 c 128,-1,40
 349 -23 349 -23 379.5 61.5 c 128,-1,41
 410 146 410 146 410 229 c 0,42,43
 410 298 410 298 386 359 c 128,-1,44
 362 420 362 420 312 470 c 128,-1,45
 262 520 262 520 184.5 557 c 128,-1,46
 107 594 107 594 0 614 c 1,47,-1
 0 676 l 1,0,1
EndSplineSet
EndChar

StartChar: uniF8E1
Encoding: 63713 63713 22
Width: 1812
Flags: W
LayerCount: 2
Fore
SplineSet
0 1638 m 1,0,1
 94 1638 94 1638 187.5 1633.5 c 128,-1,2
 281 1629 281 1629 377 1624 c 2,3,-1
 770 1602 l 2,4,5
 891 1594 891 1594 1015.5 1589 c 128,-1,6
 1140 1584 1140 1584 1268 1584 c 0,7,8
 1351 1584 1351 1584 1435.5 1587 c 128,-1,9
 1520 1590 1520 1590 1608 1597 c 1,10,11
 1632 1568 1632 1568 1653.5 1538 c 128,-1,12
 1675 1508 1675 1508 1694 1471.5 c 128,-1,13
 1713 1435 1713 1435 1729.5 1391 c 128,-1,14
 1746 1347 1746 1347 1761 1290 c 1,15,16
 1737 1291 1737 1291 1708 1294.5 c 128,-1,17
 1679 1298 1679 1298 1647.5 1302.5 c 128,-1,18
 1616 1307 1616 1307 1583.5 1310.5 c 128,-1,19
 1551 1314 1551 1314 1520 1314 c 0,20,21
 1477 1314 1477 1314 1439 1306 c 128,-1,22
 1401 1298 1401 1298 1372.5 1275 c 128,-1,23
 1344 1252 1344 1252 1327.5 1211.5 c 128,-1,24
 1311 1171 1311 1171 1311 1106 c 0,25,26
 1311 1062 1311 1062 1319 1034.5 c 128,-1,27
 1327 1007 1327 1007 1341 990.5 c 128,-1,28
 1355 974 1355 974 1374.5 968 c 128,-1,29
 1394 962 1394 962 1417 962 c 0,30,31
 1446 962 1446 962 1479.5 967.5 c 128,-1,32
 1513 973 1513 973 1549 979.5 c 128,-1,33
 1585 986 1585 986 1622 992 c 128,-1,34
 1659 998 1659 998 1696 999 c 1,35,-1
 1741 952 l 1,36,37
 1590 878 1590 878 1451 780.5 c 128,-1,38
 1312 683 1312 683 1182 570 c 128,-1,39
 1052 457 1052 457 930.5 332.5 c 128,-1,40
 809 208 809 208 694 81.5 c 128,-1,41
 579 -45 579 -45 470 -170 c 128,-1,42
 361 -295 361 -295 256 -410 c 1,43,-1
 154 -410 l 1,44,45
 215 -268 215 -268 289 -127.5 c 128,-1,46
 363 13 363 13 439.5 146.5 c 128,-1,47
 516 280 516 280 588.5 405 c 128,-1,48
 661 530 661 530 718 639.5 c 128,-1,49
 775 749 775 749 811 841.5 c 128,-1,50
 847 934 847 934 850 1004 c 1,51,52
 847 1045 847 1045 808.5 1092.5 c 128,-1,53
 770 1140 770 1140 706.5 1190 c 128,-1,54
 643 1240 643 1240 560 1291.5 c 128,-1,55
 477 1343 477 1343 383.5 1393 c 128,-1,56
 290 1443 290 1443 191.5 1489.5 c 128,-1,57
 93 1536 93 1536 0 1577 c 1,58,-1
 0 1638 l 1,0,1
EndSplineSet
EndChar

StartChar: uniF8E2
Encoding: 63714 63714 23
Width: 2161
Flags: W
LayerCount: 2
Fore
SplineSet
645 645 m 1,0,1
 680 774 680 774 680 887 c 0,2,3
 680 973 680 973 663 1052 c 128,-1,4
 646 1131 646 1131 621 1203 c 128,-1,5
 596 1275 596 1275 566.5 1339 c 128,-1,6
 537 1403 537 1403 511.5 1458 c 128,-1,7
 486 1513 486 1513 469 1558 c 128,-1,8
 452 1603 452 1603 451 1638 c 1,9,-1
 512 1638 l 1,10,11
 564 1595 564 1595 633 1555 c 128,-1,12
 702 1515 702 1515 782.5 1484 c 128,-1,13
 863 1453 863 1453 951 1434 c 128,-1,14
 1039 1415 1039 1415 1131 1415 c 0,15,16
 1231 1415 1231 1415 1330.5 1439 c 128,-1,17
 1430 1463 1430 1463 1536 1516 c 1,18,19
 1556 1511 1556 1511 1579 1511 c 0,20,21
 1592 1511 1592 1511 1603.5 1513.5 c 128,-1,22
 1615 1516 1615 1516 1626 1516 c 0,23,24
 1652 1516 1652 1516 1673 1509 c 128,-1,25
 1694 1502 1694 1502 1710 1485 c 1,26,27
 1698 1449 1698 1449 1664 1413.5 c 128,-1,28
 1630 1378 1630 1378 1582 1340.5 c 128,-1,29
 1534 1303 1534 1303 1476 1262 c 128,-1,30
 1418 1221 1418 1221 1358 1174 c 0,31,32
 1295 1125 1295 1125 1239 1067 c 128,-1,33
 1183 1009 1183 1009 1140.5 938.5 c 128,-1,34
 1098 868 1098 868 1072 785 c 128,-1,35
 1046 702 1046 702 1044 604 c 1,36,37
 1053 381 1053 381 1210 248 c 0,38,39
 1367 114 1367 114 1577 29 c 0,40,41
 1681 -13 1681 -13 1772 -52 c 128,-1,42
 1863 -91 1863 -91 1942 -127 c 0,43,44
 2098 -200 2098 -200 2109 -297 c 1,45,-1
 2064 -342 l 1,46,47
 1913 -286 1913 -286 1779.5 -247 c 128,-1,48
 1646 -208 1646 -208 1526 -183 c 128,-1,49
 1406 -158 1406 -158 1298 -147 c 128,-1,50
 1190 -136 1190 -136 1090 -136 c 0,51,52
 938 -136 938 -136 802.5 -160.5 c 128,-1,53
 667 -185 667 -185 542 -224 c 128,-1,54
 417 -263 417 -263 298.5 -312 c 128,-1,55
 180 -361 180 -361 61 -410 c 1,56,-1
 0 -410 l 1,57,58
 0 -368 0 -368 13.5 -336 c 128,-1,59
 27 -304 27 -304 57 -281 c 256,60,61
 87 -258 87 -258 126 -229 c 128,-1,62
 165 -200 165 -200 211.5 -156.5 c 128,-1,63
 258 -113 258 -113 311 -49.5 c 128,-1,64
 364 14 364 14 422 106 c 0,65,66
 479 197 479 197 534 331.5 c 128,-1,67
 589 466 589 466 645 645 c 1,0,1
EndSplineSet
EndChar

StartChar: uniF8E3
Encoding: 63715 63715 24
Width: 1915
Flags: W
LayerCount: 2
Fore
SplineSet
676 358 m 0,0,1
 859 368 859 368 1026 565 c 0,2,3
 1110 664 1110 664 1188.5 777 c 128,-1,4
 1267 890 1267 890 1343 1020 c 0,5,6
 1419 1149 1419 1149 1492.5 1258.5 c 128,-1,7
 1566 1368 1566 1368 1638 1462 c 0,8,9
 1774 1638 1774 1638 1910 1638 c 2,10,-1
 1925 1638 l 1,11,12
 1892 1570 1892 1570 1861.5 1485.5 c 128,-1,13
 1831 1401 1831 1401 1808 1306 c 128,-1,14
 1785 1211 1785 1211 1771.5 1108.5 c 128,-1,15
 1758 1006 1758 1006 1758 903 c 0,16,17
 1758 770 1758 770 1782.5 651.5 c 128,-1,18
 1807 533 1807 533 1864 430 c 1,19,-1
 1864 369 l 1,20,21
 1802 372 1802 372 1744 372 c 0,22,23
 1597 372 1597 372 1461.5 350 c 128,-1,24
 1326 328 1326 328 1194 286.5 c 128,-1,25
 1062 245 1062 245 931 185.5 c 128,-1,26
 800 126 800 126 661.5 50.5 c 128,-1,27
 523 -25 523 -25 375 -115 c 128,-1,28
 227 -205 227 -205 61 -307 c 1,29,-1
 0 -307 l 1,30,31
 -4 -288 -4 -288 -4 -259 c 0,32,33
 -4 -196 -4 -196 16 -102.5 c 128,-1,34
 36 -9 36 -9 71.5 101.5 c 128,-1,35
 107 212 107 212 154.5 333.5 c 128,-1,36
 202 455 202 455 257 574 c 128,-1,37
 312 693 312 693 372 804 c 128,-1,38
 432 915 432 915 492 1004 c 1,39,-1
 553 1004 l 1,40,41
 547 968 547 968 536 918.5 c 128,-1,42
 525 869 525 869 514.5 813 c 128,-1,43
 504 757 504 757 496 698.5 c 128,-1,44
 488 640 488 640 488 586 c 0,45,46
 488 537 488 537 497.5 495.5 c 128,-1,47
 507 454 507 454 529 424 c 128,-1,48
 551 394 551 394 587 376.5 c 128,-1,49
 623 359 623 359 676 358 c 0,0,1
EndSplineSet
EndChar

StartChar: uniF8E4
Encoding: 63716 63716 25
Width: 1935
Flags: W
LayerCount: 2
Fore
SplineSet
1343 1395 m 1,0,1
 1339 1419 1339 1419 1319.5 1437 c 128,-1,2
 1300 1455 1300 1455 1275.5 1471.5 c 128,-1,3
 1251 1488 1251 1488 1227.5 1506.5 c 128,-1,4
 1204 1525 1204 1525 1194 1550 c 0,5,6
 1191 1557 1191 1557 1191 1568 c 0,7,8
 1191 1597 1191 1597 1219 1638 c 1,9,-1
 1292 1638 l 2,10,11
 1326 1638 1326 1638 1372 1637.5 c 128,-1,12
 1418 1637 1418 1637 1470.5 1636 c 128,-1,13
 1523 1635 1523 1635 1579 1633 c 128,-1,14
 1635 1631 1635 1631 1689.5 1627.5 c 128,-1,15
 1744 1624 1744 1624 1794 1619.5 c 128,-1,16
 1844 1615 1844 1615 1884 1608 c 1,17,18
 1878 1409 1878 1409 1700 1221 c 0,19,20
 1609 1125 1609 1125 1511 1032 c 128,-1,21
 1413 939 1413 939 1305 846 c 0,22,23
 1230 781 1230 781 1162 712.5 c 128,-1,24
 1094 644 1094 644 1042.5 576 c 128,-1,25
 991 508 991 508 961 443 c 128,-1,26
 931 378 931 378 931 321 c 0,27,28
 931 223 931 223 1006 129 c 0,29,30
 1100 14 1100 14 1169.5 -60.5 c 128,-1,31
 1239 -135 1239 -135 1292 -181.5 c 128,-1,32
 1345 -228 1345 -228 1387 -253.5 c 128,-1,33
 1429 -279 1429 -279 1468 -297 c 2,34,-1
 1579 -348 l 1,35,-1
 1579 -410 l 1,36,-1
 831 -410 l 1,37,38
 752 -318 752 -318 679.5 -240.5 c 128,-1,39
 607 -163 607 -163 543 -95 c 128,-1,40
 479 -27 479 -27 424 35.5 c 128,-1,41
 369 98 369 98 326 160 c 128,-1,42
 283 222 283 222 253 287.5 c 128,-1,43
 223 353 223 353 209 428 c 0,44,45
 203 458 203 458 203 487 c 0,46,47
 203 529 203 529 218.5 566 c 128,-1,48
 234 603 234 603 258.5 637 c 128,-1,49
 283 671 283 671 314 702 c 128,-1,50
 345 733 345 733 377 764 c 0,51,52
 399 786 399 786 419 813.5 c 128,-1,53
 439 841 439 841 453 872.5 c 128,-1,54
 467 904 467 904 475.5 938.5 c 128,-1,55
 484 973 484 973 484 1009 c 0,56,57
 484 1106 484 1106 426 1243 c 1,58,59
 381 1263 381 1263 343 1263 c 0,60,61
 309 1263 309 1263 273 1250 c 128,-1,62
 237 1237 237 1237 203.5 1222 c 128,-1,63
 170 1207 170 1207 139.5 1194 c 128,-1,64
 109 1181 109 1181 85 1181 c 0,65,66
 56 1181 56 1181 35.5 1201 c 128,-1,67
 15 1221 15 1221 0 1274 c 1,68,69
 64 1286 64 1286 120.5 1312.5 c 128,-1,70
 177 1339 177 1339 229.5 1373.5 c 128,-1,71
 282 1408 282 1408 331 1448 c 128,-1,72
 380 1488 380 1488 428 1526 c 0,73,74
 488 1574 488 1574 557.5 1604 c 128,-1,75
 627 1634 627 1634 699 1634 c 0,76,77
 793 1634 793 1634 913 1577 c 1,78,79
 857 1540 857 1540 821.5 1489 c 128,-1,80
 786 1438 786 1438 765.5 1376 c 128,-1,81
 745 1314 745 1314 737 1242 c 128,-1,82
 729 1170 729 1170 729 1092 c 0,83,84
 729 1032 729 1032 731.5 974.5 c 128,-1,85
 734 917 734 917 739 860 c 1,86,87
 767 846 767 846 802 846 c 0,88,89
 854 846 854 846 914 879 c 128,-1,90
 974 912 974 912 1033 964 c 128,-1,91
 1092 1016 1092 1016 1147 1079.5 c 128,-1,92
 1202 1143 1202 1143 1244.5 1204 c 128,-1,93
 1287 1265 1287 1265 1313.5 1316.5 c 128,-1,94
 1340 1368 1340 1368 1343 1395 c 1,0,1
EndSplineSet
Ligature2: "'liga' Standard Ligatures in Latin lookup 1 subtable" T L H
Ligature2: "'liga' Standard Ligatures in Latin lookup 1 subtable" T L h
Ligature2: "'liga' Standard Ligatures in Latin lookup 1 subtable" T l H
Ligature2: "'liga' Standard Ligatures in Latin lookup 1 subtable" T l h
Ligature2: "'liga' Standard Ligatures in Latin lookup 1 subtable" t L H
Ligature2: "'liga' Standard Ligatures in Latin lookup 1 subtable" t L h
Ligature2: "'liga' Standard Ligatures in Latin lookup 1 subtable" t l H
Ligature2: "'liga' Standard Ligatures in Latin lookup 1 subtable" t l h
EndChar

StartChar: uniF8E5
Encoding: 63717 63717 26
Width: 2120
Flags: W
LayerCount: 2
Fore
SplineSet
0 -365 m 1,0,1
 89 -236 89 -236 174 -95 c 128,-1,2
 259 46 259 46 343 191.5 c 128,-1,3
 427 337 427 337 512 484.5 c 128,-1,4
 597 632 597 632 686 774 c 0,5,6
 775 917 775 917 875 1047 c 128,-1,7
 975 1177 975 1177 1090 1288 c 128,-1,8
 1205 1399 1205 1399 1337 1488 c 128,-1,9
 1469 1577 1469 1577 1622 1638 c 1,10,11
 1654 1619 1654 1619 1654 1587 c 0,12,13
 1654 1569 1654 1569 1645 1543.5 c 128,-1,14
 1636 1518 1636 1518 1625 1482.5 c 128,-1,15
 1614 1447 1614 1447 1605 1400.5 c 128,-1,16
 1596 1354 1596 1354 1595 1294 c 0,17,18
 1595 1186 1595 1186 1653 1024 c 1,19,-1
 1591 1024 l 1,20,21
 1526 1067 1526 1067 1456 1067 c 0,22,23
 1405 1067 1405 1067 1352.5 1044.5 c 128,-1,24
 1300 1022 1300 1022 1249 984.5 c 128,-1,25
 1198 947 1198 947 1149.5 899 c 128,-1,26
 1101 851 1101 851 1058.5 799.5 c 128,-1,27
 1016 748 1016 748 980.5 697 c 128,-1,28
 945 646 945 646 919.5 604 c 128,-1,29
 894 562 894 562 879.5 532 c 128,-1,30
 865 502 865 502 864 492 c 0,31,32
 869 431 869 431 954 431 c 0,33,34
 1003 431 1003 431 1068 447 c 128,-1,35
 1133 463 1133 463 1203.5 491 c 128,-1,36
 1274 519 1274 519 1346 556.5 c 128,-1,37
 1418 594 1418 594 1483 637.5 c 128,-1,38
 1548 681 1548 681 1601 728.5 c 128,-1,39
 1654 776 1654 776 1686 823 c 1,40,-1
 1688 823 l 2,41,42
 1692 823 1692 823 1696 819 c 2,43,-1
 1706 809 l 1,44,-1
 1718 793 l 2,45,46
 1725 783 1725 783 1731 778 c 0,47,48
 1761 703 1761 703 1788 651.5 c 128,-1,49
 1815 600 1815 600 1839 566 c 128,-1,50
 1863 532 1863 532 1884.5 512 c 128,-1,51
 1906 492 1906 492 1926.5 480 c 128,-1,52
 1947 468 1947 468 1967 460 c 128,-1,53
 1987 452 1987 452 2007 442 c 0,54,55
 2040 426 2040 426 2068 369 c 1,56,57
 2005 372 2005 372 1944 372 c 0,58,59
 1684 372 1684 372 1439.5 315 c 128,-1,60
 1195 258 1195 258 960 154.5 c 128,-1,61
 725 51 725 51 497.5 -92.5 c 128,-1,62
 270 -236 270 -236 45 -410 c 1,63,-1
 0 -365 l 1,0,1
EndSplineSet
EndChar

StartChar: uniF8E6
Encoding: 63718 63718 27
Width: 2451
Flags: W
LayerCount: 2
Fore
SplineSet
1382 451 m 1,0,1
 1428 552 1428 552 1484.5 667 c 128,-1,2
 1541 782 1541 782 1608.5 899.5 c 128,-1,3
 1676 1017 1676 1017 1755.5 1131 c 128,-1,4
 1835 1245 1835 1245 1928 1343 c 128,-1,5
 2021 1441 2021 1441 2127.5 1518 c 128,-1,6
 2234 1595 2234 1595 2355 1638 c 1,7,-1
 2400 1593 l 1,8,9
 2275 1441 2275 1441 2191 1295.5 c 128,-1,10
 2107 1150 2107 1150 2056 1012 c 128,-1,11
 2005 874 2005 874 1983 743 c 128,-1,12
 1961 612 1961 612 1961 489 c 0,13,14
 1961 355 1961 355 1979.5 232.5 c 128,-1,15
 1998 110 1998 110 2026 3.5 c 128,-1,16
 2054 -103 2054 -103 2085.5 -191 c 128,-1,17
 2117 -279 2117 -279 2144 -344 c 1,18,-1
 2099 -389 l 1,19,20
 2036 -389 2036 -389 1983.5 -378 c 128,-1,21
 1931 -367 1931 -367 1885.5 -346.5 c 128,-1,22
 1840 -326 1840 -326 1799.5 -298.5 c 128,-1,23
 1759 -271 1759 -271 1722 -238 c 2,24,-1
 1567 -94 l 2,25,26
 1484 -17 1484 -17 1376 51 c 1,27,28
 1110 51 1110 51 924.5 45.5 c 128,-1,29
 739 40 739 40 631 29 c 0,30,31
 416 6 416 6 365 -45 c 0,32,33
 312 -98 312 -98 270 -188 c 0,34,35
 249 -233 249 -233 192.5 -288 c 128,-1,36
 136 -343 136 -343 45 -410 c 1,37,-1
 0 -365 l 1,38,39
 22 -318 22 -318 32 -251.5 c 128,-1,40
 42 -185 42 -185 46.5 -106.5 c 128,-1,41
 51 -28 51 -28 52.5 60 c 128,-1,42
 54 148 54 148 58 238.5 c 128,-1,43
 62 329 62 329 72 419.5 c 128,-1,44
 82 510 82 510 104 594 c 0,45,46
 144 765 144 765 266 881 c 1,47,-1
 328 881 l 1,48,49
 328 733 328 733 364 636.5 c 128,-1,50
 400 540 400 540 465.5 484 c 128,-1,51
 531 428 531 428 623.5 405.5 c 128,-1,52
 716 383 716 383 830 383 c 0,53,54
 951 383 951 383 1091 403.5 c 128,-1,55
 1231 424 1231 424 1382 451 c 1,0,1
EndSplineSet
EndChar

StartChar: uniF8E7
Encoding: 63719 63719 28
Width: 1851
Flags: W
LayerCount: 2
Fore
SplineSet
666 -410 m 1,0,1
 570 -318 570 -318 483 -205 c 128,-1,2
 396 -92 396 -92 322 46.5 c 128,-1,3
 248 185 248 185 188.5 350.5 c 128,-1,4
 129 516 129 516 87 713 c 128,-1,5
 45 910 45 910 22.5 1140 c 128,-1,6
 0 1370 0 1370 0 1638 c 1,7,-1
 1802 1638 l 1,8,-1
 1802 1577 l 1,9,10
 1728 1529 1728 1529 1635.5 1494.5 c 128,-1,11
 1543 1460 1543 1460 1441 1435.5 c 128,-1,12
 1339 1411 1339 1411 1231.5 1395 c 128,-1,13
 1124 1379 1124 1379 1020 1368 c 0,14,15
 915 1355 915 1355 819.5 1341.5 c 128,-1,16
 724 1328 724 1328 647 1309.5 c 128,-1,17
 570 1291 570 1291 514.5 1265 c 128,-1,18
 459 1239 459 1239 434 1202 c 0,19,20
 421 1183 421 1183 415.5 1150 c 128,-1,21
 410 1117 410 1117 410 1070 c 0,22,23
 410 969 410 969 431 815.5 c 128,-1,24
 452 662 452 662 492.5 470 c 128,-1,25
 533 278 533 278 592 54.5 c 128,-1,26
 651 -169 651 -169 727 -410 c 1,27,-1
 666 -410 l 1,0,1
EndSplineSet
EndChar

StartChar: uniF8E8
Encoding: 63720 63720 29
Width: 1905
Flags: W
LayerCount: 2
Fore
SplineSet
0 850 m 0,0,1
 0 943 0 943 30 1031.5 c 128,-1,2
 60 1120 60 1120 112 1199.5 c 128,-1,3
 164 1279 164 1279 235 1348.5 c 128,-1,4
 306 1418 306 1418 388 1474.5 c 128,-1,5
 470 1531 470 1531 559 1572.5 c 128,-1,6
 648 1614 648 1614 737 1638 c 1,7,8
 910 1638 910 1638 1049 1639 c 128,-1,9
 1188 1640 1188 1640 1300 1640 c 0,10,11
 1406 1640 1406 1640 1490 1638 c 128,-1,12
 1574 1636 1574 1636 1640.5 1628.5 c 128,-1,13
 1707 1621 1707 1621 1759 1606.5 c 128,-1,14
 1811 1592 1811 1592 1853 1567 c 1,15,16
 1808 1348 1808 1348 1686 1165 c 0,17,18
 1624 1072 1624 1072 1569.5 975.5 c 128,-1,19
 1515 879 1515 879 1468 776 c 0,20,21
 1405 638 1405 638 1405 467 c 0,22,23
 1405 380 1405 380 1423 288 c 128,-1,24
 1441 196 1441 196 1482.5 94.5 c 128,-1,25
 1524 -7 1524 -7 1590.5 -120.5 c 128,-1,26
 1657 -234 1657 -234 1755 -365 c 1,27,-1
 1710 -410 l 1,28,29
 1631 -385 1631 -385 1534 -339.5 c 128,-1,30
 1437 -294 1437 -294 1330.5 -234 c 128,-1,31
 1224 -174 1224 -174 1110.5 -102 c 128,-1,32
 997 -30 997 -30 884.5 48 c 128,-1,33
 772 126 772 126 663 207.5 c 128,-1,34
 554 289 554 289 456.5 368 c 128,-1,35
 359 447 359 447 276.5 521 c 128,-1,36
 194 595 194 595 133.5 658 c 128,-1,37
 73 721 73 721 38 770.5 c 128,-1,38
 3 820 3 820 0 850 c 0,0,1
1128 1315 m 0,39,40
 1085 1355 1085 1355 1018 1355 c 0,41,42
 957 1355 957 1355 889.5 1324 c 128,-1,43
 822 1293 822 1293 765.5 1242 c 128,-1,44
 709 1191 709 1191 672 1124.5 c 128,-1,45
 635 1058 635 1058 635 987 c 0,46,47
 635 937 635 937 652 886.5 c 128,-1,48
 669 836 669 836 696.5 789.5 c 128,-1,49
 724 743 724 743 759 702.5 c 128,-1,50
 794 662 794 662 830 632 c 128,-1,51
 866 602 866 602 899.5 584.5 c 128,-1,52
 933 567 933 567 958 567 c 0,53,54
 981 567 981 567 995 581 c 128,-1,55
 1009 595 1009 595 1016.5 615 c 128,-1,56
 1024 635 1024 635 1026 658.5 c 128,-1,57
 1028 682 1028 682 1028 702 c 0,58,59
 1028 747 1028 747 1021.5 800 c 128,-1,60
 1015 853 1015 853 1015 907 c 0,61,62
 1015 963 1015 963 1028 1015.5 c 128,-1,63
 1041 1068 1041 1068 1058.5 1114.5 c 128,-1,64
 1076 1161 1076 1161 1094.5 1200 c 128,-1,65
 1113 1239 1113 1239 1124 1268 c 0,66,67
 1127 1277 1127 1277 1129 1284.5 c 128,-1,68
 1131 1292 1131 1292 1131 1299 c 0,69,70
 1131 1307 1131 1307 1128 1315 c 0,39,40
EndSplineSet
EndChar

StartChar: uniF8E9
Encoding: 63721 63721 30
Width: 666
Flags: W
LayerCount: 2
Fore
SplineSet
102 946 m 2,0,1
 104 974 104 974 120 1003.5 c 128,-1,2
 136 1033 136 1033 159 1065 c 128,-1,3
 182 1097 182 1097 209.5 1131.5 c 128,-1,4
 237 1166 237 1166 262 1204 c 0,5,6
 288 1242 288 1242 298 1284 c 128,-1,7
 308 1326 308 1326 309 1374 c 0,8,9
 304 1471 304 1471 199 1593 c 1,10,-1
 244 1638 l 1,11,12
 338 1590 338 1590 399.5 1545.5 c 128,-1,13
 461 1501 461 1501 497 1457.5 c 128,-1,14
 533 1414 533 1414 547.5 1371 c 128,-1,15
 562 1328 562 1328 562 1283 c 0,16,17
 562 1250 562 1250 550.5 1212 c 128,-1,18
 539 1174 539 1174 521 1136 c 128,-1,19
 503 1098 503 1098 481 1061 c 128,-1,20
 459 1024 459 1024 438 991 c 0,21,22
 406 941 406 941 392.5 895.5 c 128,-1,23
 379 850 379 850 379 807 c 0,24,25
 382 779 382 779 401 750 c 128,-1,26
 420 721 420 721 441.5 692.5 c 128,-1,27
 463 664 463 664 480.5 638 c 128,-1,28
 498 612 498 612 498 590 c 0,29,30
 498 563 498 563 472 544.5 c 128,-1,31
 446 526 446 526 383 512 c 1,32,33
 331 519 331 519 290 545 c 128,-1,34
 249 571 249 571 218 607.5 c 128,-1,35
 187 644 187 644 165 689 c 128,-1,36
 143 734 143 734 129 778.5 c 128,-1,37
 115 823 115 823 108.5 865 c 128,-1,38
 102 907 102 907 102 938 c 2,39,-1
 102 946 l 2,0,1
EndSplineSet
EndChar

StartChar: uniF8F0
Encoding: 63728 63728 31
Width: 1628
Flags: W
LayerCount: 2
Fore
SplineSet
0 737 m 1,0,1
 133 799 133 799 254.5 842 c 128,-1,2
 376 885 376 885 488 912 c 128,-1,3
 600 939 600 939 704.5 951 c 128,-1,4
 809 963 809 963 907 963 c 0,5,6
 1010 963 1010 963 1099.5 949 c 128,-1,7
 1189 935 1189 935 1262.5 913 c 128,-1,8
 1336 891 1336 891 1393.5 862.5 c 128,-1,9
 1451 834 1451 834 1491 805.5 c 128,-1,10
 1531 777 1531 777 1553 750.5 c 128,-1,11
 1575 724 1575 724 1577 705 c 1,12,13
 1502 638 1502 638 1416 591.5 c 128,-1,14
 1330 545 1330 545 1235.5 515.5 c 128,-1,15
 1141 486 1141 486 1040.5 473 c 128,-1,16
 940 460 940 460 835 460 c 0,17,18
 708 460 708 460 585.5 477 c 128,-1,19
 463 494 463 494 354.5 523.5 c 128,-1,20
 246 553 246 553 155 592 c 128,-1,21
 64 631 64 631 0 676 c 1,22,-1
 0 737 l 1,0,1
EndSplineSet
EndChar

StartChar: uniF8F1
Encoding: 63729 63729 32
Width: 1956
Flags: W
LayerCount: 2
Fore
SplineSet
430 1393 m 1,0,1
 595 1441 595 1441 770.5 1473.5 c 128,-1,2
 946 1506 946 1506 1126.5 1532 c 128,-1,3
 1307 1558 1307 1558 1491.5 1582 c 128,-1,4
 1676 1606 1676 1606 1860 1638 c 1,5,-1
 1905 1593 l 1,6,7
 1821 1563 1821 1563 1725 1519.5 c 128,-1,8
 1629 1476 1629 1476 1528.5 1425 c 128,-1,9
 1428 1374 1428 1374 1327.5 1318.5 c 128,-1,10
 1227 1263 1227 1263 1135 1209.5 c 128,-1,11
 1043 1156 1043 1156 963.5 1108 c 128,-1,12
 884 1060 884 1060 825 1024 c 128,-1,13
 766 988 766 988 731.5 966 c 128,-1,14
 697 944 697 944 696 944 c 256,15,16
 695 944 695 944 674 919.5 c 128,-1,17
 653 895 653 895 614 839 c 128,-1,18
 575 783 575 783 518.5 692 c 128,-1,19
 462 601 462 601 390 467 c 128,-1,20
 318 333 318 333 231.5 152.5 c 128,-1,21
 145 -28 145 -28 45 -262 c 1,22,-1
 0 -307 l 1,23,24
 0 -270 0 -270 5.5 -196.5 c 128,-1,25
 11 -123 11 -123 23 -24 c 128,-1,26
 35 75 35 75 53.5 194 c 128,-1,27
 72 313 72 313 97.5 441.5 c 128,-1,28
 123 570 123 570 155.5 702 c 128,-1,29
 188 834 188 834 229 958 c 0,30,31
 271 1086 271 1086 321 1194 c 128,-1,32
 371 1302 371 1302 430 1393 c 1,0,1
EndSplineSet
EndChar

StartChar: uniF8F2
Encoding: 63730 63730 33
Width: 870
Flags: W
LayerCount: 2
Fore
SplineSet
2 717 m 0,0,1
 1 730 1 730 0.5 742.5 c 128,-1,2
 0 755 0 755 0 768 c 0,3,4
 0 873 0 873 32.5 966 c 128,-1,5
 65 1059 65 1059 121 1141 c 128,-1,6
 177 1223 177 1223 252.5 1294.5 c 128,-1,7
 328 1366 328 1366 414 1427.5 c 128,-1,8
 500 1489 500 1489 592 1541.5 c 128,-1,9
 684 1594 684 1594 774 1638 c 1,10,-1
 819 1593 l 1,11,12
 692 1469 692 1469 601 1353 c 128,-1,13
 510 1237 510 1237 451.5 1125.5 c 128,-1,14
 393 1014 393 1014 365.5 906 c 128,-1,15
 338 798 338 798 338 690 c 256,16,17
 338 582 338 582 361.5 470 c 128,-1,18
 385 358 385 358 430 240 c 128,-1,19
 475 122 475 122 539.5 -2.5 c 128,-1,20
 604 -127 604 -127 686 -262 c 1,21,-1
 641 -307 l 1,22,23
 515 -151 515 -151 401.5 -6 c 128,-1,24
 288 139 288 139 201.5 268.5 c 128,-1,25
 115 398 115 398 61.5 511 c 128,-1,26
 8 624 8 624 2 717 c 0,0,1
EndSplineSet
EndChar

StartChar: uniF8F3
Encoding: 63731 63731 34
Width: 1382
Flags: W
LayerCount: 2
Fore
SplineSet
66 543 m 0,0,1
 -3 699 -3 699 -3 831 c 0,2,3
 -3 922 -3 922 26.5 1005 c 128,-1,4
 56 1088 56 1088 105.5 1162 c 128,-1,5
 155 1236 155 1236 220 1302.5 c 128,-1,6
 285 1369 285 1369 356 1427 c 0,7,8
 423 1482 423 1482 490.5 1534.5 c 128,-1,9
 558 1587 558 1587 629 1638 c 1,10,-1
 674 1602 l 1,11,12
 626 1554 626 1554 586 1481.5 c 128,-1,13
 546 1409 546 1409 518 1327.5 c 128,-1,14
 490 1246 490 1246 474.5 1163 c 128,-1,15
 459 1080 459 1080 459 1010 c 0,16,17
 459 956 459 956 471 921 c 128,-1,18
 483 886 483 886 507 866.5 c 128,-1,19
 531 847 531 847 566 839.5 c 128,-1,20
 601 832 601 832 647 832 c 0,21,22
 696 832 696 832 757 840 c 128,-1,23
 818 848 818 848 891.5 861.5 c 128,-1,24
 965 875 965 875 1051.5 892 c 128,-1,25
 1138 909 1138 909 1237 926 c 1,26,-1
 1282 881 l 1,27,28
 1177 828 1177 828 1097 787 c 128,-1,29
 1017 746 1017 746 957 713.5 c 128,-1,30
 897 681 897 681 855.5 654.5 c 128,-1,31
 814 628 814 628 786.5 605 c 128,-1,32
 759 582 759 582 743 559.5 c 128,-1,33
 727 537 727 537 719 512 c 0,34,35
 691 444 691 444 691 372 c 0,36,37
 691 305 691 305 722.5 230.5 c 128,-1,38
 754 156 754 156 828 67.5 c 128,-1,39
 902 -21 902 -21 1025 -127.5 c 128,-1,40
 1148 -234 1148 -234 1331 -365 c 1,41,-1
 1286 -410 l 1,42,43
 1151 -352 1151 -352 1012.5 -269 c 128,-1,44
 874 -186 874 -186 743.5 -92.5 c 128,-1,45
 613 1 613 1 496.5 98 c 128,-1,46
 380 195 380 195 289.5 281.5 c 128,-1,47
 199 368 199 368 140 437 c 128,-1,48
 81 506 81 506 66 543 c 0,0,1
EndSplineSet
EndChar

StartChar: uniF8F4
Encoding: 63732 63732 35
Width: 1864
Flags: W
LayerCount: 2
Fore
SplineSet
584 1438 m 1,0,1
 689 1501 689 1501 815 1540 c 128,-1,2
 941 1579 941 1579 1084.5 1600.5 c 128,-1,3
 1228 1622 1228 1622 1387 1630 c 128,-1,4
 1546 1638 1546 1638 1718 1638 c 1,5,-1
 1718 1629 l 2,6,7
 1718 1555 1718 1555 1618 1509 c 0,8,9
 1563 1484 1563 1484 1500 1458.5 c 128,-1,10
 1437 1433 1437 1433 1364 1405 c 0,11,12
 1290 1377 1290 1377 1226.5 1339 c 128,-1,13
 1163 1301 1163 1301 1110 1251 c 0,14,15
 1015 1162 1015 1162 1015 1009 c 0,16,17
 1015 1000 1015 1000 1015 991 c 128,-1,18
 1015 982 1015 982 1016 973 c 1,19,-1
 954 973 l 1,20,21
 911 1004 911 1004 858.5 1056.5 c 128,-1,22
 806 1109 806 1109 754.5 1167.5 c 128,-1,23
 703 1226 703 1226 658 1284 c 128,-1,24
 613 1342 613 1342 584 1384 c 1,25,-1
 584 1389 l 1,26,-1
 588 1403 l 2,27,28
 588 1405 588 1405 588.5 1407 c 128,-1,29
 589 1409 589 1409 589 1411 c 0,30,31
 589 1417 589 1417 588 1425 c 128,-1,32
 587 1433 587 1433 584 1438 c 1,0,1
307 1540 m 1,33,34
 392 1382 392 1382 498.5 1231 c 128,-1,35
 605 1080 605 1080 739 934 c 0,36,37
 868 792 868 792 1003 657 c 128,-1,38
 1138 522 1138 522 1263 399 c 128,-1,39
 1388 276 1388 276 1497 167.5 c 128,-1,40
 1606 59 1606 59 1683 -29 c 0,41,42
 1808 -174 1808 -174 1810 -266 c 0,43,44
 1810 -288 1810 -288 1802 -307 c 1,45,-1
 348 -307 l 1,46,47
 325 -290 325 -290 300.5 -267.5 c 128,-1,48
 276 -245 276 -245 249.5 -210.5 c 128,-1,49
 223 -176 223 -176 194.5 -126.5 c 128,-1,50
 166 -77 166 -77 135 -6 c 128,-1,51
 104 65 104 65 70.5 160.5 c 128,-1,52
 37 256 37 256 0 383 c 1,53,-1
 45 428 l 1,54,55
 115 335 115 335 188.5 271 c 128,-1,56
 262 207 262 207 336.5 167 c 128,-1,57
 411 127 411 127 484.5 109.5 c 128,-1,58
 558 92 558 92 627 92 c 0,59,60
 722 92 722 92 796.5 120.5 c 128,-1,61
 871 149 871 149 909 195 c 0,62,63
 919 208 919 208 919 225 c 0,64,65
 919 257 919 257 882.5 314.5 c 128,-1,66
 846 372 846 372 786 458 c 128,-1,67
 726 544 726 544 649.5 661 c 128,-1,68
 573 778 573 778 492 928 c 0,69,70
 366 1161 366 1161 256 1495 c 1,71,-1
 307 1540 l 1,33,34
EndSplineSet
EndChar

StartChar: uniF8F5
Encoding: 63733 63733 36
Width: 1065
Flags: W
LayerCount: 2
Fore
SplineSet
696 -410 m 1,0,1
 671 -407 671 -407 635.5 -374.5 c 128,-1,2
 600 -342 600 -342 557.5 -285 c 128,-1,3
 515 -228 515 -228 467.5 -150.5 c 128,-1,4
 420 -73 420 -73 371.5 19.5 c 128,-1,5
 323 112 323 112 275.5 216 c 128,-1,6
 228 320 228 320 184.5 429.5 c 128,-1,7
 141 539 141 539 104 650.5 c 128,-1,8
 67 762 67 762 41 870 c 0,9,10
 -2 1041 -2 1041 -2 1183 c 0,11,12
 -2 1239 -2 1239 4 1288 c 128,-1,13
 10 1337 10 1337 26 1379 c 128,-1,14
 42 1421 42 1421 69.5 1455.5 c 128,-1,15
 97 1490 97 1490 139 1518 c 0,16,17
 186 1550 186 1550 244 1572.5 c 128,-1,18
 302 1595 302 1595 366 1609 c 128,-1,19
 430 1623 430 1623 499 1629.5 c 128,-1,20
 568 1636 568 1636 638 1636 c 0,21,22
 756 1636 756 1636 860 1624 c 1,23,-1
 905 1579 l 1,24,25
 879 1563 879 1563 834.5 1547 c 128,-1,26
 790 1531 790 1531 737 1506 c 128,-1,27
 684 1481 684 1481 630 1443 c 128,-1,28
 576 1405 576 1405 532 1345.5 c 128,-1,29
 488 1286 488 1286 460 1200 c 128,-1,30
 432 1114 432 1114 432 994 c 0,31,32
 432 963 432 963 434 929.5 c 128,-1,33
 436 896 436 896 440 860 c 1,34,35
 462 831 462 831 493.5 819 c 128,-1,36
 525 807 525 807 572 807 c 0,37,38
 637 807 637 807 726 830 c 128,-1,39
 815 853 815 853 938 895 c 1,40,-1
 983 850 l 1,41,42
 899 790 899 790 839 750.5 c 128,-1,43
 779 711 779 711 740.5 681 c 128,-1,44
 702 651 702 651 684 623.5 c 128,-1,45
 666 596 666 596 666 560 c 0,46,47
 666 535 666 535 676 524 c 128,-1,48
 686 513 686 513 709 513 c 256,49,50
 732 513 732 513 764 523.5 c 128,-1,51
 796 534 796 534 831.5 548.5 c 128,-1,52
 867 563 867 563 902.5 579.5 c 128,-1,53
 938 596 938 596 969 608 c 1,54,-1
 1014 563 l 1,55,56
 926 487 926 487 852.5 424 c 128,-1,57
 779 361 779 361 725.5 300.5 c 128,-1,58
 672 240 672 240 642 176.5 c 128,-1,59
 612 113 612 113 612 36 c 0,60,61
 612 -39 612 -39 643 -137.5 c 128,-1,62
 674 -236 674 -236 741 -365 c 1,63,-1
 696 -410 l 1,0,1
EndSplineSet
EndChar

StartChar: uniF8F6
Encoding: 63734 63734 37
Width: 1894
Flags: W
LayerCount: 2
Fore
SplineSet
932 1024 m 0,0,1
 978 1018 978 1018 1024 1018 c 0,2,3
 1124 1018 1124 1018 1223 1045 c 128,-1,4
 1322 1072 1322 1072 1417 1110 c 2,5,-1
 1642 1200 l 2,6,7
 1696 1221 1696 1221 1745.5 1236.5 c 128,-1,8
 1795 1252 1795 1252 1843 1260 c 1,9,10
 1841 1137 1841 1137 1829 1042 c 128,-1,11
 1817 947 1817 947 1798 868 c 128,-1,12
 1779 789 1779 789 1754 720.5 c 128,-1,13
 1729 652 1729 652 1702 582 c 0,14,15
 1673 510 1673 510 1648 429.5 c 128,-1,16
 1623 349 1623 349 1603.5 249 c 128,-1,17
 1584 149 1584 149 1572.5 24 c 128,-1,18
 1561 -101 1561 -101 1561 -262 c 1,19,-1
 1516 -307 l 1,20,21
 1477 -228 1477 -228 1449.5 -142.5 c 128,-1,22
 1422 -57 1422 -57 1399.5 29 c 128,-1,23
 1377 115 1377 115 1356.5 198.5 c 128,-1,24
 1336 282 1336 282 1312 358 c 128,-1,25
 1288 434 1288 434 1257.5 499.5 c 128,-1,26
 1227 565 1227 565 1184 614 c 0,27,28
 1136 668 1136 668 1068.5 692.5 c 128,-1,29
 1001 717 1001 717 907 717 c 0,30,31
 823 717 823 717 763.5 713 c 128,-1,32
 704 709 704 709 662 697 c 128,-1,33
 620 685 620 685 591.5 663.5 c 128,-1,34
 563 642 563 642 541 608 c 0,35,36
 518 572 518 572 495.5 519 c 128,-1,37
 473 466 473 466 444.5 392.5 c 128,-1,38
 416 319 416 319 379.5 222 c 128,-1,39
 343 125 343 125 291 0 c 1,40,41
 270 17 270 17 257.5 27 c 128,-1,42
 245 37 245 37 237.5 45.5 c 128,-1,43
 230 54 230 54 227.5 63 c 128,-1,44
 225 72 225 72 225 87 c 0,45,46
 225 103 225 103 228.5 133.5 c 128,-1,47
 232 164 232 164 236 219.5 c 128,-1,48
 240 275 240 275 243.5 361 c 128,-1,49
 247 447 247 447 247 573 c 0,50,51
 247 612 247 612 247 654.5 c 128,-1,52
 247 697 247 697 246 745 c 0,53,54
 241 829 241 829 232 893 c 128,-1,55
 223 957 223 957 209 1010.5 c 128,-1,56
 195 1064 195 1064 175.5 1112.5 c 128,-1,57
 156 1161 156 1161 130.5 1216 c 128,-1,58
 105 1271 105 1271 72.5 1337 c 128,-1,59
 40 1403 40 1403 0 1491 c 1,60,-1
 45 1536 l 1,61,62
 167 1417 167 1417 271.5 1328.5 c 128,-1,63
 376 1240 376 1240 478.5 1178 c 128,-1,64
 581 1116 581 1116 690.5 1078.5 c 128,-1,65
 800 1041 800 1041 932 1024 c 0,0,1
EndSplineSet
EndChar

StartChar: uniF8F7
Encoding: 63735 63735 38
Width: 1495
Flags: W
LayerCount: 2
Fore
SplineSet
0 911 m 1,0,1
 43 965 43 965 77 1015 c 128,-1,2
 111 1065 111 1065 141 1111 c 128,-1,3
 171 1157 171 1157 200 1199.5 c 128,-1,4
 229 1242 229 1242 262.5 1282 c 128,-1,5
 296 1322 296 1322 336.5 1360 c 128,-1,6
 377 1398 377 1398 430 1434 c 1,7,8
 486 1335 486 1335 531.5 1267 c 128,-1,9
 577 1199 577 1199 616 1157 c 128,-1,10
 655 1115 655 1115 688.5 1096.5 c 128,-1,11
 722 1078 722 1078 754 1078 c 0,12,13
 785 1078 785 1078 818.5 1099.5 c 128,-1,14
 852 1121 852 1121 888 1158.5 c 128,-1,15
 924 1196 924 1196 964 1247 c 128,-1,16
 1004 1298 1004 1298 1049 1356 c 0,17,18
 1159 1501 1159 1501 1354 1638 c 1,19,-1
 1399 1593 l 1,20,21
 1352 1528 1352 1528 1249 1356 c 0,22,23
 1212 1295 1212 1295 1176.5 1217 c 128,-1,24
 1141 1139 1141 1139 1113 1049.5 c 128,-1,25
 1085 960 1085 960 1068 861.5 c 128,-1,26
 1051 763 1051 763 1051 663 c 0,27,28
 1051 546 1051 546 1071 430 c 128,-1,29
 1091 314 1091 314 1137 195 c 128,-1,30
 1183 76 1183 76 1258 -47.5 c 128,-1,31
 1333 -171 1333 -171 1444 -303 c 1,32,-1
 1399 -348 l 1,33,34
 1309 -284 1309 -284 1234 -206.5 c 128,-1,35
 1159 -129 1159 -129 1096 -46.5 c 128,-1,36
 1033 36 1033 36 981.5 120.5 c 128,-1,37
 930 205 930 205 887 284.5 c 128,-1,38
 844 364 844 364 808.5 435.5 c 128,-1,39
 773 507 773 507 743 563 c 0,40,41
 707 630 707 630 678 658.5 c 128,-1,42
 649 687 649 687 617 687 c 0,43,44
 580 687 580 687 552 672 c 128,-1,45
 524 657 524 657 505 636 c 128,-1,46
 486 615 486 615 476.5 592 c 128,-1,47
 467 569 467 569 467 553 c 0,48,49
 467 547 467 547 468 542 c 128,-1,50
 469 537 469 537 471 532 c 1,51,52
 436 553 436 553 422 575.5 c 128,-1,53
 408 598 408 598 408 627 c 0,54,55
 407 642 407 642 411 656.5 c 128,-1,56
 415 671 415 671 420 686 c 2,57,-1
 449 766 l 2,58,59
 456 786 456 786 456 805 c 0,60,61
 456 843 456 843 422.5 859.5 c 128,-1,62
 389 876 389 876 337 876 c 0,63,64
 328 875 328 875 319 875 c 128,-1,65
 310 875 310 875 299 874 c 2,66,-1
 164 862 l 2,67,68
 86 854 86 854 0 850 c 1,69,-1
 0 911 l 1,0,1
EndSplineSet
EndChar

StartChar: uniF8F8
Encoding: 63736 63736 39
Width: 2058
Flags: W
LayerCount: 2
Fore
SplineSet
1311 -246 m 1,0,1
 1260 -230 1260 -230 1217 -218 c 128,-1,2
 1174 -206 1174 -206 1137.5 -198.5 c 128,-1,3
 1101 -191 1101 -191 1068 -187.5 c 128,-1,4
 1035 -184 1035 -184 1004 -184 c 0,5,6
 971 -184 971 -184 937.5 -187.5 c 128,-1,7
 904 -191 904 -191 867.5 -198.5 c 128,-1,8
 831 -206 831 -206 789 -218 c 128,-1,9
 747 -230 747 -230 696 -246 c 1,10,11
 636 -245 636 -245 636 -210 c 0,12,13
 636 -189 636 -189 650.5 -159.5 c 128,-1,14
 665 -130 665 -130 682 -97.5 c 128,-1,15
 699 -65 699 -65 713.5 -32.5 c 128,-1,16
 728 0 728 0 728 27 c 0,17,18
 728 61 728 61 699.5 79 c 128,-1,19
 671 97 671 97 598 100 c 0,20,21
 560 99 560 99 532 86.5 c 128,-1,22
 504 74 504 74 481 52.5 c 128,-1,23
 458 31 458 31 437.5 2 c 128,-1,24
 417 -27 417 -27 392.5 -60 c 128,-1,25
 368 -93 368 -93 337 -129 c 128,-1,26
 306 -165 306 -165 264 -201 c 0,27,28
 187 -266 187 -266 45 -307 c 1,29,-1
 0 -262 l 1,30,31
 124 -169 124 -169 215 -72 c 128,-1,32
 306 25 306 25 366.5 132 c 128,-1,33
 427 239 427 239 458 360.5 c 128,-1,34
 489 482 489 482 492 625 c 1,35,36
 490 749 490 749 467.5 854 c 128,-1,37
 445 959 445 959 407.5 1048 c 128,-1,38
 370 1137 370 1137 321.5 1213 c 128,-1,39
 273 1289 273 1289 219 1355.5 c 128,-1,40
 165 1422 165 1422 108.5 1480 c 128,-1,41
 52 1538 52 1538 0 1593 c 1,42,-1
 51 1638 l 1,43,44
 218 1632 218 1632 303 1546 c 0,45,46
 387 1460 387 1460 438 1348 c 0,47,48
 490 1230 490 1230 555 1149 c 0,49,50
 622 1065 622 1065 758 1065 c 1,51,52
 829 1070 829 1070 829 1135 c 0,53,54
 829 1166 829 1166 819.5 1205.5 c 128,-1,55
 810 1245 810 1245 795.5 1289 c 128,-1,56
 781 1333 781 1333 764.5 1378.5 c 128,-1,57
 748 1424 748 1424 735 1466 c 0,58,59
 727 1491 727 1491 723.5 1513 c 128,-1,60
 720 1535 720 1535 720 1553 c 0,61,62
 720 1579 720 1579 727 1597 c 1,63,64
 803 1573 803 1573 870.5 1561.5 c 128,-1,65
 938 1550 938 1550 1004 1550 c 0,66,67
 1067 1550 1067 1550 1134.5 1561.5 c 128,-1,68
 1202 1573 1202 1573 1280 1597 c 1,69,70
 1286 1579 1286 1579 1286 1556 c 0,71,72
 1286 1532 1286 1532 1278.5 1500.5 c 128,-1,73
 1271 1469 1271 1469 1259.5 1433.5 c 128,-1,74
 1248 1398 1248 1398 1234 1361.5 c 128,-1,75
 1220 1325 1220 1325 1208 1290 c 0,76,77
 1191 1244 1191 1244 1183.5 1205 c 128,-1,78
 1176 1166 1176 1166 1176 1135 c 0,79,80
 1176 1069 1176 1069 1249 1065 c 1,81,82
 1382 1065 1382 1065 1450 1149 c 0,83,84
 1483 1191 1483 1191 1512 1240.5 c 128,-1,85
 1541 1290 1541 1290 1567 1348 c 0,86,87
 1618 1460 1618 1460 1702 1546 c 256,88,89
 1786 1632 1786 1632 1956 1638 c 1,90,-1
 2007 1593 l 1,91,92
 1957 1542 1957 1542 1901 1484.5 c 128,-1,93
 1845 1427 1845 1427 1790.5 1361 c 128,-1,94
 1736 1295 1736 1295 1686 1218 c 128,-1,95
 1636 1141 1636 1141 1598.5 1050.5 c 128,-1,96
 1561 960 1561 960 1538.5 854.5 c 128,-1,97
 1516 749 1516 749 1516 625 c 0,98,99
 1516 481 1516 481 1546.5 359 c 128,-1,100
 1577 237 1577 237 1638 129.5 c 128,-1,101
 1699 22 1699 22 1791.5 -74 c 128,-1,102
 1884 -170 1884 -170 2007 -262 c 1,103,-1
 1962 -307 l 1,104,105
 1864 -279 1864 -279 1798.5 -238.5 c 128,-1,106
 1733 -198 1733 -198 1688.5 -153 c 128,-1,107
 1644 -108 1644 -108 1613.5 -63.5 c 128,-1,108
 1583 -19 1583 -19 1554 17 c 128,-1,109
 1525 53 1525 53 1492 76 c 128,-1,110
 1459 99 1459 99 1409 100 c 0,111,112
 1335 97 1335 97 1306 80 c 128,-1,113
 1277 63 1277 63 1277 29 c 0,114,115
 1277 4 1277 4 1291.5 -29 c 128,-1,116
 1306 -62 1306 -62 1323 -96 c 128,-1,117
 1340 -130 1340 -130 1354.5 -160.5 c 128,-1,118
 1369 -191 1369 -191 1369 -210 c 0,119,120
 1369 -244 1369 -244 1311 -246 c 1,0,1
EndSplineSet
EndChar

StartChar: uniF8F9
Encoding: 63737 63737 40
Width: 1485
Flags: W
LayerCount: 2
Fore
SplineSet
717 1638 m 0,0,1
 744 1562 744 1562 787.5 1501 c 128,-1,2
 831 1440 831 1440 883.5 1390.5 c 128,-1,3
 936 1341 936 1341 996 1299.5 c 128,-1,4
 1056 1258 1056 1258 1116 1220.5 c 128,-1,5
 1176 1183 1176 1183 1234 1147.5 c 128,-1,6
 1292 1112 1292 1112 1341 1073 c 0,7,8
 1429 1004 1429 1004 1434 915 c 1,9,10
 1318 964 1318 964 1237 982 c 128,-1,11
 1156 1000 1156 1000 1098 1000 c 0,12,13
 1053 1000 1053 1000 1020.5 990 c 128,-1,14
 988 980 988 980 965.5 966.5 c 128,-1,15
 943 953 943 953 929.5 939 c 128,-1,16
 916 925 916 925 911 918 c 0,17,18
 852 856 852 856 827 770.5 c 128,-1,19
 802 685 802 685 802 570 c 0,20,21
 802 496 802 496 812.5 416 c 128,-1,22
 823 336 823 336 842 255.5 c 128,-1,23
 861 175 861 175 887.5 95.5 c 128,-1,24
 914 16 914 16 945 -56.5 c 128,-1,25
 976 -129 976 -129 1011.5 -193 c 128,-1,26
 1047 -257 1047 -257 1085 -307 c 1,27,-1
 1040 -352 l 1,28,29
 961 -352 961 -352 895.5 -342.5 c 128,-1,30
 830 -333 830 -333 774 -322 c 128,-1,31
 718 -311 718 -311 670 -301.5 c 128,-1,32
 622 -292 622 -292 578 -292 c 0,33,34
 528 -292 528 -292 485 -305 c 128,-1,35
 442 -318 442 -318 393 -352 c 1,36,-1
 348 -307 l 1,37,38
 384 -258 384 -258 419 -194.5 c 128,-1,39
 454 -131 454 -131 485 -58.5 c 128,-1,40
 516 14 516 14 543 93.5 c 128,-1,41
 570 173 570 173 589 254 c 128,-1,42
 608 335 608 335 619 415.5 c 128,-1,43
 630 496 630 496 630 571 c 0,44,45
 630 704 630 704 595 797.5 c 128,-1,46
 560 891 560 891 481 954 c 0,47,48
 462 973 462 973 423.5 986.5 c 128,-1,49
 385 1000 385 1000 333 1000 c 0,50,51
 274 1000 274 1000 194 982 c 128,-1,52
 114 964 114 964 0 915 c 1,53,54
 0 951 0 951 13 982.5 c 128,-1,55
 26 1014 26 1014 48 1042.5 c 128,-1,56
 70 1071 70 1071 100 1095.5 c 128,-1,57
 130 1120 130 1120 164 1141 c 2,58,-1
 303 1227 l 2,59,60
 337 1248 337 1248 363.5 1268 c 128,-1,61
 390 1288 390 1288 413 1311 c 128,-1,62
 436 1334 436 1334 458 1362 c 128,-1,63
 480 1390 480 1390 506 1427 c 2,64,-1
 596 1554 l 2,65,66
 628 1599 628 1599 653.5 1627 c 128,-1,67
 679 1655 679 1655 696 1655 c 0,68,69
 710 1655 710 1655 717 1638 c 0,0,1
EndSplineSet
EndChar

StartChar: uniF8FD
Encoding: 63741 63741 41
Width: 1432
Flags: W
LayerCount: 2
Fore
SplineSet
690 154 m 1,0,-1
 51 1229 l 1,1,-1
 102 1280 l 1,2,-1
 1331 1280 l 1,3,-1
 1382 1229 l 1,4,-1
 739 154 l 1,5,-1
 690 154 l 1,0,-1
EndSplineSet
EndChar

StartChar: uniF8FE
Encoding: 63742 63742 42
Width: 1432
Flags: W
LayerCount: 2
Fore
SplineSet
739 1280 m 1,0,-1
 1382 205 l 1,1,-1
 1331 154 l 1,2,-1
 102 154 l 1,3,-1
 51 205 l 1,4,-1
 690 1280 l 1,5,-1
 739 1280 l 1,0,-1
EndSplineSet
EndChar

StartChar: uniF8FF
Encoding: 63743 63743 43
Width: 1683
Flags: W
LayerCount: 2
Fore
SplineSet
582 801 m 1,0,1
 532 786 532 786 489 766 c 0,2,3
 446 748 446 748 410 723 c 0,4,5
 373 698 373 698 340 668 c 0,6,7
 309 637 309 637 283 604 c 0,8,9
 252 567 252 567 231 528 c 0,10,11
 209 492 209 492 197 451 c 0,12,13
 182 410 182 410 176 367 c 0,14,15
 168 326 168 326 170 281 c 0,16,17
 170 262 170 262 170 248 c 0,18,19
 170 236 170 236 172 223 c 0,20,21
 172 211 172 211 176 199 c 0,22,23
 178 184 178 184 184 168 c 1,24,25
 203 182 203 182 221 197 c 0,26,27
 242 211 242 211 258 227 c 0,28,29
 276 242 276 242 293 258 c 0,30,31
 309 272 309 272 326 289 c 0,32,33
 340 303 340 303 352 319 c 0,34,35
 367 334 367 334 379 350 c 0,36,37
 391 365 391 365 403 381 c 0,38,39
 414 397 414 397 426 414 c 1,40,-1
 705 -49 l 1,41,42
 670 -51 670 -51 643 -51 c 0,43,44
 614 -53 614 -53 592 -55 c 0,45,46
 569 -57 569 -57 549 -61 c 0,47,48
 528 -63 528 -63 508 -68 c 0,49,50
 485 -74 485 -74 467 -78 c 0,51,52
 446 -82 446 -82 428 -88 c 0,53,54
 408 -94 408 -94 389 -102 c 0,55,56
 371 -109 371 -109 354 -117 c 1,57,58
 373 -135 373 -135 395 -152 c 0,59,60
 416 -166 416 -166 438 -180 c 0,61,62
 459 -195 459 -195 483 -205 c 0,63,64
 506 -215 506 -215 530 -223 c 0,65,66
 553 -233 553 -233 578 -240 c 0,67,68
 602 -246 602 -246 627 -252 c 0,69,70
 653 -256 653 -256 680 -258 c 256,71,72
 707 -260 707 -260 735 -260 c 0,73,74
 762 -260 762 -260 786 -258 c 0,75,76
 813 -256 813 -256 840 -252 c 0,77,78
 864 -246 864 -246 889 -240 c 0,79,80
 913 -233 913 -233 938 -223 c 0,81,82
 961 -215 961 -215 983 -205 c 0,83,84
 1006 -195 1006 -195 1028 -180 c 0,85,86
 1049 -168 1049 -168 1071 -152 c 0,87,88
 1092 -137 1092 -137 1112 -119 c 1,89,90
 1092 -115 1092 -115 1071 -109 c 0,91,92
 1051 -102 1051 -102 1028 -98 c 0,93,94
 1008 -92 1008 -92 987 -88 c 0,95,96
 967 -84 967 -84 946 -78 c 1,97,98
 924 -76 924 -76 901 -72 c 0,99,100
 881 -68 881 -68 858 -66 c 0,101,102
 836 -61 836 -61 813 -59 c 0,103,104
 791 -57 791 -57 768 -55 c 1,105,-1
 1047 414 l 1,106,107
 1057 393 1057 393 1069 375 c 0,108,109
 1081 356 1081 356 1096 338 c 0,110,111
 1108 319 1108 319 1122 303 c 0,112,113
 1137 287 1137 287 1153 272 c 0,114,115
 1167 256 1167 256 1184 240 c 0,116,117
 1198 225 1198 225 1217 213 c 0,118,119
 1233 199 1233 199 1249 184 c 1,120,121
 1268 172 1268 172 1286 160 c 1,122,123
 1288 176 1288 176 1292 190 c 0,124,125
 1294 203 1294 203 1296 217 c 0,126,127
 1298 229 1298 229 1300 246 c 0,128,129
 1300 260 1300 260 1303 283 c 1,130,131
 1300 328 1300 328 1292 371 c 256,132,133
 1284 414 1284 414 1272 455 c 0,134,135
 1257 494 1257 494 1237 532 c 0,136,137
 1217 571 1217 571 1190 608 c 0,138,139
 1161 643 1161 643 1128 672 c 0,140,141
 1096 702 1096 702 1059 725 c 0,142,143
 1022 750 1022 750 981 768 c 256,144,145
 940 786 940 786 895 801 c 1,146,147
 899 780 899 780 903 762 c 0,148,149
 909 741 909 741 915 723 c 0,150,151
 922 702 922 702 928 684 c 0,152,153
 936 666 936 666 944 649 c 1,154,155
 948 629 948 629 954 610 c 0,156,157
 961 590 961 590 969 571 c 0,158,159
 977 553 977 553 983 537 c 0,160,161
 991 518 991 518 1001 502 c 1,162,-1
 737 57 l 1,163,-1
 471 502 l 1,164,165
 477 520 477 520 485 541 c 0,166,167
 494 559 494 559 502 580 c 0,168,169
 508 598 508 598 516 618 c 0,170,171
 524 637 524 637 532 657 c 0,172,173
 539 674 539 674 545 692 c 0,174,175
 551 711 551 711 557 729 c 0,176,177
 563 745 563 745 569 764 c 0,178,179
 575 782 575 782 582 801 c 1,0,1
737 1716 m 1,180,181
 739 1657 739 1657 745 1602 c 0,182,183
 750 1544 750 1544 756 1489 c 0,184,185
 762 1432 762 1432 770 1378 c 0,186,187
 778 1323 778 1323 788 1270 c 0,188,189
 797 1214 797 1214 805 1161 c 0,190,191
 815 1108 815 1108 827 1057 c 0,192,193
 838 1004 838 1004 852 952 c 0,194,195
 864 899 864 899 879 850 c 1,196,197
 930 836 930 836 979 815 c 0,198,199
 1026 797 1026 797 1069 770 c 256,200,201
 1112 743 1112 743 1149 711 c 0,202,203
 1188 678 1188 678 1221 641 c 1,204,205
 1251 600 1251 600 1276 559 c 0,206,207
 1300 516 1300 516 1317 471 c 0,208,209
 1333 426 1333 426 1341 379 c 0,210,211
 1350 332 1350 332 1350 283 c 0,212,213
 1348 256 1348 256 1348 238 c 0,214,215
 1346 219 1346 219 1343 205 c 0,216,217
 1341 188 1341 188 1337 174 c 0,218,219
 1333 158 1333 158 1329 137 c 1,220,221
 1348 125 1348 125 1368 117 c 0,222,223
 1386 106 1386 106 1407 98 c 0,224,225
 1427 90 1427 90 1448 84 c 0,226,227
 1468 78 1468 78 1489 74 c 0,228,229
 1516 66 1516 66 1538 61 c 0,230,231
 1561 57 1561 57 1583 55 c 0,232,233
 1604 51 1604 51 1628 51 c 0,234,235
 1653 51 1653 51 1683 55 c 1,236,237
 1669 31 1669 31 1653 10 c 0,238,239
 1636 -8 1636 -8 1616 -27 c 0,240,241
 1595 -45 1595 -45 1573 -59 c 0,242,243
 1550 -76 1550 -76 1524 -88 c 0,244,245
 1495 -102 1495 -102 1468 -113 c 0,246,247
 1440 -123 1440 -123 1411 -129 c 0,248,249
 1380 -135 1380 -135 1350 -139 c 0,250,251
 1319 -141 1319 -141 1286 -141 c 0,252,253
 1266 -143 1266 -143 1249 -141 c 0,254,255
 1235 -141 1235 -141 1225 -139 c 0,256,257
 1212 -139 1212 -139 1198 -137 c 0,258,259
 1186 -133 1186 -133 1169 -129 c 1,260,261
 1145 -152 1145 -152 1120 -170 c 0,262,263
 1098 -188 1098 -188 1071 -205 c 0,264,265
 1047 -221 1047 -221 1020 -236 c 0,266,267
 995 -250 995 -250 969 -260 c 0,268,269
 940 -270 940 -270 911 -279 c 0,270,271
 885 -285 885 -285 856 -291 c 0,272,273
 825 -297 825 -297 797 -299 c 0,274,275
 766 -301 766 -301 737 -301 c 0,276,277
 705 -301 705 -301 676 -299 c 0,278,279
 645 -297 645 -297 616 -291 c 0,280,281
 586 -287 586 -287 557 -281 c 0,282,283
 530 -272 530 -272 504 -262 c 0,284,285
 475 -252 475 -252 449 -240 c 0,286,287
 422 -225 422 -225 397 -211 c 0,288,289
 373 -195 373 -195 350 -178 c 0,290,291
 326 -160 326 -160 305 -139 c 1,292,293
 281 -152 281 -152 260 -164 c 0,294,295
 240 -178 240 -178 219 -193 c 0,296,297
 201 -205 201 -205 182 -221 c 0,298,299
 166 -236 166 -236 152 -250 c 0,300,301
 135 -266 135 -266 121 -283 c 0,302,303
 104 -299 104 -299 92 -317 c 0,304,305
 80 -336 80 -336 70 -354 c 0,306,307
 59 -373 59 -373 51 -393 c 1,308,309
 45 -387 45 -387 39 -377 c 0,310,311
 35 -369 35 -369 29 -358 c 0,312,313
 25 -350 25 -350 20 -340 c 0,314,315
 14 -330 14 -330 12 -317 c 0,316,317
 8 -309 8 -309 6 -297 c 0,318,319
 4 -287 4 -287 2 -274 c 0,320,321
 2 -264 2 -264 0 -250 c 0,322,323
 0 -238 0 -238 0 -223 c 0,324,325
 0 -199 0 -199 2 -174 c 0,326,327
 4 -147 4 -147 8 -125 c 0,328,329
 12 -100 12 -100 20 -78 c 0,330,331
 27 -53 27 -53 37 -31 c 0,332,333
 45 -10 45 -10 55 10 c 0,334,335
 66 33 66 33 80 53 c 0,336,337
 92 74 92 74 109 94 c 0,338,339
 125 113 125 113 143 133 c 1,340,341
 137 154 137 154 133 168 c 0,342,343
 129 184 129 184 127 199 c 0,344,345
 125 213 125 213 125 227 c 0,346,347
 123 244 123 244 123 268 c 0,348,349
 123 319 123 319 129 371 c 0,350,351
 137 420 137 420 154 467 c 0,352,353
 168 512 168 512 190 555 c 0,354,355
 215 598 215 598 246 637 c 0,356,357
 276 674 276 674 313 707 c 0,358,359
 352 739 352 739 395 766 c 256,360,361
 438 793 438 793 487 813 c 0,362,363
 537 834 537 834 592 850 c 1,364,365
 606 901 606 901 618 954 c 0,366,367
 633 1006 633 1006 645 1059 c 0,368,369
 655 1112 655 1112 666 1165 c 0,370,371
 676 1221 676 1221 686 1276 c 0,372,373
 694 1329 694 1329 700 1382 c 0,374,375
 709 1438 709 1438 715 1493 c 0,376,377
 721 1546 721 1546 727 1604 c 0,378,379
 733 1659 733 1659 737 1716 c 1,180,181
EndSplineSet
EndChar

StartChar: a
Encoding: 97 97 44
Width: 2099
Flags: W
LayerCount: 2
Fore
SplineSet
0 20 m 1,0,1
 157 99 157 99 344 336 c 0,2,3
 434 451 434 451 528.5 586.5 c 128,-1,4
 623 722 623 722 714 860.5 c 128,-1,5
 805 999 805 999 889.5 1130.5 c 128,-1,6
 974 1262 974 1262 1044 1368 c 0,7,8
 1193 1592 1193 1592 1270 1638 c 1,9,-1
 2028 1638 l 1,10,-1
 2028 1577 l 1,11,12
 1860 1532 1860 1532 1715 1469.5 c 128,-1,13
 1570 1407 1570 1407 1463.5 1333 c 128,-1,14
 1357 1259 1357 1259 1296.5 1177 c 128,-1,15
 1236 1095 1236 1095 1236 1013 c 0,16,17
 1236 956 1236 956 1266 903.5 c 128,-1,18
 1296 851 1296 851 1359.5 803 c 128,-1,19
 1423 755 1423 755 1522.5 713 c 128,-1,20
 1622 671 1622 671 1761 635 c 1,21,-1
 1761 573 l 1,22,23
 1710 568 1710 568 1653 564 c 128,-1,24
 1596 560 1596 560 1530 557 c 2,25,-1
 1270 545 l 2,26,27
 1208 541 1208 541 1154 535.5 c 128,-1,28
 1100 530 1100 530 1059.5 522.5 c 128,-1,29
 1019 515 1019 515 995.5 504 c 128,-1,30
 972 493 972 493 971 479 c 0,31,32
 977 419 977 419 1124 391 c 0,33,34
 1199 377 1199 377 1286.5 354 c 128,-1,35
 1374 331 1374 331 1475 299 c 0,36,37
 1677 235 1677 235 1839 76 c 0,38,39
 2004 -85 2004 -85 2048 -410 c 1,40,-1
 1987 -410 l 1,41,42
 1929 -326 1929 -326 1871.5 -266 c 128,-1,43
 1814 -206 1814 -206 1747 -165.5 c 128,-1,44
 1680 -125 1680 -125 1599 -100.5 c 128,-1,45
 1518 -76 1518 -76 1414 -63.5 c 128,-1,46
 1310 -51 1310 -51 1178.5 -47 c 128,-1,47
 1047 -43 1047 -43 879 -43 c 0,48,49
 816 -43 816 -43 747 -43.5 c 128,-1,50
 678 -44 678 -44 602 -44 c 0,51,52
 340 -44 340 -44 0 -41 c 1,53,-1
 0 20 l 1,0,1
EndSplineSet
Substitution2: "'liga' Standard Ligatures in Latin lookup 2 subtable" uniF8D0
EndChar

StartChar: b
Encoding: 98 98 45
Width: 2048
Flags: W
LayerCount: 2
Fore
SplineSet
10 1149 m 1,0,1
 83 1186 83 1186 151 1249 c 128,-1,2
 219 1312 219 1312 276 1387 c 128,-1,3
 333 1462 333 1462 376.5 1543.5 c 128,-1,4
 420 1625 420 1625 446 1700 c 1,5,6
 513 1698 513 1698 559.5 1683.5 c 128,-1,7
 606 1669 606 1669 638 1646.5 c 128,-1,8
 670 1624 670 1624 690 1594.5 c 128,-1,9
 710 1565 710 1565 723 1532 c 2,10,-1
 774 1405 l 2,11,12
 790 1366 790 1366 822 1338.5 c 128,-1,13
 854 1311 854 1311 897 1311 c 0,14,15
 942 1311 942 1311 997.5 1336 c 128,-1,16
 1053 1361 1053 1361 1110.5 1399.5 c 128,-1,17
 1168 1438 1168 1438 1224 1485 c 128,-1,18
 1280 1532 1280 1532 1327 1577 c 0,19,20
 1328 1577 1328 1577 1346 1579.5 c 128,-1,21
 1364 1582 1364 1582 1399 1587 c 2,22,-1
 1575 1612 l 2,23,24
 1623 1617 1623 1617 1675 1622 c 128,-1,25
 1727 1627 1727 1627 1779 1630.5 c 128,-1,26
 1831 1634 1831 1634 1881 1636 c 128,-1,27
 1931 1638 1931 1638 1975 1638 c 2,28,-1
 2007 1638 l 1,29,-1
 2007 1577 l 1,30,31
 1935 1565 1935 1565 1844 1530.5 c 128,-1,32
 1753 1496 1753 1496 1659.5 1444 c 128,-1,33
 1566 1392 1566 1392 1476.5 1326 c 128,-1,34
 1387 1260 1387 1260 1316.5 1186 c 128,-1,35
 1246 1112 1246 1112 1203 1034 c 128,-1,36
 1160 956 1160 956 1159 879 c 0,37,38
 1159 742 1159 742 1182.5 619.5 c 128,-1,39
 1206 497 1206 497 1247.5 386 c 128,-1,40
 1289 275 1289 275 1344.5 175.5 c 128,-1,41
 1400 76 1400 76 1464 -14.5 c 128,-1,42
 1528 -105 1528 -105 1597 -188 c 128,-1,43
 1666 -271 1666 -271 1735 -348 c 1,44,-1
 1735 -410 l 1,45,46
 1572 -312 1572 -312 1446.5 -201.5 c 128,-1,47
 1321 -91 1321 -91 1221 30 c 128,-1,48
 1121 151 1121 151 1040.5 282 c 128,-1,49
 960 413 960 413 887 553 c 0,50,51
 837 647 837 647 787 745 c 128,-1,52
 737 843 737 843 686 946 c 1,53,54
 666 952 666 952 649.5 954.5 c 128,-1,55
 633 957 633 957 618 957 c 0,56,57
 593 957 593 957 572.5 947 c 128,-1,58
 552 937 552 937 535.5 920.5 c 128,-1,59
 519 904 519 904 505.5 882.5 c 128,-1,60
 492 861 492 861 481 838 c 0,61,62
 469 813 469 813 453.5 789 c 128,-1,63
 438 765 438 765 417 746.5 c 128,-1,64
 396 728 396 728 369 716.5 c 128,-1,65
 342 705 342 705 307 705 c 0,66,67
 279 705 279 705 248 711 c 1,68,69
 249 719 249 719 249.5 728 c 128,-1,70
 250 737 250 737 250 745 c 0,71,72
 250 808 250 808 225 860.5 c 128,-1,73
 200 913 200 913 163 961 c 128,-1,74
 126 1009 126 1009 84.5 1054.5 c 128,-1,75
 43 1100 43 1100 10 1149 c 1,0,1
EndSplineSet
Substitution2: "'liga' Standard Ligatures in Latin lookup 2 subtable" uniF8D1
EndChar

StartChar: zero
Encoding: 48 48 46
Width: 1628
Flags: W
LayerCount: 2
Fore
SplineSet
0 737 m 1,0,1
 133 799 133 799 254.5 842 c 128,-1,2
 376 885 376 885 488 912 c 128,-1,3
 600 939 600 939 704.5 951 c 128,-1,4
 809 963 809 963 907 963 c 0,5,6
 1010 963 1010 963 1099.5 949 c 128,-1,7
 1189 935 1189 935 1262.5 913 c 128,-1,8
 1336 891 1336 891 1393.5 862.5 c 128,-1,9
 1451 834 1451 834 1491 805.5 c 128,-1,10
 1531 777 1531 777 1553 750.5 c 128,-1,11
 1575 724 1575 724 1577 705 c 1,12,13
 1502 638 1502 638 1416 591.5 c 128,-1,14
 1330 545 1330 545 1235.5 515.5 c 128,-1,15
 1141 486 1141 486 1040.5 473 c 128,-1,16
 940 460 940 460 835 460 c 0,17,18
 708 460 708 460 585.5 477 c 128,-1,19
 463 494 463 494 354.5 523.5 c 128,-1,20
 246 553 246 553 155 592 c 128,-1,21
 64 631 64 631 0 676 c 1,22,-1
 0 737 l 1,0,1
EndSplineSet
EndChar

StartChar: one
Encoding: 49 49 47
Width: 1956
Flags: W
LayerCount: 2
Fore
SplineSet
430 1393 m 1,0,1
 595 1441 595 1441 770.5 1473.5 c 128,-1,2
 946 1506 946 1506 1126.5 1532 c 128,-1,3
 1307 1558 1307 1558 1491.5 1582 c 128,-1,4
 1676 1606 1676 1606 1860 1638 c 1,5,-1
 1905 1593 l 1,6,7
 1821 1563 1821 1563 1725 1519.5 c 128,-1,8
 1629 1476 1629 1476 1528.5 1425 c 128,-1,9
 1428 1374 1428 1374 1327.5 1318.5 c 128,-1,10
 1227 1263 1227 1263 1135 1209.5 c 128,-1,11
 1043 1156 1043 1156 963.5 1108 c 128,-1,12
 884 1060 884 1060 825 1024 c 128,-1,13
 766 988 766 988 731.5 966 c 128,-1,14
 697 944 697 944 696 944 c 256,15,16
 695 944 695 944 674 919.5 c 128,-1,17
 653 895 653 895 614 839 c 128,-1,18
 575 783 575 783 518.5 692 c 128,-1,19
 462 601 462 601 390 467 c 128,-1,20
 318 333 318 333 231.5 152.5 c 128,-1,21
 145 -28 145 -28 45 -262 c 1,22,-1
 0 -307 l 1,23,24
 0 -270 0 -270 5.5 -196.5 c 128,-1,25
 11 -123 11 -123 23 -24 c 128,-1,26
 35 75 35 75 53.5 194 c 128,-1,27
 72 313 72 313 97.5 441.5 c 128,-1,28
 123 570 123 570 155.5 702 c 128,-1,29
 188 834 188 834 229 958 c 0,30,31
 271 1086 271 1086 321 1194 c 128,-1,32
 371 1302 371 1302 430 1393 c 1,0,1
EndSplineSet
EndChar

StartChar: two
Encoding: 50 50 48
Width: 870
Flags: W
LayerCount: 2
Fore
SplineSet
2 717 m 0,0,1
 1 730 1 730 0.5 742.5 c 128,-1,2
 0 755 0 755 0 768 c 0,3,4
 0 873 0 873 32.5 966 c 128,-1,5
 65 1059 65 1059 121 1141 c 128,-1,6
 177 1223 177 1223 252.5 1294.5 c 128,-1,7
 328 1366 328 1366 414 1427.5 c 128,-1,8
 500 1489 500 1489 592 1541.5 c 128,-1,9
 684 1594 684 1594 774 1638 c 1,10,-1
 819 1593 l 1,11,12
 692 1469 692 1469 601 1353 c 128,-1,13
 510 1237 510 1237 451.5 1125.5 c 128,-1,14
 393 1014 393 1014 365.5 906 c 128,-1,15
 338 798 338 798 338 690 c 256,16,17
 338 582 338 582 361.5 470 c 128,-1,18
 385 358 385 358 430 240 c 128,-1,19
 475 122 475 122 539.5 -2.5 c 128,-1,20
 604 -127 604 -127 686 -262 c 1,21,-1
 641 -307 l 1,22,23
 515 -151 515 -151 401.5 -6 c 128,-1,24
 288 139 288 139 201.5 268.5 c 128,-1,25
 115 398 115 398 61.5 511 c 128,-1,26
 8 624 8 624 2 717 c 0,0,1
EndSplineSet
EndChar

StartChar: three
Encoding: 51 51 49
Width: 1382
Flags: W
LayerCount: 2
Fore
SplineSet
66 543 m 0,0,1
 -3 699 -3 699 -3 831 c 0,2,3
 -3 922 -3 922 26.5 1005 c 128,-1,4
 56 1088 56 1088 105.5 1162 c 128,-1,5
 155 1236 155 1236 220 1302.5 c 128,-1,6
 285 1369 285 1369 356 1427 c 0,7,8
 423 1482 423 1482 490.5 1534.5 c 128,-1,9
 558 1587 558 1587 629 1638 c 1,10,-1
 674 1602 l 1,11,12
 626 1554 626 1554 586 1481.5 c 128,-1,13
 546 1409 546 1409 518 1327.5 c 128,-1,14
 490 1246 490 1246 474.5 1163 c 128,-1,15
 459 1080 459 1080 459 1010 c 0,16,17
 459 956 459 956 471 921 c 128,-1,18
 483 886 483 886 507 866.5 c 128,-1,19
 531 847 531 847 566 839.5 c 128,-1,20
 601 832 601 832 647 832 c 0,21,22
 696 832 696 832 757 840 c 128,-1,23
 818 848 818 848 891.5 861.5 c 128,-1,24
 965 875 965 875 1051.5 892 c 128,-1,25
 1138 909 1138 909 1237 926 c 1,26,-1
 1282 881 l 1,27,28
 1177 828 1177 828 1097 787 c 128,-1,29
 1017 746 1017 746 957 713.5 c 128,-1,30
 897 681 897 681 855.5 654.5 c 128,-1,31
 814 628 814 628 786.5 605 c 128,-1,32
 759 582 759 582 743 559.5 c 128,-1,33
 727 537 727 537 719 512 c 0,34,35
 691 444 691 444 691 372 c 0,36,37
 691 305 691 305 722.5 230.5 c 128,-1,38
 754 156 754 156 828 67.5 c 128,-1,39
 902 -21 902 -21 1025 -127.5 c 128,-1,40
 1148 -234 1148 -234 1331 -365 c 1,41,-1
 1286 -410 l 1,42,43
 1151 -352 1151 -352 1012.5 -269 c 128,-1,44
 874 -186 874 -186 743.5 -92.5 c 128,-1,45
 613 1 613 1 496.5 98 c 128,-1,46
 380 195 380 195 289.5 281.5 c 128,-1,47
 199 368 199 368 140 437 c 128,-1,48
 81 506 81 506 66 543 c 0,0,1
EndSplineSet
EndChar

StartChar: four
Encoding: 52 52 50
Width: 1864
Flags: W
LayerCount: 2
Fore
SplineSet
584 1438 m 1,0,1
 689 1501 689 1501 815 1540 c 128,-1,2
 941 1579 941 1579 1084.5 1600.5 c 128,-1,3
 1228 1622 1228 1622 1387 1630 c 128,-1,4
 1546 1638 1546 1638 1718 1638 c 1,5,-1
 1718 1629 l 2,6,7
 1718 1555 1718 1555 1618 1509 c 0,8,9
 1563 1484 1563 1484 1500 1458.5 c 128,-1,10
 1437 1433 1437 1433 1364 1405 c 0,11,12
 1290 1377 1290 1377 1226.5 1339 c 128,-1,13
 1163 1301 1163 1301 1110 1251 c 0,14,15
 1015 1162 1015 1162 1015 1009 c 0,16,17
 1015 1000 1015 1000 1015 991 c 128,-1,18
 1015 982 1015 982 1016 973 c 1,19,-1
 954 973 l 1,20,21
 911 1004 911 1004 858.5 1056.5 c 128,-1,22
 806 1109 806 1109 754.5 1167.5 c 128,-1,23
 703 1226 703 1226 658 1284 c 128,-1,24
 613 1342 613 1342 584 1384 c 1,25,-1
 584 1389 l 1,26,-1
 588 1403 l 2,27,28
 588 1405 588 1405 588.5 1407 c 128,-1,29
 589 1409 589 1409 589 1411 c 0,30,31
 589 1417 589 1417 588 1425 c 128,-1,32
 587 1433 587 1433 584 1438 c 1,0,1
307 1540 m 1,33,34
 392 1382 392 1382 498.5 1231 c 128,-1,35
 605 1080 605 1080 739 934 c 0,36,37
 868 792 868 792 1003 657 c 128,-1,38
 1138 522 1138 522 1263 399 c 128,-1,39
 1388 276 1388 276 1497 167.5 c 128,-1,40
 1606 59 1606 59 1683 -29 c 0,41,42
 1808 -174 1808 -174 1810 -266 c 0,43,44
 1810 -288 1810 -288 1802 -307 c 1,45,-1
 348 -307 l 1,46,47
 325 -290 325 -290 300.5 -267.5 c 128,-1,48
 276 -245 276 -245 249.5 -210.5 c 128,-1,49
 223 -176 223 -176 194.5 -126.5 c 128,-1,50
 166 -77 166 -77 135 -6 c 128,-1,51
 104 65 104 65 70.5 160.5 c 128,-1,52
 37 256 37 256 0 383 c 1,53,-1
 45 428 l 1,54,55
 115 335 115 335 188.5 271 c 128,-1,56
 262 207 262 207 336.5 167 c 128,-1,57
 411 127 411 127 484.5 109.5 c 128,-1,58
 558 92 558 92 627 92 c 0,59,60
 722 92 722 92 796.5 120.5 c 128,-1,61
 871 149 871 149 909 195 c 0,62,63
 919 208 919 208 919 225 c 0,64,65
 919 257 919 257 882.5 314.5 c 128,-1,66
 846 372 846 372 786 458 c 128,-1,67
 726 544 726 544 649.5 661 c 128,-1,68
 573 778 573 778 492 928 c 0,69,70
 366 1161 366 1161 256 1495 c 1,71,-1
 307 1540 l 1,33,34
EndSplineSet
EndChar

StartChar: five
Encoding: 53 53 51
Width: 1065
Flags: W
LayerCount: 2
Fore
SplineSet
696 -410 m 1,0,1
 671 -407 671 -407 635.5 -374.5 c 128,-1,2
 600 -342 600 -342 557.5 -285 c 128,-1,3
 515 -228 515 -228 467.5 -150.5 c 128,-1,4
 420 -73 420 -73 371.5 19.5 c 128,-1,5
 323 112 323 112 275.5 216 c 128,-1,6
 228 320 228 320 184.5 429.5 c 128,-1,7
 141 539 141 539 104 650.5 c 128,-1,8
 67 762 67 762 41 870 c 0,9,10
 -2 1041 -2 1041 -2 1183 c 0,11,12
 -2 1239 -2 1239 4 1288 c 128,-1,13
 10 1337 10 1337 26 1379 c 128,-1,14
 42 1421 42 1421 69.5 1455.5 c 128,-1,15
 97 1490 97 1490 139 1518 c 0,16,17
 186 1550 186 1550 244 1572.5 c 128,-1,18
 302 1595 302 1595 366 1609 c 128,-1,19
 430 1623 430 1623 499 1629.5 c 128,-1,20
 568 1636 568 1636 638 1636 c 0,21,22
 756 1636 756 1636 860 1624 c 1,23,-1
 905 1579 l 1,24,25
 879 1563 879 1563 834.5 1547 c 128,-1,26
 790 1531 790 1531 737 1506 c 128,-1,27
 684 1481 684 1481 630 1443 c 128,-1,28
 576 1405 576 1405 532 1345.5 c 128,-1,29
 488 1286 488 1286 460 1200 c 128,-1,30
 432 1114 432 1114 432 994 c 0,31,32
 432 963 432 963 434 929.5 c 128,-1,33
 436 896 436 896 440 860 c 1,34,35
 462 831 462 831 493.5 819 c 128,-1,36
 525 807 525 807 572 807 c 0,37,38
 637 807 637 807 726 830 c 128,-1,39
 815 853 815 853 938 895 c 1,40,-1
 983 850 l 1,41,42
 899 790 899 790 839 750.5 c 128,-1,43
 779 711 779 711 740.5 681 c 128,-1,44
 702 651 702 651 684 623.5 c 128,-1,45
 666 596 666 596 666 560 c 0,46,47
 666 535 666 535 676 524 c 128,-1,48
 686 513 686 513 709 513 c 256,49,50
 732 513 732 513 764 523.5 c 128,-1,51
 796 534 796 534 831.5 548.5 c 128,-1,52
 867 563 867 563 902.5 579.5 c 128,-1,53
 938 596 938 596 969 608 c 1,54,-1
 1014 563 l 1,55,56
 926 487 926 487 852.5 424 c 128,-1,57
 779 361 779 361 725.5 300.5 c 128,-1,58
 672 240 672 240 642 176.5 c 128,-1,59
 612 113 612 113 612 36 c 0,60,61
 612 -39 612 -39 643 -137.5 c 128,-1,62
 674 -236 674 -236 741 -365 c 1,63,-1
 696 -410 l 1,0,1
EndSplineSet
EndChar

StartChar: six
Encoding: 54 54 52
Width: 1894
Flags: W
LayerCount: 2
Fore
SplineSet
932 1024 m 0,0,1
 978 1018 978 1018 1024 1018 c 0,2,3
 1124 1018 1124 1018 1223 1045 c 128,-1,4
 1322 1072 1322 1072 1417 1110 c 2,5,-1
 1642 1200 l 2,6,7
 1696 1221 1696 1221 1745.5 1236.5 c 128,-1,8
 1795 1252 1795 1252 1843 1260 c 1,9,10
 1841 1137 1841 1137 1829 1042 c 128,-1,11
 1817 947 1817 947 1798 868 c 128,-1,12
 1779 789 1779 789 1754 720.5 c 128,-1,13
 1729 652 1729 652 1702 582 c 0,14,15
 1673 510 1673 510 1648 429.5 c 128,-1,16
 1623 349 1623 349 1603.5 249 c 128,-1,17
 1584 149 1584 149 1572.5 24 c 128,-1,18
 1561 -101 1561 -101 1561 -262 c 1,19,-1
 1516 -307 l 1,20,21
 1477 -228 1477 -228 1449.5 -142.5 c 128,-1,22
 1422 -57 1422 -57 1399.5 29 c 128,-1,23
 1377 115 1377 115 1356.5 198.5 c 128,-1,24
 1336 282 1336 282 1312 358 c 128,-1,25
 1288 434 1288 434 1257.5 499.5 c 128,-1,26
 1227 565 1227 565 1184 614 c 0,27,28
 1136 668 1136 668 1068.5 692.5 c 128,-1,29
 1001 717 1001 717 907 717 c 0,30,31
 823 717 823 717 763.5 713 c 128,-1,32
 704 709 704 709 662 697 c 128,-1,33
 620 685 620 685 591.5 663.5 c 128,-1,34
 563 642 563 642 541 608 c 0,35,36
 518 572 518 572 495.5 519 c 128,-1,37
 473 466 473 466 444.5 392.5 c 128,-1,38
 416 319 416 319 379.5 222 c 128,-1,39
 343 125 343 125 291 0 c 1,40,41
 270 17 270 17 257.5 27 c 128,-1,42
 245 37 245 37 237.5 45.5 c 128,-1,43
 230 54 230 54 227.5 63 c 128,-1,44
 225 72 225 72 225 87 c 0,45,46
 225 103 225 103 228.5 133.5 c 128,-1,47
 232 164 232 164 236 219.5 c 128,-1,48
 240 275 240 275 243.5 361 c 128,-1,49
 247 447 247 447 247 573 c 0,50,51
 247 612 247 612 247 654.5 c 128,-1,52
 247 697 247 697 246 745 c 0,53,54
 241 829 241 829 232 893 c 128,-1,55
 223 957 223 957 209 1010.5 c 128,-1,56
 195 1064 195 1064 175.5 1112.5 c 128,-1,57
 156 1161 156 1161 130.5 1216 c 128,-1,58
 105 1271 105 1271 72.5 1337 c 128,-1,59
 40 1403 40 1403 0 1491 c 1,60,-1
 45 1536 l 1,61,62
 167 1417 167 1417 271.5 1328.5 c 128,-1,63
 376 1240 376 1240 478.5 1178 c 128,-1,64
 581 1116 581 1116 690.5 1078.5 c 128,-1,65
 800 1041 800 1041 932 1024 c 0,0,1
EndSplineSet
EndChar

StartChar: seven
Encoding: 55 55 53
Width: 1495
Flags: W
LayerCount: 2
Fore
SplineSet
0 911 m 1,0,1
 43 965 43 965 77 1015 c 128,-1,2
 111 1065 111 1065 141 1111 c 128,-1,3
 171 1157 171 1157 200 1199.5 c 128,-1,4
 229 1242 229 1242 262.5 1282 c 128,-1,5
 296 1322 296 1322 336.5 1360 c 128,-1,6
 377 1398 377 1398 430 1434 c 1,7,8
 486 1335 486 1335 531.5 1267 c 128,-1,9
 577 1199 577 1199 616 1157 c 128,-1,10
 655 1115 655 1115 688.5 1096.5 c 128,-1,11
 722 1078 722 1078 754 1078 c 0,12,13
 785 1078 785 1078 818.5 1099.5 c 128,-1,14
 852 1121 852 1121 888 1158.5 c 128,-1,15
 924 1196 924 1196 964 1247 c 128,-1,16
 1004 1298 1004 1298 1049 1356 c 0,17,18
 1159 1501 1159 1501 1354 1638 c 1,19,-1
 1399 1593 l 1,20,21
 1352 1528 1352 1528 1249 1356 c 0,22,23
 1212 1295 1212 1295 1176.5 1217 c 128,-1,24
 1141 1139 1141 1139 1113 1049.5 c 128,-1,25
 1085 960 1085 960 1068 861.5 c 128,-1,26
 1051 763 1051 763 1051 663 c 0,27,28
 1051 546 1051 546 1071 430 c 128,-1,29
 1091 314 1091 314 1137 195 c 128,-1,30
 1183 76 1183 76 1258 -47.5 c 128,-1,31
 1333 -171 1333 -171 1444 -303 c 1,32,-1
 1399 -348 l 1,33,34
 1309 -284 1309 -284 1234 -206.5 c 128,-1,35
 1159 -129 1159 -129 1096 -46.5 c 128,-1,36
 1033 36 1033 36 981.5 120.5 c 128,-1,37
 930 205 930 205 887 284.5 c 128,-1,38
 844 364 844 364 808.5 435.5 c 128,-1,39
 773 507 773 507 743 563 c 0,40,41
 707 630 707 630 678 658.5 c 128,-1,42
 649 687 649 687 617 687 c 0,43,44
 580 687 580 687 552 672 c 128,-1,45
 524 657 524 657 505 636 c 128,-1,46
 486 615 486 615 476.5 592 c 128,-1,47
 467 569 467 569 467 553 c 0,48,49
 467 547 467 547 468 542 c 128,-1,50
 469 537 469 537 471 532 c 1,51,52
 436 553 436 553 422 575.5 c 128,-1,53
 408 598 408 598 408 627 c 0,54,55
 407 642 407 642 411 656.5 c 128,-1,56
 415 671 415 671 420 686 c 2,57,-1
 449 766 l 2,58,59
 456 786 456 786 456 805 c 0,60,61
 456 843 456 843 422.5 859.5 c 128,-1,62
 389 876 389 876 337 876 c 0,63,64
 328 875 328 875 319 875 c 128,-1,65
 310 875 310 875 299 874 c 2,66,-1
 164 862 l 2,67,68
 86 854 86 854 0 850 c 1,69,-1
 0 911 l 1,0,1
EndSplineSet
EndChar

StartChar: eight
Encoding: 56 56 54
Width: 2058
Flags: W
LayerCount: 2
Fore
SplineSet
1311 -246 m 1,0,1
 1260 -230 1260 -230 1217 -218 c 128,-1,2
 1174 -206 1174 -206 1137.5 -198.5 c 128,-1,3
 1101 -191 1101 -191 1068 -187.5 c 128,-1,4
 1035 -184 1035 -184 1004 -184 c 0,5,6
 971 -184 971 -184 937.5 -187.5 c 128,-1,7
 904 -191 904 -191 867.5 -198.5 c 128,-1,8
 831 -206 831 -206 789 -218 c 128,-1,9
 747 -230 747 -230 696 -246 c 1,10,11
 636 -245 636 -245 636 -210 c 0,12,13
 636 -189 636 -189 650.5 -159.5 c 128,-1,14
 665 -130 665 -130 682 -97.5 c 128,-1,15
 699 -65 699 -65 713.5 -32.5 c 128,-1,16
 728 0 728 0 728 27 c 0,17,18
 728 61 728 61 699.5 79 c 128,-1,19
 671 97 671 97 598 100 c 0,20,21
 560 99 560 99 532 86.5 c 128,-1,22
 504 74 504 74 481 52.5 c 128,-1,23
 458 31 458 31 437.5 2 c 128,-1,24
 417 -27 417 -27 392.5 -60 c 128,-1,25
 368 -93 368 -93 337 -129 c 128,-1,26
 306 -165 306 -165 264 -201 c 0,27,28
 187 -266 187 -266 45 -307 c 1,29,-1
 0 -262 l 1,30,31
 124 -169 124 -169 215 -72 c 128,-1,32
 306 25 306 25 366.5 132 c 128,-1,33
 427 239 427 239 458 360.5 c 128,-1,34
 489 482 489 482 492 625 c 1,35,36
 490 749 490 749 467.5 854 c 128,-1,37
 445 959 445 959 407.5 1048 c 128,-1,38
 370 1137 370 1137 321.5 1213 c 128,-1,39
 273 1289 273 1289 219 1355.5 c 128,-1,40
 165 1422 165 1422 108.5 1480 c 128,-1,41
 52 1538 52 1538 0 1593 c 1,42,-1
 51 1638 l 1,43,44
 218 1632 218 1632 303 1546 c 0,45,46
 387 1460 387 1460 438 1348 c 0,47,48
 490 1230 490 1230 555 1149 c 0,49,50
 622 1065 622 1065 758 1065 c 1,51,52
 829 1070 829 1070 829 1135 c 0,53,54
 829 1166 829 1166 819.5 1205.5 c 128,-1,55
 810 1245 810 1245 795.5 1289 c 128,-1,56
 781 1333 781 1333 764.5 1378.5 c 128,-1,57
 748 1424 748 1424 735 1466 c 0,58,59
 727 1491 727 1491 723.5 1513 c 128,-1,60
 720 1535 720 1535 720 1553 c 0,61,62
 720 1579 720 1579 727 1597 c 1,63,64
 803 1573 803 1573 870.5 1561.5 c 128,-1,65
 938 1550 938 1550 1004 1550 c 0,66,67
 1067 1550 1067 1550 1134.5 1561.5 c 128,-1,68
 1202 1573 1202 1573 1280 1597 c 1,69,70
 1286 1579 1286 1579 1286 1556 c 0,71,72
 1286 1532 1286 1532 1278.5 1500.5 c 128,-1,73
 1271 1469 1271 1469 1259.5 1433.5 c 128,-1,74
 1248 1398 1248 1398 1234 1361.5 c 128,-1,75
 1220 1325 1220 1325 1208 1290 c 0,76,77
 1191 1244 1191 1244 1183.5 1205 c 128,-1,78
 1176 1166 1176 1166 1176 1135 c 0,79,80
 1176 1069 1176 1069 1249 1065 c 1,81,82
 1382 1065 1382 1065 1450 1149 c 0,83,84
 1483 1191 1483 1191 1512 1240.5 c 128,-1,85
 1541 1290 1541 1290 1567 1348 c 0,86,87
 1618 1460 1618 1460 1702 1546 c 256,88,89
 1786 1632 1786 1632 1956 1638 c 1,90,-1
 2007 1593 l 1,91,92
 1957 1542 1957 1542 1901 1484.5 c 128,-1,93
 1845 1427 1845 1427 1790.5 1361 c 128,-1,94
 1736 1295 1736 1295 1686 1218 c 128,-1,95
 1636 1141 1636 1141 1598.5 1050.5 c 128,-1,96
 1561 960 1561 960 1538.5 854.5 c 128,-1,97
 1516 749 1516 749 1516 625 c 0,98,99
 1516 481 1516 481 1546.5 359 c 128,-1,100
 1577 237 1577 237 1638 129.5 c 128,-1,101
 1699 22 1699 22 1791.5 -74 c 128,-1,102
 1884 -170 1884 -170 2007 -262 c 1,103,-1
 1962 -307 l 1,104,105
 1864 -279 1864 -279 1798.5 -238.5 c 128,-1,106
 1733 -198 1733 -198 1688.5 -153 c 128,-1,107
 1644 -108 1644 -108 1613.5 -63.5 c 128,-1,108
 1583 -19 1583 -19 1554 17 c 128,-1,109
 1525 53 1525 53 1492 76 c 128,-1,110
 1459 99 1459 99 1409 100 c 0,111,112
 1335 97 1335 97 1306 80 c 128,-1,113
 1277 63 1277 63 1277 29 c 0,114,115
 1277 4 1277 4 1291.5 -29 c 128,-1,116
 1306 -62 1306 -62 1323 -96 c 128,-1,117
 1340 -130 1340 -130 1354.5 -160.5 c 128,-1,118
 1369 -191 1369 -191 1369 -210 c 0,119,120
 1369 -244 1369 -244 1311 -246 c 1,0,1
EndSplineSet
EndChar

StartChar: nine
Encoding: 57 57 55
Width: 1485
Flags: W
LayerCount: 2
Fore
SplineSet
717 1638 m 0,0,1
 744 1562 744 1562 787.5 1501 c 128,-1,2
 831 1440 831 1440 883.5 1390.5 c 128,-1,3
 936 1341 936 1341 996 1299.5 c 128,-1,4
 1056 1258 1056 1258 1116 1220.5 c 128,-1,5
 1176 1183 1176 1183 1234 1147.5 c 128,-1,6
 1292 1112 1292 1112 1341 1073 c 0,7,8
 1429 1004 1429 1004 1434 915 c 1,9,10
 1318 964 1318 964 1237 982 c 128,-1,11
 1156 1000 1156 1000 1098 1000 c 0,12,13
 1053 1000 1053 1000 1020.5 990 c 128,-1,14
 988 980 988 980 965.5 966.5 c 128,-1,15
 943 953 943 953 929.5 939 c 128,-1,16
 916 925 916 925 911 918 c 0,17,18
 852 856 852 856 827 770.5 c 128,-1,19
 802 685 802 685 802 570 c 0,20,21
 802 496 802 496 812.5 416 c 128,-1,22
 823 336 823 336 842 255.5 c 128,-1,23
 861 175 861 175 887.5 95.5 c 128,-1,24
 914 16 914 16 945 -56.5 c 128,-1,25
 976 -129 976 -129 1011.5 -193 c 128,-1,26
 1047 -257 1047 -257 1085 -307 c 1,27,-1
 1040 -352 l 1,28,29
 961 -352 961 -352 895.5 -342.5 c 128,-1,30
 830 -333 830 -333 774 -322 c 128,-1,31
 718 -311 718 -311 670 -301.5 c 128,-1,32
 622 -292 622 -292 578 -292 c 0,33,34
 528 -292 528 -292 485 -305 c 128,-1,35
 442 -318 442 -318 393 -352 c 1,36,-1
 348 -307 l 1,37,38
 384 -258 384 -258 419 -194.5 c 128,-1,39
 454 -131 454 -131 485 -58.5 c 128,-1,40
 516 14 516 14 543 93.5 c 128,-1,41
 570 173 570 173 589 254 c 128,-1,42
 608 335 608 335 619 415.5 c 128,-1,43
 630 496 630 496 630 571 c 0,44,45
 630 704 630 704 595 797.5 c 128,-1,46
 560 891 560 891 481 954 c 0,47,48
 462 973 462 973 423.5 986.5 c 128,-1,49
 385 1000 385 1000 333 1000 c 0,50,51
 274 1000 274 1000 194 982 c 128,-1,52
 114 964 114 964 0 915 c 1,53,54
 0 951 0 951 13 982.5 c 128,-1,55
 26 1014 26 1014 48 1042.5 c 128,-1,56
 70 1071 70 1071 100 1095.5 c 128,-1,57
 130 1120 130 1120 164 1141 c 2,58,-1
 303 1227 l 2,59,60
 337 1248 337 1248 363.5 1268 c 128,-1,61
 390 1288 390 1288 413 1311 c 128,-1,62
 436 1334 436 1334 458 1362 c 128,-1,63
 480 1390 480 1390 506 1427 c 2,64,-1
 596 1554 l 2,65,66
 628 1599 628 1599 653.5 1627 c 128,-1,67
 679 1655 679 1655 696 1655 c 0,68,69
 710 1655 710 1655 717 1638 c 0,0,1
EndSplineSet
EndChar

StartChar: period
Encoding: 46 46 56
Width: 1432
Flags: W
LayerCount: 2
Fore
SplineSet
739 1280 m 1,0,-1
 1382 205 l 1,1,-1
 1331 154 l 1,2,-1
 102 154 l 1,3,-1
 51 205 l 1,4,-1
 690 1280 l 1,5,-1
 739 1280 l 1,0,-1
EndSplineSet
Substitution2: "'liga' Standard Ligatures in Latin lookup 2 subtable" uniF8FE
EndChar

StartChar: question
Encoding: 63 63 57
Width: 1432
Flags: W
LayerCount: 2
Fore
SplineSet
739 1280 m 1,0,-1
 1382 205 l 1,1,-1
 1331 154 l 1,2,-1
 102 154 l 1,3,-1
 51 205 l 1,4,-1
 690 1280 l 1,5,-1
 739 1280 l 1,0,-1
EndSplineSet
Substitution2: "'liga' Standard Ligatures in Latin lookup 2 subtable" uniF8FE
EndChar

StartChar: exclam
Encoding: 33 33 58
Width: 1432
Flags: W
LayerCount: 2
Fore
SplineSet
739 1280 m 1,0,-1
 1382 205 l 1,1,-1
 1331 154 l 1,2,-1
 102 154 l 1,3,-1
 51 205 l 1,4,-1
 690 1280 l 1,5,-1
 739 1280 l 1,0,-1
EndSplineSet
Substitution2: "'liga' Standard Ligatures in Latin lookup 2 subtable" uniF8FE
EndChar

StartChar: comma
Encoding: 44 44 59
Width: 1432
Flags: W
LayerCount: 2
Fore
SplineSet
690 154 m 1,0,-1
 51 1229 l 1,1,-1
 102 1280 l 1,2,-1
 1331 1280 l 1,3,-1
 1382 1229 l 1,4,-1
 739 154 l 1,5,-1
 690 154 l 1,0,-1
EndSplineSet
Substitution2: "'liga' Standard Ligatures in Latin lookup 2 subtable" uniF8FD
EndChar

StartChar: colon
Encoding: 58 58 60
Width: 1432
Flags: W
LayerCount: 2
Fore
SplineSet
690 154 m 1,0,-1
 51 1229 l 1,1,-1
 102 1280 l 1,2,-1
 1331 1280 l 1,3,-1
 1382 1229 l 1,4,-1
 739 154 l 1,5,-1
 690 154 l 1,0,-1
EndSplineSet
Substitution2: "'liga' Standard Ligatures in Latin lookup 2 subtable" uniF8FD
EndChar

StartChar: semicolon
Encoding: 59 59 61
Width: 1432
Flags: W
LayerCount: 2
Fore
SplineSet
690 154 m 1,0,-1
 51 1229 l 1,1,-1
 102 1280 l 1,2,-1
 1331 1280 l 1,3,-1
 1382 1229 l 1,4,-1
 739 154 l 1,5,-1
 690 154 l 1,0,-1
EndSplineSet
Substitution2: "'liga' Standard Ligatures in Latin lookup 2 subtable" uniF8FD
EndChar

StartChar: asterisk
Encoding: 42 42 62
Width: 1683
Flags: W
LayerCount: 2
Fore
SplineSet
582 801 m 1,0,1
 532 786 532 786 489 766 c 0,2,3
 446 748 446 748 410 723 c 0,4,5
 373 698 373 698 340 668 c 0,6,7
 309 637 309 637 283 604 c 0,8,9
 252 567 252 567 231 528 c 0,10,11
 209 492 209 492 197 451 c 0,12,13
 182 410 182 410 176 367 c 0,14,15
 168 326 168 326 170 281 c 0,16,17
 170 262 170 262 170 248 c 0,18,19
 170 236 170 236 172 223 c 0,20,21
 172 211 172 211 176 199 c 0,22,23
 178 184 178 184 184 168 c 1,24,25
 203 182 203 182 221 197 c 0,26,27
 242 211 242 211 258 227 c 0,28,29
 276 242 276 242 293 258 c 0,30,31
 309 272 309 272 326 289 c 0,32,33
 340 303 340 303 352 319 c 0,34,35
 367 334 367 334 379 350 c 0,36,37
 391 365 391 365 403 381 c 0,38,39
 414 397 414 397 426 414 c 1,40,-1
 705 -49 l 1,41,42
 670 -51 670 -51 643 -51 c 0,43,44
 614 -53 614 -53 592 -55 c 0,45,46
 569 -57 569 -57 549 -61 c 0,47,48
 528 -63 528 -63 508 -68 c 0,49,50
 485 -74 485 -74 467 -78 c 0,51,52
 446 -82 446 -82 428 -88 c 0,53,54
 408 -94 408 -94 389 -102 c 0,55,56
 371 -109 371 -109 354 -117 c 1,57,58
 373 -135 373 -135 395 -152 c 0,59,60
 416 -166 416 -166 438 -180 c 0,61,62
 459 -195 459 -195 483 -205 c 0,63,64
 506 -215 506 -215 530 -223 c 0,65,66
 553 -233 553 -233 578 -240 c 0,67,68
 602 -246 602 -246 627 -252 c 0,69,70
 653 -256 653 -256 680 -258 c 256,71,72
 707 -260 707 -260 735 -260 c 0,73,74
 762 -260 762 -260 786 -258 c 0,75,76
 813 -256 813 -256 840 -252 c 0,77,78
 864 -246 864 -246 889 -240 c 0,79,80
 913 -233 913 -233 938 -223 c 0,81,82
 961 -215 961 -215 983 -205 c 0,83,84
 1006 -195 1006 -195 1028 -180 c 0,85,86
 1049 -168 1049 -168 1071 -152 c 0,87,88
 1092 -137 1092 -137 1112 -119 c 1,89,90
 1092 -115 1092 -115 1071 -109 c 0,91,92
 1051 -102 1051 -102 1028 -98 c 0,93,94
 1008 -92 1008 -92 987 -88 c 0,95,96
 967 -84 967 -84 946 -78 c 1,97,98
 924 -76 924 -76 901 -72 c 0,99,100
 881 -68 881 -68 858 -66 c 0,101,102
 836 -61 836 -61 813 -59 c 0,103,104
 791 -57 791 -57 768 -55 c 1,105,-1
 1047 414 l 1,106,107
 1057 393 1057 393 1069 375 c 0,108,109
 1081 356 1081 356 1096 338 c 0,110,111
 1108 319 1108 319 1122 303 c 0,112,113
 1137 287 1137 287 1153 272 c 0,114,115
 1167 256 1167 256 1184 240 c 0,116,117
 1198 225 1198 225 1217 213 c 0,118,119
 1233 199 1233 199 1249 184 c 1,120,121
 1268 172 1268 172 1286 160 c 1,122,123
 1288 176 1288 176 1292 190 c 0,124,125
 1294 203 1294 203 1296 217 c 0,126,127
 1298 229 1298 229 1300 246 c 0,128,129
 1300 260 1300 260 1303 283 c 1,130,131
 1300 328 1300 328 1292 371 c 256,132,133
 1284 414 1284 414 1272 455 c 0,134,135
 1257 494 1257 494 1237 532 c 0,136,137
 1217 571 1217 571 1190 608 c 0,138,139
 1161 643 1161 643 1128 672 c 0,140,141
 1096 702 1096 702 1059 725 c 0,142,143
 1022 750 1022 750 981 768 c 256,144,145
 940 786 940 786 895 801 c 1,146,147
 899 780 899 780 903 762 c 0,148,149
 909 741 909 741 915 723 c 0,150,151
 922 702 922 702 928 684 c 0,152,153
 936 666 936 666 944 649 c 1,154,155
 948 629 948 629 954 610 c 0,156,157
 961 590 961 590 969 571 c 0,158,159
 977 553 977 553 983 537 c 0,160,161
 991 518 991 518 1001 502 c 1,162,-1
 737 57 l 1,163,-1
 471 502 l 1,164,165
 477 520 477 520 485 541 c 0,166,167
 494 559 494 559 502 580 c 0,168,169
 508 598 508 598 516 618 c 0,170,171
 524 637 524 637 532 657 c 0,172,173
 539 674 539 674 545 692 c 0,174,175
 551 711 551 711 557 729 c 0,176,177
 563 745 563 745 569 764 c 0,178,179
 575 782 575 782 582 801 c 1,0,1
737 1716 m 1,180,181
 739 1657 739 1657 745 1602 c 0,182,183
 750 1544 750 1544 756 1489 c 0,184,185
 762 1432 762 1432 770 1378 c 0,186,187
 778 1323 778 1323 788 1270 c 0,188,189
 797 1214 797 1214 805 1161 c 0,190,191
 815 1108 815 1108 827 1057 c 0,192,193
 838 1004 838 1004 852 952 c 0,194,195
 864 899 864 899 879 850 c 1,196,197
 930 836 930 836 979 815 c 0,198,199
 1026 797 1026 797 1069 770 c 256,200,201
 1112 743 1112 743 1149 711 c 0,202,203
 1188 678 1188 678 1221 641 c 1,204,205
 1251 600 1251 600 1276 559 c 0,206,207
 1300 516 1300 516 1317 471 c 0,208,209
 1333 426 1333 426 1341 379 c 0,210,211
 1350 332 1350 332 1350 283 c 0,212,213
 1348 256 1348 256 1348 238 c 0,214,215
 1346 219 1346 219 1343 205 c 0,216,217
 1341 188 1341 188 1337 174 c 0,218,219
 1333 158 1333 158 1329 137 c 1,220,221
 1348 125 1348 125 1368 117 c 0,222,223
 1386 106 1386 106 1407 98 c 0,224,225
 1427 90 1427 90 1448 84 c 0,226,227
 1468 78 1468 78 1489 74 c 0,228,229
 1516 66 1516 66 1538 61 c 0,230,231
 1561 57 1561 57 1583 55 c 0,232,233
 1604 51 1604 51 1628 51 c 0,234,235
 1653 51 1653 51 1683 55 c 1,236,237
 1669 31 1669 31 1653 10 c 0,238,239
 1636 -8 1636 -8 1616 -27 c 0,240,241
 1595 -45 1595 -45 1573 -59 c 0,242,243
 1550 -76 1550 -76 1524 -88 c 0,244,245
 1495 -102 1495 -102 1468 -113 c 0,246,247
 1440 -123 1440 -123 1411 -129 c 0,248,249
 1380 -135 1380 -135 1350 -139 c 0,250,251
 1319 -141 1319 -141 1286 -141 c 0,252,253
 1266 -143 1266 -143 1249 -141 c 0,254,255
 1235 -141 1235 -141 1225 -139 c 0,256,257
 1212 -139 1212 -139 1198 -137 c 0,258,259
 1186 -133 1186 -133 1169 -129 c 1,260,261
 1145 -152 1145 -152 1120 -170 c 0,262,263
 1098 -188 1098 -188 1071 -205 c 0,264,265
 1047 -221 1047 -221 1020 -236 c 0,266,267
 995 -250 995 -250 969 -260 c 0,268,269
 940 -270 940 -270 911 -279 c 0,270,271
 885 -285 885 -285 856 -291 c 0,272,273
 825 -297 825 -297 797 -299 c 0,274,275
 766 -301 766 -301 737 -301 c 0,276,277
 705 -301 705 -301 676 -299 c 0,278,279
 645 -297 645 -297 616 -291 c 0,280,281
 586 -287 586 -287 557 -281 c 0,282,283
 530 -272 530 -272 504 -262 c 0,284,285
 475 -252 475 -252 449 -240 c 0,286,287
 422 -225 422 -225 397 -211 c 0,288,289
 373 -195 373 -195 350 -178 c 0,290,291
 326 -160 326 -160 305 -139 c 1,292,293
 281 -152 281 -152 260 -164 c 0,294,295
 240 -178 240 -178 219 -193 c 0,296,297
 201 -205 201 -205 182 -221 c 0,298,299
 166 -236 166 -236 152 -250 c 0,300,301
 135 -266 135 -266 121 -283 c 0,302,303
 104 -299 104 -299 92 -317 c 0,304,305
 80 -336 80 -336 70 -354 c 0,306,307
 59 -373 59 -373 51 -393 c 1,308,309
 45 -387 45 -387 39 -377 c 0,310,311
 35 -369 35 -369 29 -358 c 0,312,313
 25 -350 25 -350 20 -340 c 0,314,315
 14 -330 14 -330 12 -317 c 0,316,317
 8 -309 8 -309 6 -297 c 0,318,319
 4 -287 4 -287 2 -274 c 0,320,321
 2 -264 2 -264 0 -250 c 0,322,323
 0 -238 0 -238 0 -223 c 0,324,325
 0 -199 0 -199 2 -174 c 0,326,327
 4 -147 4 -147 8 -125 c 0,328,329
 12 -100 12 -100 20 -78 c 0,330,331
 27 -53 27 -53 37 -31 c 0,332,333
 45 -10 45 -10 55 10 c 0,334,335
 66 33 66 33 80 53 c 0,336,337
 92 74 92 74 109 94 c 0,338,339
 125 113 125 113 143 133 c 1,340,341
 137 154 137 154 133 168 c 0,342,343
 129 184 129 184 127 199 c 0,344,345
 125 213 125 213 125 227 c 0,346,347
 123 244 123 244 123 268 c 0,348,349
 123 319 123 319 129 371 c 0,350,351
 137 420 137 420 154 467 c 0,352,353
 168 512 168 512 190 555 c 0,354,355
 215 598 215 598 246 637 c 0,356,357
 276 674 276 674 313 707 c 0,358,359
 352 739 352 739 395 766 c 256,360,361
 438 793 438 793 487 813 c 0,362,363
 537 834 537 834 592 850 c 1,364,365
 606 901 606 901 618 954 c 0,366,367
 633 1006 633 1006 645 1059 c 0,368,369
 655 1112 655 1112 666 1165 c 0,370,371
 676 1221 676 1221 686 1276 c 0,372,373
 694 1329 694 1329 700 1382 c 0,374,375
 709 1438 709 1438 715 1493 c 0,376,377
 721 1546 721 1546 727 1604 c 0,378,379
 733 1659 733 1659 737 1716 c 1,180,181
EndSplineSet
Substitution2: "'liga' Standard Ligatures in Latin lookup 2 subtable" uniF8FF
EndChar

StartChar: t
Encoding: 116 116 63
Width: 1915
Flags: W
LayerCount: 2
Fore
SplineSet
676 358 m 0,0,1
 859 368 859 368 1026 565 c 0,2,3
 1110 664 1110 664 1188.5 777 c 128,-1,4
 1267 890 1267 890 1343 1020 c 0,5,6
 1419 1149 1419 1149 1492.5 1258.5 c 128,-1,7
 1566 1368 1566 1368 1638 1462 c 0,8,9
 1774 1638 1774 1638 1910 1638 c 2,10,-1
 1925 1638 l 1,11,12
 1892 1570 1892 1570 1861.5 1485.5 c 128,-1,13
 1831 1401 1831 1401 1808 1306 c 128,-1,14
 1785 1211 1785 1211 1771.5 1108.5 c 128,-1,15
 1758 1006 1758 1006 1758 903 c 0,16,17
 1758 770 1758 770 1782.5 651.5 c 128,-1,18
 1807 533 1807 533 1864 430 c 1,19,-1
 1864 369 l 1,20,21
 1802 372 1802 372 1744 372 c 0,22,23
 1597 372 1597 372 1461.5 350 c 128,-1,24
 1326 328 1326 328 1194 286.5 c 128,-1,25
 1062 245 1062 245 931 185.5 c 128,-1,26
 800 126 800 126 661.5 50.5 c 128,-1,27
 523 -25 523 -25 375 -115 c 128,-1,28
 227 -205 227 -205 61 -307 c 1,29,-1
 0 -307 l 1,30,31
 -4 -288 -4 -288 -4 -259 c 0,32,33
 -4 -196 -4 -196 16 -102.5 c 128,-1,34
 36 -9 36 -9 71.5 101.5 c 128,-1,35
 107 212 107 212 154.5 333.5 c 128,-1,36
 202 455 202 455 257 574 c 128,-1,37
 312 693 312 693 372 804 c 128,-1,38
 432 915 432 915 492 1004 c 1,39,-1
 553 1004 l 1,40,41
 547 968 547 968 536 918.5 c 128,-1,42
 525 869 525 869 514.5 813 c 128,-1,43
 504 757 504 757 496 698.5 c 128,-1,44
 488 640 488 640 488 586 c 0,45,46
 488 537 488 537 497.5 495.5 c 128,-1,47
 507 454 507 454 529 424 c 128,-1,48
 551 394 551 394 587 376.5 c 128,-1,49
 623 359 623 359 676 358 c 0,0,1
EndSplineSet
Substitution2: "'liga' Standard Ligatures in Latin lookup 2 subtable" uniF8E3
EndChar

StartChar: l
Encoding: 108 108 64
Width: 1509
Flags: W
LayerCount: 2
Fore
SplineSet
0 4 m 1,0,1
 17 38 17 38 35 70 c 128,-1,2
 53 102 53 102 77.5 142.5 c 128,-1,3
 102 183 102 183 136.5 238 c 128,-1,4
 171 293 171 293 221 372.5 c 128,-1,5
 271 452 271 452 340 563 c 128,-1,6
 409 674 409 674 502.5 826.5 c 128,-1,7
 596 979 596 979 717 1179 c 128,-1,8
 838 1379 838 1379 993 1638 c 1,9,10
 1062 1603 1062 1603 1107 1571 c 128,-1,11
 1152 1539 1152 1539 1184 1503.5 c 128,-1,12
 1216 1468 1216 1468 1242 1426 c 128,-1,13
 1268 1384 1268 1384 1300 1329 c 0,14,15
 1320 1295 1320 1295 1348 1255 c 128,-1,16
 1376 1215 1376 1215 1413 1167 c 1,17,-1
 1413 1106 l 1,18,19
 1330 1091 1330 1091 1270.5 1085 c 128,-1,20
 1211 1079 1211 1079 1168.5 1075.5 c 128,-1,21
 1126 1072 1126 1072 1097 1068 c 128,-1,22
 1068 1064 1068 1064 1046.5 1054.5 c 128,-1,23
 1025 1045 1025 1045 1007.5 1026.5 c 128,-1,24
 990 1008 990 1008 970 975 c 128,-1,25
 950 942 950 942 924 891.5 c 128,-1,26
 898 841 898 841 860 768 c 1,27,28
 811 687 811 687 777 624.5 c 128,-1,29
 743 562 743 562 721.5 514.5 c 128,-1,30
 700 467 700 467 690.5 433 c 128,-1,31
 681 399 681 399 681 375 c 0,32,33
 681 335 681 335 707 320 c 128,-1,34
 733 305 733 305 776.5 298.5 c 128,-1,35
 820 292 820 292 876.5 285.5 c 128,-1,36
 933 279 933 279 993 256 c 0,37,38
 1059 226 1059 226 1108.5 196 c 128,-1,39
 1158 166 1158 166 1197 130 c 128,-1,40
 1236 94 1236 94 1267 49 c 128,-1,41
 1298 4 1298 4 1327.5 -55.5 c 128,-1,42
 1357 -115 1357 -115 1388.5 -191 c 128,-1,43
 1420 -267 1420 -267 1458 -365 c 1,44,-1
 1413 -410 l 1,45,46
 1380 -368 1380 -368 1340.5 -323 c 128,-1,47
 1301 -278 1301 -278 1247 -235.5 c 128,-1,48
 1193 -193 1193 -193 1120 -155 c 128,-1,49
 1047 -117 1047 -117 947 -88.5 c 128,-1,50
 847 -60 847 -60 716 -43 c 128,-1,51
 585 -26 585 -26 415 -26 c 0,52,53
 248 -26 248 -26 41 -41 c 1,54,-1
 0 4 l 1,0,1
EndSplineSet
Substitution2: "'liga' Standard Ligatures in Latin lookup 2 subtable" uniF8D9
EndChar

StartChar: h
Encoding: 104 104 65
Width: 1096
Flags: W
LayerCount: 2
Fore
SplineSet
0 1075 m 1,0,1
 90 1153 90 1153 158.5 1229 c 128,-1,2
 227 1305 227 1305 290 1376.5 c 128,-1,3
 353 1448 353 1448 417.5 1514 c 128,-1,4
 482 1580 482 1580 563 1638 c 1,5,-1
 625 1638 l 1,6,7
 672 1585 672 1585 721.5 1526 c 128,-1,8
 771 1467 771 1467 818 1409 c 128,-1,9
 865 1351 865 1351 906.5 1298 c 128,-1,10
 948 1245 948 1245 978.5 1204.5 c 128,-1,11
 1009 1164 1009 1164 1027 1140 c 128,-1,12
 1045 1116 1045 1116 1044 1116 c 0,13,14
 934 962 934 962 844.5 844.5 c 128,-1,15
 755 727 755 727 691.5 630.5 c 128,-1,16
 628 534 628 534 593.5 452 c 128,-1,17
 559 370 559 370 559 286 c 0,18,19
 559 229 559 229 573.5 166.5 c 128,-1,20
 588 104 588 104 620 31 c 128,-1,21
 652 -42 652 -42 702 -126.5 c 128,-1,22
 752 -211 752 -211 823 -313 c 1,23,-1
 780 -358 l 1,24,25
 651 -282 651 -282 544 -175 c 128,-1,26
 437 -68 437 -68 351.5 57 c 128,-1,27
 266 182 266 182 202 318 c 128,-1,28
 138 454 138 454 94.5 587.5 c 128,-1,29
 51 721 51 721 27.5 846.5 c 128,-1,30
 4 972 4 972 0 1075 c 1,0,1
756 1149 m 1,31,-1
 756 1152 l 2,32,33
 756 1172 756 1172 677 1172 c 0,34,35
 634 1172 634 1172 576.5 1166.5 c 128,-1,36
 519 1161 519 1161 460 1151 c 128,-1,37
 401 1141 401 1141 347.5 1127.5 c 128,-1,38
 294 1114 294 1114 258 1098 c 1,39,40
 255 1079 255 1079 253 1058 c 0,41,42
 251 1040 251 1040 250 1015.5 c 128,-1,43
 249 991 249 991 249 964 c 0,44,45
 249 914 249 914 253.5 863.5 c 128,-1,46
 258 813 258 813 271.5 771.5 c 128,-1,47
 285 730 285 730 309.5 703.5 c 128,-1,48
 334 677 334 677 375 676 c 0,49,50
 432 676 432 676 474.5 695.5 c 128,-1,51
 517 715 517 715 550 748.5 c 128,-1,52
 583 782 583 782 609 828 c 128,-1,53
 635 874 635 874 658.5 926.5 c 128,-1,54
 682 979 682 979 705 1036 c 128,-1,55
 728 1093 728 1093 756 1149 c 1,31,-1
EndSplineSet
Substitution2: "'liga' Standard Ligatures in Latin lookup 2 subtable" uniF8D6
EndChar

StartChar: c
Encoding: 99 99 66
Width: 2304
Flags: W
LayerCount: 2
Fore
SplineSet
0 266 m 1,0,1
 123 399 123 399 227 558.5 c 128,-1,2
 331 718 331 718 416 894.5 c 128,-1,3
 501 1071 501 1071 566.5 1259 c 128,-1,4
 632 1447 632 1447 676 1638 c 1,5,6
 727 1621 727 1621 778 1570 c 128,-1,7
 829 1519 829 1519 879.5 1446.5 c 128,-1,8
 930 1374 930 1374 979.5 1286.5 c 128,-1,9
 1029 1199 1029 1199 1078 1108.5 c 128,-1,10
 1127 1018 1127 1018 1174.5 930.5 c 128,-1,11
 1222 843 1222 843 1268 772 c 0,12,13
 1359 631 1359 631 1448 625 c 1,14,15
 1503 627 1503 627 1556 657.5 c 128,-1,16
 1609 688 1609 688 1660.5 739 c 128,-1,17
 1712 790 1712 790 1761.5 858 c 128,-1,18
 1811 926 1811 926 1858.5 1004 c 128,-1,19
 1906 1082 1906 1082 1950.5 1166 c 128,-1,20
 1995 1250 1995 1250 2037 1333 c 128,-1,21
 2079 1416 2079 1416 2117.5 1494 c 128,-1,22
 2156 1572 2156 1572 2191 1638 c 1,23,-1
 2253 1638 l 1,24,25
 2125 1106 2125 1106 2122 721 c 0,26,27
 2120 526 2120 526 2119.5 367.5 c 128,-1,28
 2119 209 2119 209 2116 82 c 256,29,30
 2113 -45 2113 -45 2076.5 -136.5 c 128,-1,31
 2040 -228 2040 -228 1972 -289 c 0,32,33
 1900 -355 1900 -355 1762.5 -383 c 128,-1,34
 1625 -411 1625 -411 1413 -410 c 0,35,36
 1348 -410 1348 -410 1267 -401.5 c 128,-1,37
 1186 -393 1186 -393 1084 -362 c 128,-1,38
 982 -331 982 -331 856 -269.5 c 128,-1,39
 730 -208 730 -208 573 -102 c 1,40,-1
 618 -57 l 1,41,42
 893 -92 893 -92 1092 -112.5 c 128,-1,43
 1291 -133 1291 -133 1424 -133 c 0,44,45
 1518 -133 1518 -133 1584.5 -121 c 128,-1,46
 1651 -109 1651 -109 1692.5 -81 c 128,-1,47
 1734 -53 1734 -53 1753 -6.5 c 128,-1,48
 1772 40 1772 40 1772 109 c 0,49,50
 1772 205 1772 205 1741 344 c 1,51,52
 1732 356 1732 356 1643 356 c 0,53,54
 1585 356 1585 356 1509 352.5 c 128,-1,55
 1433 349 1433 349 1355 345.5 c 128,-1,56
 1277 342 1277 342 1204.5 338.5 c 128,-1,57
 1132 335 1132 335 1083 335 c 0,58,59
 1017 335 1017 335 1014 348 c 2,60,-1
 1014 380 l 2,61,62
 1014 477 1014 477 1004.5 544 c 128,-1,63
 995 611 995 611 976.5 652 c 128,-1,64
 958 693 958 693 930.5 711 c 128,-1,65
 903 729 903 729 867 729 c 0,66,67
 833 729 833 729 787 710 c 128,-1,68
 741 691 741 691 685.5 658 c 128,-1,69
 630 625 630 625 566 580 c 128,-1,70
 502 535 502 535 432 483 c 0,71,72
 336 413 336 413 228.5 344 c 128,-1,73
 121 275 121 275 0 205 c 1,74,-1
 0 266 l 1,0,1
EndSplineSet
Substitution2: "'liga' Standard Ligatures in Latin lookup 2 subtable" uniF8D2
EndChar

StartChar: g
Encoding: 103 103 67
Width: 2386
Flags: W
LayerCount: 2
Fore
SplineSet
1225 1243 m 1,0,1
 1155 1284 1155 1284 1105.5 1307.5 c 128,-1,2
 1056 1331 1056 1331 1020 1343.5 c 128,-1,3
 984 1356 984 1356 959 1362.5 c 128,-1,4
 934 1369 934 1369 914 1377 c 128,-1,5
 894 1385 894 1385 876.5 1399 c 128,-1,6
 859 1413 859 1413 837 1440.5 c 128,-1,7
 815 1468 815 1468 786.5 1512.5 c 128,-1,8
 758 1557 758 1557 717 1628 c 1,9,10
 723 1626 723 1626 850 1626 c 2,11,-1
 1593 1626 l 2,12,13
 1702 1626 1702 1626 1802 1627 c 128,-1,14
 1902 1628 1902 1628 1993 1628 c 0,15,16
 2052 1628 2052 1628 2096.5 1600 c 128,-1,17
 2141 1572 2141 1572 2179 1530.5 c 128,-1,18
 2217 1489 2217 1489 2254 1441 c 128,-1,19
 2291 1393 2291 1393 2335 1352 c 1,20,-1
 2335 1290 l 1,21,22
 2278 1307 2278 1307 2226 1313.5 c 128,-1,23
 2174 1320 2174 1320 2120 1320 c 0,24,25
 2068 1320 2068 1320 2010 1313.5 c 128,-1,26
 1952 1307 1952 1307 1882 1296 c 2,27,-1
 1673 1268 l 1,28,29
 1657 1213 1657 1213 1638.5 1137.5 c 128,-1,30
 1620 1062 1620 1062 1600.5 974.5 c 128,-1,31
 1581 887 1581 887 1561.5 792 c 128,-1,32
 1542 697 1542 697 1525.5 603 c 128,-1,33
 1509 509 1509 509 1496.5 420 c 128,-1,34
 1484 331 1484 331 1477 256 c 1,35,36
 1534 247 1534 247 1590.5 240.5 c 128,-1,37
 1647 234 1647 234 1706 223.5 c 128,-1,38
 1765 213 1765 213 1828 195 c 128,-1,39
 1891 177 1891 177 1962 145 c 128,-1,40
 2033 113 2033 113 2113.5 64 c 128,-1,41
 2194 15 2194 15 2288 -57 c 1,42,-1
 2243 -102 l 1,43,44
 2106 -58 2106 -58 1960 -36 c 128,-1,45
 1814 -14 1814 -14 1656 -14 c 0,46,47
 1490 -14 1490 -14 1322.5 -32.5 c 128,-1,48
 1155 -51 1155 -51 996 -82.5 c 128,-1,49
 837 -114 837 -114 691.5 -154.5 c 128,-1,50
 546 -195 546 -195 424 -239 c 128,-1,51
 302 -283 302 -283 209 -327 c 128,-1,52
 116 -371 116 -371 61 -410 c 1,53,-1
 0 -410 l 1,54,55
 37 -313 37 -313 132.5 -224.5 c 128,-1,56
 228 -136 228 -136 362.5 -58 c 128,-1,57
 497 20 497 20 661 88 c 128,-1,58
 825 156 825 156 999 213 c 1,59,60
 1012 266 1012 266 1033 348 c 128,-1,61
 1054 430 1054 430 1077.5 526.5 c 128,-1,62
 1101 623 1101 623 1126 726.5 c 128,-1,63
 1151 830 1151 830 1171.5 926.5 c 128,-1,64
 1192 1023 1192 1023 1206.5 1106 c 128,-1,65
 1221 1189 1221 1189 1225 1243 c 1,0,1
EndSplineSet
Substitution2: "'liga' Standard Ligatures in Latin lookup 2 subtable" uniF8D5
EndChar

StartChar: n
Encoding: 110 110 68
Width: 1782
Flags: W
LayerCount: 2
Fore
SplineSet
6 881 m 0,0,1
 0 899 0 899 0 920 c 0,2,3
 0 981 0 981 53 1055.5 c 128,-1,4
 106 1130 106 1130 202 1219 c 128,-1,5
 298 1308 298 1308 431 1412.5 c 128,-1,6
 564 1517 564 1517 723 1638 c 1,7,8
 805 1619 805 1619 884 1582 c 128,-1,9
 963 1545 963 1545 1033.5 1492.5 c 128,-1,10
 1104 1440 1104 1440 1163 1373.5 c 128,-1,11
 1222 1307 1222 1307 1266 1229 c 1,12,13
 1203 1169 1203 1169 1148 1141.5 c 128,-1,14
 1093 1114 1093 1114 1044 1114 c 0,15,16
 950 1114 950 1114 862 1147 c 0,17,18
 840 1155 840 1155 818 1159 c 128,-1,19
 796 1163 796 1163 773 1163 c 0,20,21
 735 1163 735 1163 699.5 1154 c 128,-1,22
 664 1145 664 1145 626 1120.5 c 128,-1,23
 588 1096 588 1096 546.5 1053 c 128,-1,24
 505 1010 505 1010 457 942 c 0,25,26
 455 938 455 938 455 935 c 0,27,28
 455 921 455 921 501 915 c 128,-1,29
 547 909 547 909 625 909 c 0,30,31
 689 909 689 909 765.5 912 c 128,-1,32
 842 915 842 915 922.5 919.5 c 128,-1,33
 1003 924 1003 924 1083 930 c 128,-1,34
 1163 936 1163 936 1235 942 c 1,35,36
 1308 913 1308 913 1364.5 850 c 128,-1,37
 1421 787 1421 787 1460 676 c 1,38,39
 1438 656 1438 656 1412.5 644.5 c 128,-1,40
 1387 633 1387 633 1357.5 627.5 c 128,-1,41
 1328 622 1328 622 1293.5 620.5 c 128,-1,42
 1259 619 1259 619 1219 619 c 0,43,44
 1191 619 1191 619 1162 620 c 128,-1,45
 1133 621 1133 621 1104 621 c 0,46,47
 1062 621 1062 621 1024.5 613.5 c 128,-1,48
 987 606 987 606 958.5 586.5 c 128,-1,49
 930 567 930 567 913.5 534 c 128,-1,50
 897 501 897 501 897 449 c 0,51,52
 897 429 897 429 926 374 c 128,-1,53
 955 319 955 319 1008.5 245 c 128,-1,54
 1062 171 1062 171 1137 85.5 c 128,-1,55
 1212 0 1212 0 1305 -82 c 128,-1,56
 1398 -164 1398 -164 1505.5 -234 c 128,-1,57
 1613 -304 1613 -304 1731 -348 c 1,58,-1
 1731 -410 l 1,59,60
 1707 -411 1707 -411 1675.5 -411.5 c 128,-1,61
 1644 -412 1644 -412 1606 -412 c 0,62,63
 1548 -412 1548 -412 1482.5 -410.5 c 128,-1,64
 1417 -409 1417 -409 1352 -404.5 c 128,-1,65
 1287 -400 1287 -400 1227 -391.5 c 128,-1,66
 1167 -383 1167 -383 1120 -369 c 1,67,68
 996 -199 996 -199 865.5 -59.5 c 128,-1,69
 735 80 735 80 610.5 198.5 c 128,-1,70
 486 317 486 317 373 420.5 c 128,-1,71
 260 524 260 524 170 623 c 0,72,73
 52 751 52 751 6 881 c 0,0,1
EndSplineSet
Substitution2: "'liga' Standard Ligatures in Latin lookup 2 subtable" uniF8DB
EndChar

StartChar: D
Encoding: 68 68 69
Width: 1743
Flags: W
LayerCount: 2
Fore
SplineSet
952 494 m 0,0,1
 901 533 901 533 844 586.5 c 128,-1,2
 787 640 787 640 731.5 704 c 128,-1,3
 676 768 676 768 624.5 840.5 c 128,-1,4
 573 913 573 913 532 989 c 0,5,6
 484 1077 484 1077 455.5 1174 c 128,-1,7
 427 1271 427 1271 427 1365 c 0,8,9
 427 1504 427 1504 502 1638 c 1,10,-1
 537 1683 l 1,11,12
 557 1552 557 1552 604.5 1428 c 128,-1,13
 652 1304 652 1304 718.5 1189 c 128,-1,14
 785 1074 785 1074 865.5 968.5 c 128,-1,15
 946 863 946 863 1032 768 c 128,-1,16
 1118 673 1118 673 1205 589 c 128,-1,17
 1292 505 1292 505 1370.5 434 c 128,-1,18
 1449 363 1449 363 1516 305 c 128,-1,19
 1583 247 1583 247 1628 203 c 1,20,21
 1692 130 1692 130 1692 63 c 0,22,23
 1692 4 1692 4 1646 -50.5 c 128,-1,24
 1600 -105 1600 -105 1524.5 -152.5 c 128,-1,25
 1449 -200 1449 -200 1352.5 -239.5 c 128,-1,26
 1256 -279 1256 -279 1155 -306.5 c 128,-1,27
 1054 -334 1054 -334 957 -349.5 c 128,-1,28
 860 -365 860 -365 783 -365 c 0,29,30
 757 -365 757 -365 733 -363.5 c 128,-1,31
 709 -362 709 -362 686 -358 c 1,32,-1
 686 -195 l 1,33,34
 817 -179 817 -179 911.5 -148.5 c 128,-1,35
 1006 -118 1006 -118 1066.5 -76 c 128,-1,36
 1127 -34 1127 -34 1155.5 17.5 c 128,-1,37
 1184 69 1184 69 1184 126 c 0,38,39
 1184 171 1184 171 1167.5 218 c 128,-1,40
 1151 265 1151 265 1121 312 c 128,-1,41
 1091 359 1091 359 1048 405 c 128,-1,42
 1005 451 1005 451 952 494 c 0,0,1
502 -410 m 1,43,44
 359 -395 359 -395 263 -371.5 c 128,-1,45
 167 -348 167 -348 108.5 -316 c 128,-1,46
 50 -284 50 -284 25 -242.5 c 128,-1,47
 0 -201 0 -201 0 -150 c 0,48,49
 0 -60 0 -60 84 51 c 0,50,51
 147 135 147 135 215 218.5 c 128,-1,52
 283 302 283 302 360 387 c 0,53,54
 514 558 514 558 532 696 c 1,55,-1
 578 641 l 1,56,-1
 578 623 l 2,57,58
 578 459 578 459 500 324 c 0,59,60
 458 252 458 252 419 190 c 128,-1,61
 380 128 380 128 342 76 c 0,62,63
 278 -10 278 -10 278 -63 c 0,64,65
 278 -98 278 -98 321 -115.5 c 128,-1,66
 364 -133 364 -133 472 -133 c 2,67,-1
 502 -133 l 1,68,-1
 502 -410 l 1,43,44
EndSplineSet
Substitution2: "'liga' Standard Ligatures in Latin lookup 2 subtable" uniF8D3
EndChar

StartChar: e
Encoding: 101 101 70
Width: 1444
Flags: W
LayerCount: 2
Fore
SplineSet
244 -389 m 1,0,-1
 182 -389 l 1,1,2
 163 -249 163 -249 145.5 -135 c 128,-1,3
 128 -21 128 -21 111.5 74 c 128,-1,4
 95 169 95 169 80 248.5 c 128,-1,5
 65 328 65 328 52.5 399.5 c 128,-1,6
 40 471 40 471 30 538 c 128,-1,7
 20 605 20 605 13 675.5 c 128,-1,8
 6 746 6 746 2 823.5 c 128,-1,9
 -2 901 -2 901 -2 993 c 0,10,11
 3 1224 3 1224 49 1618 c 1,12,13
 196 1618 196 1618 318 1620 c 128,-1,14
 440 1622 440 1622 541.5 1624.5 c 128,-1,15
 643 1627 643 1627 726 1630.5 c 128,-1,16
 809 1634 809 1634 877.5 1636.5 c 128,-1,17
 946 1639 946 1639 1003 1641 c 128,-1,18
 1060 1643 1060 1643 1110 1643 c 0,19,20
 1178 1643 1178 1643 1238.5 1637 c 128,-1,21
 1299 1631 1299 1631 1360 1618 c 1,22,23
 1365 1579 1365 1579 1367.5 1549 c 128,-1,24
 1370 1519 1370 1519 1370 1499 c 0,25,26
 1370 1469 1370 1469 1365 1448 c 128,-1,27
 1360 1427 1360 1427 1353.5 1404.5 c 128,-1,28
 1347 1382 1347 1382 1340 1351 c 128,-1,29
 1333 1320 1333 1320 1329 1270 c 1,30,-1
 1114 1270 l 2,31,32
 959 1270 959 1270 804 1262 c 128,-1,33
 649 1254 649 1254 502 1229 c 1,34,35
 472 1089 472 1089 444 969 c 128,-1,36
 416 849 416 849 394 743.5 c 128,-1,37
 372 638 372 638 358.5 544.5 c 128,-1,38
 345 451 345 451 345 366 c 0,39,40
 345 252 345 252 372.5 148.5 c 128,-1,41
 400 45 400 45 469 -61 c 1,42,-1
 244 -389 l 1,0,-1
EndSplineSet
Substitution2: "'liga' Standard Ligatures in Latin lookup 2 subtable" uniF8D4
EndChar

StartChar: H
Encoding: 72 72 71
Width: 1096
Flags: W
LayerCount: 2
Fore
SplineSet
0 1075 m 1,0,1
 90 1153 90 1153 158.5 1229 c 128,-1,2
 227 1305 227 1305 290 1376.5 c 128,-1,3
 353 1448 353 1448 417.5 1514 c 128,-1,4
 482 1580 482 1580 563 1638 c 1,5,-1
 625 1638 l 1,6,7
 672 1585 672 1585 721.5 1526 c 128,-1,8
 771 1467 771 1467 818 1409 c 128,-1,9
 865 1351 865 1351 906.5 1298 c 128,-1,10
 948 1245 948 1245 978.5 1204.5 c 128,-1,11
 1009 1164 1009 1164 1027 1140 c 128,-1,12
 1045 1116 1045 1116 1044 1116 c 0,13,14
 934 962 934 962 844.5 844.5 c 128,-1,15
 755 727 755 727 691.5 630.5 c 128,-1,16
 628 534 628 534 593.5 452 c 128,-1,17
 559 370 559 370 559 286 c 0,18,19
 559 229 559 229 573.5 166.5 c 128,-1,20
 588 104 588 104 620 31 c 128,-1,21
 652 -42 652 -42 702 -126.5 c 128,-1,22
 752 -211 752 -211 823 -313 c 1,23,-1
 780 -358 l 1,24,25
 651 -282 651 -282 544 -175 c 128,-1,26
 437 -68 437 -68 351.5 57 c 128,-1,27
 266 182 266 182 202 318 c 128,-1,28
 138 454 138 454 94.5 587.5 c 128,-1,29
 51 721 51 721 27.5 846.5 c 128,-1,30
 4 972 4 972 0 1075 c 1,0,1
756 1149 m 1,31,-1
 756 1152 l 2,32,33
 756 1172 756 1172 677 1172 c 0,34,35
 634 1172 634 1172 576.5 1166.5 c 128,-1,36
 519 1161 519 1161 460 1151 c 128,-1,37
 401 1141 401 1141 347.5 1127.5 c 128,-1,38
 294 1114 294 1114 258 1098 c 1,39,40
 255 1079 255 1079 253 1058 c 0,41,42
 251 1040 251 1040 250 1015.5 c 128,-1,43
 249 991 249 991 249 964 c 0,44,45
 249 914 249 914 253.5 863.5 c 128,-1,46
 258 813 258 813 271.5 771.5 c 128,-1,47
 285 730 285 730 309.5 703.5 c 128,-1,48
 334 677 334 677 375 676 c 0,49,50
 432 676 432 676 474.5 695.5 c 128,-1,51
 517 715 517 715 550 748.5 c 128,-1,52
 583 782 583 782 609 828 c 128,-1,53
 635 874 635 874 658.5 926.5 c 128,-1,54
 682 979 682 979 705 1036 c 128,-1,55
 728 1093 728 1093 756 1149 c 1,31,-1
EndSplineSet
Substitution2: "'liga' Standard Ligatures in Latin lookup 2 subtable" uniF8D6
EndChar

StartChar: I
Encoding: 73 73 72
Width: 1694
Flags: W
LayerCount: 2
Fore
SplineSet
0 1006 m 1,0,1
 1 1084 1 1084 30 1167 c 128,-1,2
 59 1250 59 1250 104 1332.5 c 128,-1,3
 149 1415 149 1415 204 1492.5 c 128,-1,4
 259 1570 259 1570 313 1638 c 1,5,-1
 807 1604 l 1,6,7
 771 1580 771 1580 728.5 1544.5 c 128,-1,8
 686 1509 686 1509 643.5 1467.5 c 128,-1,9
 601 1426 601 1426 561.5 1381.5 c 128,-1,10
 522 1337 522 1337 491.5 1294 c 128,-1,11
 461 1251 461 1251 442.5 1213 c 128,-1,12
 424 1175 424 1175 424 1146 c 0,13,14
 424 1122 424 1122 444.5 1090 c 128,-1,15
 465 1058 465 1058 499.5 1024 c 128,-1,16
 534 990 534 990 581 957 c 128,-1,17
 628 924 628 924 680.5 898 c 128,-1,18
 733 872 733 872 789 856 c 128,-1,19
 845 840 845 840 898 840 c 0,20,21
 974 840 974 840 1031.5 872.5 c 128,-1,22
 1089 905 1089 905 1128 957.5 c 128,-1,23
 1167 1010 1167 1010 1186.5 1076.5 c 128,-1,24
 1206 1143 1206 1143 1206 1211 c 0,25,26
 1206 1294 1206 1294 1184 1392.5 c 128,-1,27
 1162 1491 1162 1491 1116 1604 c 1,28,-1
 1239 1604 l 2,29,30
 1342 1604 1342 1604 1435 1598 c 128,-1,31
 1528 1592 1528 1592 1614 1577 c 1,32,33
 1614 1537 1614 1537 1616 1499 c 128,-1,34
 1618 1461 1618 1461 1622 1425 c 2,35,-1
 1636 1286 l 2,36,37
 1638 1266 1638 1266 1639 1246 c 128,-1,38
 1640 1226 1640 1226 1640 1206 c 0,39,40
 1640 1161 1640 1161 1634 1119 c 128,-1,41
 1628 1077 1628 1077 1614 1036 c 1,42,-1
 1231 694 l 2,43,44
 1203 669 1203 669 1180.5 648.5 c 128,-1,45
 1158 628 1158 628 1136 608.5 c 128,-1,46
 1114 589 1114 589 1091 568 c 128,-1,47
 1068 547 1068 547 1040 522 c 0,48,49
 1014 498 1014 498 997 456.5 c 128,-1,50
 980 415 980 415 980 361 c 0,51,52
 980 299 980 299 1004.5 223 c 128,-1,53
 1029 147 1029 147 1088 61 c 128,-1,54
 1147 -25 1147 -25 1246 -119.5 c 128,-1,55
 1345 -214 1345 -214 1495 -313 c 1,56,-1
 1491 -358 l 1,57,58
 1405 -341 1405 -341 1336 -326 c 128,-1,59
 1267 -311 1267 -311 1210 -294 c 128,-1,60
 1153 -277 1153 -277 1105 -254.5 c 128,-1,61
 1057 -232 1057 -232 1011.5 -201 c 128,-1,62
 966 -170 966 -170 921 -128 c 128,-1,63
 876 -86 876 -86 824.5 -29 c 128,-1,64
 773 28 773 28 713 103 c 128,-1,65
 653 178 653 178 578 274 c 0,66,67
 476 405 476 405 333 587 c 128,-1,68
 190 769 190 769 0 1006 c 1,0,1
EndSplineSet
Substitution2: "'liga' Standard Ligatures in Latin lookup 2 subtable" uniF8D7
EndChar

StartChar: j
Encoding: 106 106 73
Width: 2007
Flags: W
LayerCount: 2
Fore
SplineSet
225 1323 m 1,0,1
 247 1339 247 1339 269.5 1356 c 128,-1,2
 292 1373 292 1373 315 1393 c 2,3,-1
 502 1554 l 2,4,5
 525 1576 525 1576 548 1597 c 128,-1,6
 571 1618 571 1618 594 1638 c 1,7,8
 699 1597 699 1597 811 1568.5 c 128,-1,9
 923 1540 923 1540 1040.5 1523 c 128,-1,10
 1158 1506 1158 1506 1280.5 1498.5 c 128,-1,11
 1403 1491 1403 1491 1528 1491 c 0,12,13
 1625 1491 1625 1491 1719.5 1492.5 c 128,-1,14
 1814 1494 1814 1494 1911 1499 c 1,15,-1
 1956 1454 l 1,16,17
 1945 1333 1945 1333 1917.5 1194 c 128,-1,18
 1890 1055 1890 1055 1847.5 910.5 c 128,-1,19
 1805 766 1805 766 1748 623.5 c 128,-1,20
 1691 481 1691 481 1620.5 354 c 128,-1,21
 1550 227 1550 227 1467 122 c 128,-1,22
 1384 17 1384 17 1290 -51 c 1,23,-1
 1229 -51 l 1,24,25
 1284 69 1284 69 1327 188 c 128,-1,26
 1370 307 1370 307 1399 418 c 128,-1,27
 1428 529 1428 529 1443 630 c 128,-1,28
 1458 731 1458 731 1458 815 c 0,29,30
 1458 956 1458 956 1414 1034.5 c 128,-1,31
 1370 1113 1370 1113 1280 1118 c 1,32,33
 1202 1114 1202 1114 1141 1072.5 c 128,-1,34
 1080 1031 1080 1031 1032 950 c 0,35,36
 984 870 984 870 935 774 c 128,-1,37
 886 678 886 678 836 563 c 0,38,39
 784 448 784 448 714 339.5 c 128,-1,40
 644 231 644 231 555 123 c 0,41,42
 466 16 466 16 344 -66.5 c 128,-1,43
 222 -149 222 -149 61 -205 c 1,44,-1
 0 -205 l 1,45,46
 156 -39 156 -39 273 117.5 c 128,-1,47
 390 274 390 274 468 416.5 c 128,-1,48
 546 559 546 559 585 684.5 c 128,-1,49
 624 810 624 810 624 914 c 0,50,51
 624 1093 624 1093 523.5 1197.5 c 128,-1,52
 423 1302 423 1302 225 1323 c 1,0,1
EndSplineSet
Substitution2: "'liga' Standard Ligatures in Latin lookup 2 subtable" uniF8D8
EndChar

StartChar: m
Encoding: 109 109 74
Width: 1454
Flags: W
LayerCount: 2
Fore
SplineSet
983 -410 m 1,0,1
 829 -332 829 -332 696 -228.5 c 128,-1,2
 563 -125 563 -125 454 -4.5 c 128,-1,3
 345 116 345 116 260.5 249 c 128,-1,4
 176 382 176 382 118 520 c 128,-1,5
 60 658 60 658 30 796 c 128,-1,6
 0 934 0 934 0 1065 c 1,7,8
 127 1122 127 1122 221.5 1175 c 128,-1,9
 316 1228 316 1228 384.5 1277.5 c 128,-1,10
 453 1327 453 1327 498 1372 c 128,-1,11
 543 1417 543 1417 573 1456 c 0,12,13
 604 1496 604 1496 628 1527.5 c 128,-1,14
 652 1559 652 1559 676 1582.5 c 128,-1,15
 700 1606 700 1606 729 1620 c 128,-1,16
 758 1634 758 1634 799 1638 c 1,17,18
 876 1620 876 1620 945.5 1576 c 128,-1,19
 1015 1532 1015 1532 1086 1459 c 128,-1,20
 1157 1386 1157 1386 1234 1283 c 128,-1,21
 1311 1180 1311 1180 1403 1044 c 1,22,23
 1401 948 1401 948 1385 848.5 c 128,-1,24
 1369 749 1369 749 1329 642 c 128,-1,25
 1289 535 1289 535 1220 417 c 128,-1,26
 1151 299 1151 299 1044 164 c 1,27,-1
 983 164 l 1,28,29
 1004 227 1004 227 1022 300.5 c 128,-1,30
 1040 374 1040 374 1053 451 c 128,-1,31
 1066 528 1066 528 1073.5 606 c 128,-1,32
 1081 684 1081 684 1081 756 c 256,33,34
 1081 828 1081 828 1067.5 888.5 c 128,-1,35
 1054 949 1054 949 1026 992.5 c 128,-1,36
 998 1036 998 1036 954 1060.5 c 128,-1,37
 910 1085 910 1085 850 1085 c 0,38,39
 782 1081 782 1081 727 1052.5 c 128,-1,40
 672 1024 672 1024 633.5 972 c 128,-1,41
 595 920 595 920 574 845 c 128,-1,42
 553 770 553 770 553 674 c 0,43,44
 554 579 554 579 581 464.5 c 128,-1,45
 608 350 608 350 665.5 219 c 128,-1,46
 723 88 723 88 812.5 -59 c 128,-1,47
 902 -206 902 -206 1028 -365 c 1,48,-1
 983 -410 l 1,0,1
EndSplineSet
Substitution2: "'liga' Standard Ligatures in Latin lookup 2 subtable" uniF8DA
EndChar

StartChar: o
Encoding: 111 111 75
Width: 1976
Flags: W
LayerCount: 2
Fore
SplineSet
45 1638 m 1,0,1
 164 1614 164 1614 276.5 1598.5 c 128,-1,2
 389 1583 389 1583 498.5 1573.5 c 128,-1,3
 608 1564 608 1564 715.5 1560 c 128,-1,4
 823 1556 823 1556 932 1556 c 0,5,6
 1019 1556 1019 1556 1107.5 1557.5 c 128,-1,7
 1196 1559 1196 1559 1288 1563 c 2,8,-1
 1761 1587 l 1,9,10
 1761 1574 1761 1574 1761.5 1563 c 128,-1,11
 1762 1552 1762 1552 1762 1542 c 0,12,13
 1762 1531 1762 1531 1761.5 1522 c 128,-1,14
 1761 1513 1761 1513 1761 1505 c 0,15,16
 1761 1479 1761 1479 1765 1451.5 c 128,-1,17
 1769 1424 1769 1424 1785 1382.5 c 128,-1,18
 1801 1341 1801 1341 1834 1280 c 128,-1,19
 1867 1219 1867 1219 1925 1126 c 1,20,-1
 1880 1081 l 1,21,22
 1816 1110 1816 1110 1769 1131.5 c 128,-1,23
 1722 1153 1722 1153 1700 1153 c 0,24,25
 1668 1153 1668 1153 1668 1119 c 0,26,27
 1668 1098 1668 1098 1677.5 1062.5 c 128,-1,28
 1687 1027 1687 1027 1707.5 974.5 c 128,-1,29
 1728 922 1728 922 1759 850.5 c 128,-1,30
 1790 779 1790 779 1833 686 c 1,31,32
 1790 641 1790 641 1736 604 c 128,-1,33
 1682 567 1682 567 1616 537 c 0,34,35
 1566 514 1566 514 1519 486 c 128,-1,36
 1472 458 1472 458 1435.5 424 c 128,-1,37
 1399 390 1399 390 1377 348.5 c 128,-1,38
 1355 307 1355 307 1355 257 c 0,39,40
 1355 205 1355 205 1374.5 144 c 128,-1,41
 1394 83 1394 83 1438.5 8 c 128,-1,42
 1483 -67 1483 -67 1555.5 -159 c 128,-1,43
 1628 -251 1628 -251 1735 -365 c 1,44,-1
 1690 -410 l 1,45,46
 1463 -334 1463 -334 1314.5 -250.5 c 128,-1,47
 1166 -167 1166 -167 1079 -77 c 128,-1,48
 992 13 992 13 957 109 c 128,-1,49
 922 205 922 205 922 307 c 0,50,51
 923 379 923 379 936.5 433.5 c 128,-1,52
 950 488 950 488 972.5 529 c 128,-1,53
 995 570 995 570 1024 600 c 128,-1,54
 1053 630 1053 630 1085 653 c 0,55,56
 1116 675 1116 675 1145 699.5 c 128,-1,57
 1174 724 1174 724 1196.5 755 c 128,-1,58
 1219 786 1219 786 1233 826.5 c 128,-1,59
 1247 867 1247 867 1249 922 c 0,60,61
 1248 991 1248 991 1224 1037 c 128,-1,62
 1200 1083 1200 1083 1155 1114.5 c 128,-1,63
 1110 1146 1110 1146 1044.5 1167.5 c 128,-1,64
 979 1189 979 1189 895 1208 c 0,65,66
 810 1227 810 1227 710 1255.5 c 128,-1,67
 610 1284 610 1284 497.5 1328 c 128,-1,68
 385 1372 385 1372 260 1436.5 c 128,-1,69
 135 1501 135 1501 0 1593 c 1,70,-1
 45 1638 l 1,0,1
EndSplineSet
Substitution2: "'liga' Standard Ligatures in Latin lookup 2 subtable" uniF8DD
EndChar

StartChar: p
Encoding: 112 112 76
Width: 1444
Flags: W
LayerCount: 2
Fore
SplineSet
51 717 m 1,0,1
 136 775 136 775 204 843.5 c 128,-1,2
 272 912 272 912 326 987 c 128,-1,3
 380 1062 380 1062 421.5 1140 c 128,-1,4
 463 1218 463 1218 496 1296 c 128,-1,5
 529 1374 529 1374 554 1449.5 c 128,-1,6
 579 1525 579 1525 600 1593 c 1,7,-1
 645 1638 l 1,8,9
 666 1636 666 1636 678 1616.5 c 128,-1,10
 690 1597 690 1597 690 1559 c 0,11,12
 690 1513 690 1513 686 1455.5 c 128,-1,13
 682 1398 682 1398 682 1333 c 0,14,15
 682 1291 682 1291 686 1255.5 c 128,-1,16
 690 1220 690 1220 701.5 1194 c 128,-1,17
 713 1168 713 1168 734 1153 c 128,-1,18
 755 1138 755 1138 788 1137 c 0,19,20
 808 1139 808 1139 827.5 1139 c 128,-1,21
 847 1139 847 1139 867 1139 c 0,22,23
 995 1139 995 1139 1093 1109 c 128,-1,24
 1191 1079 1191 1079 1257.5 1024.5 c 128,-1,25
 1324 970 1324 970 1358 893 c 128,-1,26
 1392 816 1392 816 1392 723 c 0,27,28
 1392 540 1392 540 1272.5 354 c 128,-1,29
 1153 168 1153 168 920 -4 c 0,30,31
 752 -129 752 -129 522 -217 c 128,-1,32
 292 -305 292 -305 0 -358 c 1,33,-1
 0 -297 l 1,34,35
 133 -243 133 -243 253.5 -175 c 128,-1,36
 374 -107 374 -107 476.5 -30 c 128,-1,37
 579 47 579 47 662 130.5 c 128,-1,38
 745 214 745 214 803 298 c 128,-1,39
 861 382 861 382 892.5 464 c 128,-1,40
 924 546 924 546 924 621 c 0,41,42
 924 682 924 682 899.5 734 c 128,-1,43
 875 786 875 786 841 825.5 c 128,-1,44
 807 865 807 865 769.5 890 c 128,-1,45
 732 915 732 915 707 922 c 0,46,47
 675 930 675 930 647 930 c 0,48,49
 590 930 590 930 529 902.5 c 128,-1,50
 468 875 468 875 400 835.5 c 128,-1,51
 332 796 332 796 256.5 751 c 128,-1,52
 181 706 181 706 96 672 c 1,53,-1
 51 717 l 1,0,1
EndSplineSet
Substitution2: "'liga' Standard Ligatures in Latin lookup 2 subtable" uniF8DE
EndChar

StartChar: Q
Encoding: 81 81 77
Width: 1546
Flags: W
LayerCount: 2
Fore
SplineSet
0 676 m 1,0,1
 74 718 74 718 145 773.5 c 128,-1,2
 216 829 216 829 282.5 892 c 128,-1,3
 349 955 349 955 410.5 1024 c 128,-1,4
 472 1093 472 1093 527 1163.5 c 128,-1,5
 582 1234 582 1234 629.5 1302.5 c 128,-1,6
 677 1371 677 1371 717 1434 c 1,7,-1
 731 1434 l 2,8,9
 779 1434 779 1434 837 1441.5 c 128,-1,10
 895 1449 895 1449 957 1462 c 128,-1,11
 1019 1475 1019 1475 1081.5 1493.5 c 128,-1,12
 1144 1512 1144 1512 1202 1535 c 128,-1,13
 1260 1558 1260 1558 1309 1584 c 128,-1,14
 1358 1610 1358 1610 1393 1638 c 1,15,-1
 1434 1638 l 1,16,17
 1424 1566 1424 1566 1387.5 1490.5 c 128,-1,18
 1351 1415 1351 1415 1296 1339.5 c 128,-1,19
 1241 1264 1241 1264 1172.5 1190.5 c 128,-1,20
 1104 1117 1104 1117 1032 1050.5 c 128,-1,21
 960 984 960 984 888 926 c 128,-1,22
 816 868 816 868 754 823 c 0,23,24
 696 781 696 781 666.5 759.5 c 128,-1,25
 637 738 637 738 635 737 c 1,26,27
 713 651 713 651 749.5 564 c 128,-1,28
 786 477 786 477 786 386 c 0,29,30
 786 301 786 301 758 219 c 128,-1,31
 730 137 730 137 680 60 c 128,-1,32
 630 -17 630 -17 561 -87.5 c 128,-1,33
 492 -158 492 -158 410 -218 c 128,-1,34
 328 -278 328 -278 235 -327 c 128,-1,35
 142 -376 142 -376 45 -410 c 1,36,-1
 0 -365 l 1,37,38
 90 -316 90 -316 165 -248 c 128,-1,39
 240 -180 240 -180 294.5 -101.5 c 128,-1,40
 349 -23 349 -23 379.5 61.5 c 128,-1,41
 410 146 410 146 410 229 c 0,42,43
 410 298 410 298 386 359 c 128,-1,44
 362 420 362 420 312 470 c 128,-1,45
 262 520 262 520 184.5 557 c 128,-1,46
 107 594 107 594 0 614 c 1,47,-1
 0 676 l 1,0,1
EndSplineSet
Substitution2: "'liga' Standard Ligatures in Latin lookup 2 subtable" uniF8E0
EndChar

StartChar: q
Encoding: 113 113 78
Width: 942
Flags: W
LayerCount: 2
Fore
SplineSet
0 881 m 1,0,1
 30 920 30 920 78 964.5 c 128,-1,2
 126 1009 126 1009 182.5 1058.5 c 128,-1,3
 239 1108 239 1108 300 1162.5 c 128,-1,4
 361 1217 361 1217 417.5 1276.5 c 128,-1,5
 474 1336 474 1336 520 1401 c 128,-1,6
 566 1466 566 1466 594 1536 c 1,7,8
 651 1524 651 1524 695.5 1496 c 128,-1,9
 740 1468 740 1468 773 1432.5 c 128,-1,10
 806 1397 806 1397 828.5 1358.5 c 128,-1,11
 851 1320 851 1320 865 1286.5 c 128,-1,12
 879 1253 879 1253 885 1228.5 c 128,-1,13
 891 1204 891 1204 891 1198 c 0,14,15
 870 1160 870 1160 851 1135.5 c 128,-1,16
 832 1111 832 1111 812 1092 c 128,-1,17
 792 1073 792 1073 771 1056 c 128,-1,18
 750 1039 750 1039 725.5 1017 c 128,-1,19
 701 995 701 995 672 964 c 128,-1,20
 643 933 643 933 608 885 c 1,21,22
 648 827 648 827 687 771 c 128,-1,23
 726 715 726 715 756 653.5 c 128,-1,24
 786 592 786 592 804.5 522.5 c 128,-1,25
 823 453 823 453 823 369 c 0,26,27
 823 301 823 301 810.5 222 c 128,-1,28
 798 143 798 143 770.5 47.5 c 128,-1,29
 743 -48 743 -48 699.5 -161 c 128,-1,30
 656 -274 656 -274 594 -410 c 1,31,-1
 532 -410 l 1,32,33
 532 -234 532 -234 529 -104 c 128,-1,34
 526 26 526 26 517 123 c 128,-1,35
 508 220 508 220 491.5 289.5 c 128,-1,36
 475 359 475 359 448 413.5 c 128,-1,37
 421 468 421 468 382 513.5 c 128,-1,38
 343 559 343 559 289 608 c 0,39,40
 234 658 234 658 162.5 725.5 c 128,-1,41
 91 793 91 793 0 881 c 1,0,1
EndSplineSet
Substitution2: "'liga' Standard Ligatures in Latin lookup 2 subtable" uniF8DF
EndChar

StartChar: r
Encoding: 114 114 79
Width: 1812
Flags: W
LayerCount: 2
Fore
SplineSet
0 1638 m 1,0,1
 94 1638 94 1638 187.5 1633.5 c 128,-1,2
 281 1629 281 1629 377 1624 c 2,3,-1
 770 1602 l 2,4,5
 891 1594 891 1594 1015.5 1589 c 128,-1,6
 1140 1584 1140 1584 1268 1584 c 0,7,8
 1351 1584 1351 1584 1435.5 1587 c 128,-1,9
 1520 1590 1520 1590 1608 1597 c 1,10,11
 1632 1568 1632 1568 1653.5 1538 c 128,-1,12
 1675 1508 1675 1508 1694 1471.5 c 128,-1,13
 1713 1435 1713 1435 1729.5 1391 c 128,-1,14
 1746 1347 1746 1347 1761 1290 c 1,15,16
 1737 1291 1737 1291 1708 1294.5 c 128,-1,17
 1679 1298 1679 1298 1647.5 1302.5 c 128,-1,18
 1616 1307 1616 1307 1583.5 1310.5 c 128,-1,19
 1551 1314 1551 1314 1520 1314 c 0,20,21
 1477 1314 1477 1314 1439 1306 c 128,-1,22
 1401 1298 1401 1298 1372.5 1275 c 128,-1,23
 1344 1252 1344 1252 1327.5 1211.5 c 128,-1,24
 1311 1171 1311 1171 1311 1106 c 0,25,26
 1311 1062 1311 1062 1319 1034.5 c 128,-1,27
 1327 1007 1327 1007 1341 990.5 c 128,-1,28
 1355 974 1355 974 1374.5 968 c 128,-1,29
 1394 962 1394 962 1417 962 c 0,30,31
 1446 962 1446 962 1479.5 967.5 c 128,-1,32
 1513 973 1513 973 1549 979.5 c 128,-1,33
 1585 986 1585 986 1622 992 c 128,-1,34
 1659 998 1659 998 1696 999 c 1,35,-1
 1741 952 l 1,36,37
 1590 878 1590 878 1451 780.5 c 128,-1,38
 1312 683 1312 683 1182 570 c 128,-1,39
 1052 457 1052 457 930.5 332.5 c 128,-1,40
 809 208 809 208 694 81.5 c 128,-1,41
 579 -45 579 -45 470 -170 c 128,-1,42
 361 -295 361 -295 256 -410 c 1,43,-1
 154 -410 l 1,44,45
 215 -268 215 -268 289 -127.5 c 128,-1,46
 363 13 363 13 439.5 146.5 c 128,-1,47
 516 280 516 280 588.5 405 c 128,-1,48
 661 530 661 530 718 639.5 c 128,-1,49
 775 749 775 749 811 841.5 c 128,-1,50
 847 934 847 934 850 1004 c 1,51,52
 847 1045 847 1045 808.5 1092.5 c 128,-1,53
 770 1140 770 1140 706.5 1190 c 128,-1,54
 643 1240 643 1240 560 1291.5 c 128,-1,55
 477 1343 477 1343 383.5 1393 c 128,-1,56
 290 1443 290 1443 191.5 1489.5 c 128,-1,57
 93 1536 93 1536 0 1577 c 1,58,-1
 0 1638 l 1,0,1
EndSplineSet
Substitution2: "'liga' Standard Ligatures in Latin lookup 2 subtable" uniF8E1
EndChar

StartChar: S
Encoding: 83 83 80
Width: 2161
Flags: W
LayerCount: 2
Fore
SplineSet
645 645 m 1,0,1
 680 774 680 774 680 887 c 0,2,3
 680 973 680 973 663 1052 c 128,-1,4
 646 1131 646 1131 621 1203 c 128,-1,5
 596 1275 596 1275 566.5 1339 c 128,-1,6
 537 1403 537 1403 511.5 1458 c 128,-1,7
 486 1513 486 1513 469 1558 c 128,-1,8
 452 1603 452 1603 451 1638 c 1,9,-1
 512 1638 l 1,10,11
 564 1595 564 1595 633 1555 c 128,-1,12
 702 1515 702 1515 782.5 1484 c 128,-1,13
 863 1453 863 1453 951 1434 c 128,-1,14
 1039 1415 1039 1415 1131 1415 c 0,15,16
 1231 1415 1231 1415 1330.5 1439 c 128,-1,17
 1430 1463 1430 1463 1536 1516 c 1,18,19
 1556 1511 1556 1511 1579 1511 c 0,20,21
 1592 1511 1592 1511 1603.5 1513.5 c 128,-1,22
 1615 1516 1615 1516 1626 1516 c 0,23,24
 1652 1516 1652 1516 1673 1509 c 128,-1,25
 1694 1502 1694 1502 1710 1485 c 1,26,27
 1698 1449 1698 1449 1664 1413.5 c 128,-1,28
 1630 1378 1630 1378 1582 1340.5 c 128,-1,29
 1534 1303 1534 1303 1476 1262 c 128,-1,30
 1418 1221 1418 1221 1358 1174 c 0,31,32
 1295 1125 1295 1125 1239 1067 c 128,-1,33
 1183 1009 1183 1009 1140.5 938.5 c 128,-1,34
 1098 868 1098 868 1072 785 c 128,-1,35
 1046 702 1046 702 1044 604 c 1,36,37
 1053 381 1053 381 1210 248 c 0,38,39
 1367 114 1367 114 1577 29 c 0,40,41
 1681 -13 1681 -13 1772 -52 c 128,-1,42
 1863 -91 1863 -91 1942 -127 c 0,43,44
 2098 -200 2098 -200 2109 -297 c 1,45,-1
 2064 -342 l 1,46,47
 1913 -286 1913 -286 1779.5 -247 c 128,-1,48
 1646 -208 1646 -208 1526 -183 c 128,-1,49
 1406 -158 1406 -158 1298 -147 c 128,-1,50
 1190 -136 1190 -136 1090 -136 c 0,51,52
 938 -136 938 -136 802.5 -160.5 c 128,-1,53
 667 -185 667 -185 542 -224 c 128,-1,54
 417 -263 417 -263 298.5 -312 c 128,-1,55
 180 -361 180 -361 61 -410 c 1,56,-1
 0 -410 l 1,57,58
 0 -368 0 -368 13.5 -336 c 128,-1,59
 27 -304 27 -304 57 -281 c 256,60,61
 87 -258 87 -258 126 -229 c 128,-1,62
 165 -200 165 -200 211.5 -156.5 c 128,-1,63
 258 -113 258 -113 311 -49.5 c 128,-1,64
 364 14 364 14 422 106 c 0,65,66
 479 197 479 197 534 331.5 c 128,-1,67
 589 466 589 466 645 645 c 1,0,1
EndSplineSet
Substitution2: "'liga' Standard Ligatures in Latin lookup 2 subtable" uniF8E2
EndChar

StartChar: u
Encoding: 117 117 81
Width: 2120
Flags: W
LayerCount: 2
Fore
SplineSet
0 -365 m 1,0,1
 89 -236 89 -236 174 -95 c 128,-1,2
 259 46 259 46 343 191.5 c 128,-1,3
 427 337 427 337 512 484.5 c 128,-1,4
 597 632 597 632 686 774 c 0,5,6
 775 917 775 917 875 1047 c 128,-1,7
 975 1177 975 1177 1090 1288 c 128,-1,8
 1205 1399 1205 1399 1337 1488 c 128,-1,9
 1469 1577 1469 1577 1622 1638 c 1,10,11
 1654 1619 1654 1619 1654 1587 c 0,12,13
 1654 1569 1654 1569 1645 1543.5 c 128,-1,14
 1636 1518 1636 1518 1625 1482.5 c 128,-1,15
 1614 1447 1614 1447 1605 1400.5 c 128,-1,16
 1596 1354 1596 1354 1595 1294 c 0,17,18
 1595 1186 1595 1186 1653 1024 c 1,19,-1
 1591 1024 l 1,20,21
 1526 1067 1526 1067 1456 1067 c 0,22,23
 1405 1067 1405 1067 1352.5 1044.5 c 128,-1,24
 1300 1022 1300 1022 1249 984.5 c 128,-1,25
 1198 947 1198 947 1149.5 899 c 128,-1,26
 1101 851 1101 851 1058.5 799.5 c 128,-1,27
 1016 748 1016 748 980.5 697 c 128,-1,28
 945 646 945 646 919.5 604 c 128,-1,29
 894 562 894 562 879.5 532 c 128,-1,30
 865 502 865 502 864 492 c 0,31,32
 869 431 869 431 954 431 c 0,33,34
 1003 431 1003 431 1068 447 c 128,-1,35
 1133 463 1133 463 1203.5 491 c 128,-1,36
 1274 519 1274 519 1346 556.5 c 128,-1,37
 1418 594 1418 594 1483 637.5 c 128,-1,38
 1548 681 1548 681 1601 728.5 c 128,-1,39
 1654 776 1654 776 1686 823 c 1,40,-1
 1688 823 l 2,41,42
 1692 823 1692 823 1696 819 c 2,43,-1
 1706 809 l 1,44,-1
 1718 793 l 2,45,46
 1725 783 1725 783 1731 778 c 0,47,48
 1761 703 1761 703 1788 651.5 c 128,-1,49
 1815 600 1815 600 1839 566 c 128,-1,50
 1863 532 1863 532 1884.5 512 c 128,-1,51
 1906 492 1906 492 1926.5 480 c 128,-1,52
 1947 468 1947 468 1967 460 c 128,-1,53
 1987 452 1987 452 2007 442 c 0,54,55
 2040 426 2040 426 2068 369 c 1,56,57
 2005 372 2005 372 1944 372 c 0,58,59
 1684 372 1684 372 1439.5 315 c 128,-1,60
 1195 258 1195 258 960 154.5 c 128,-1,61
 725 51 725 51 497.5 -92.5 c 128,-1,62
 270 -236 270 -236 45 -410 c 1,63,-1
 0 -365 l 1,0,1
EndSplineSet
Substitution2: "'liga' Standard Ligatures in Latin lookup 2 subtable" uniF8E5
EndChar

StartChar: v
Encoding: 118 118 82
Width: 2451
Flags: W
LayerCount: 2
Fore
SplineSet
1382 451 m 1,0,1
 1428 552 1428 552 1484.5 667 c 128,-1,2
 1541 782 1541 782 1608.5 899.5 c 128,-1,3
 1676 1017 1676 1017 1755.5 1131 c 128,-1,4
 1835 1245 1835 1245 1928 1343 c 128,-1,5
 2021 1441 2021 1441 2127.5 1518 c 128,-1,6
 2234 1595 2234 1595 2355 1638 c 1,7,-1
 2400 1593 l 1,8,9
 2275 1441 2275 1441 2191 1295.5 c 128,-1,10
 2107 1150 2107 1150 2056 1012 c 128,-1,11
 2005 874 2005 874 1983 743 c 128,-1,12
 1961 612 1961 612 1961 489 c 0,13,14
 1961 355 1961 355 1979.5 232.5 c 128,-1,15
 1998 110 1998 110 2026 3.5 c 128,-1,16
 2054 -103 2054 -103 2085.5 -191 c 128,-1,17
 2117 -279 2117 -279 2144 -344 c 1,18,-1
 2099 -389 l 1,19,20
 2036 -389 2036 -389 1983.5 -378 c 128,-1,21
 1931 -367 1931 -367 1885.5 -346.5 c 128,-1,22
 1840 -326 1840 -326 1799.5 -298.5 c 128,-1,23
 1759 -271 1759 -271 1722 -238 c 2,24,-1
 1567 -94 l 2,25,26
 1484 -17 1484 -17 1376 51 c 1,27,28
 1110 51 1110 51 924.5 45.5 c 128,-1,29
 739 40 739 40 631 29 c 0,30,31
 416 6 416 6 365 -45 c 0,32,33
 312 -98 312 -98 270 -188 c 0,34,35
 249 -233 249 -233 192.5 -288 c 128,-1,36
 136 -343 136 -343 45 -410 c 1,37,-1
 0 -365 l 1,38,39
 22 -318 22 -318 32 -251.5 c 128,-1,40
 42 -185 42 -185 46.5 -106.5 c 128,-1,41
 51 -28 51 -28 52.5 60 c 128,-1,42
 54 148 54 148 58 238.5 c 128,-1,43
 62 329 62 329 72 419.5 c 128,-1,44
 82 510 82 510 104 594 c 0,45,46
 144 765 144 765 266 881 c 1,47,-1
 328 881 l 1,48,49
 328 733 328 733 364 636.5 c 128,-1,50
 400 540 400 540 465.5 484 c 128,-1,51
 531 428 531 428 623.5 405.5 c 128,-1,52
 716 383 716 383 830 383 c 0,53,54
 951 383 951 383 1091 403.5 c 128,-1,55
 1231 424 1231 424 1382 451 c 1,0,1
EndSplineSet
Substitution2: "'liga' Standard Ligatures in Latin lookup 2 subtable" uniF8E6
EndChar

StartChar: w
Encoding: 119 119 83
Width: 1851
Flags: W
LayerCount: 2
Fore
SplineSet
666 -410 m 1,0,1
 570 -318 570 -318 483 -205 c 128,-1,2
 396 -92 396 -92 322 46.5 c 128,-1,3
 248 185 248 185 188.5 350.5 c 128,-1,4
 129 516 129 516 87 713 c 128,-1,5
 45 910 45 910 22.5 1140 c 128,-1,6
 0 1370 0 1370 0 1638 c 1,7,-1
 1802 1638 l 1,8,-1
 1802 1577 l 1,9,10
 1728 1529 1728 1529 1635.5 1494.5 c 128,-1,11
 1543 1460 1543 1460 1441 1435.5 c 128,-1,12
 1339 1411 1339 1411 1231.5 1395 c 128,-1,13
 1124 1379 1124 1379 1020 1368 c 0,14,15
 915 1355 915 1355 819.5 1341.5 c 128,-1,16
 724 1328 724 1328 647 1309.5 c 128,-1,17
 570 1291 570 1291 514.5 1265 c 128,-1,18
 459 1239 459 1239 434 1202 c 0,19,20
 421 1183 421 1183 415.5 1150 c 128,-1,21
 410 1117 410 1117 410 1070 c 0,22,23
 410 969 410 969 431 815.5 c 128,-1,24
 452 662 452 662 492.5 470 c 128,-1,25
 533 278 533 278 592 54.5 c 128,-1,26
 651 -169 651 -169 727 -410 c 1,27,-1
 666 -410 l 1,0,1
EndSplineSet
Substitution2: "'liga' Standard Ligatures in Latin lookup 2 subtable" uniF8E7
EndChar

StartChar: y
Encoding: 121 121 84
Width: 1905
Flags: W
LayerCount: 2
Fore
SplineSet
0 850 m 0,0,1
 0 943 0 943 30 1031.5 c 128,-1,2
 60 1120 60 1120 112 1199.5 c 128,-1,3
 164 1279 164 1279 235 1348.5 c 128,-1,4
 306 1418 306 1418 388 1474.5 c 128,-1,5
 470 1531 470 1531 559 1572.5 c 128,-1,6
 648 1614 648 1614 737 1638 c 1,7,8
 910 1638 910 1638 1049 1639 c 128,-1,9
 1188 1640 1188 1640 1300 1640 c 0,10,11
 1406 1640 1406 1640 1490 1638 c 128,-1,12
 1574 1636 1574 1636 1640.5 1628.5 c 128,-1,13
 1707 1621 1707 1621 1759 1606.5 c 128,-1,14
 1811 1592 1811 1592 1853 1567 c 1,15,16
 1808 1348 1808 1348 1686 1165 c 0,17,18
 1624 1072 1624 1072 1569.5 975.5 c 128,-1,19
 1515 879 1515 879 1468 776 c 0,20,21
 1405 638 1405 638 1405 467 c 0,22,23
 1405 380 1405 380 1423 288 c 128,-1,24
 1441 196 1441 196 1482.5 94.5 c 128,-1,25
 1524 -7 1524 -7 1590.5 -120.5 c 128,-1,26
 1657 -234 1657 -234 1755 -365 c 1,27,-1
 1710 -410 l 1,28,29
 1631 -385 1631 -385 1534 -339.5 c 128,-1,30
 1437 -294 1437 -294 1330.5 -234 c 128,-1,31
 1224 -174 1224 -174 1110.5 -102 c 128,-1,32
 997 -30 997 -30 884.5 48 c 128,-1,33
 772 126 772 126 663 207.5 c 128,-1,34
 554 289 554 289 456.5 368 c 128,-1,35
 359 447 359 447 276.5 521 c 128,-1,36
 194 595 194 595 133.5 658 c 128,-1,37
 73 721 73 721 38 770.5 c 128,-1,38
 3 820 3 820 0 850 c 0,0,1
1128 1315 m 0,39,40
 1085 1355 1085 1355 1018 1355 c 0,41,42
 957 1355 957 1355 889.5 1324 c 128,-1,43
 822 1293 822 1293 765.5 1242 c 128,-1,44
 709 1191 709 1191 672 1124.5 c 128,-1,45
 635 1058 635 1058 635 987 c 0,46,47
 635 937 635 937 652 886.5 c 128,-1,48
 669 836 669 836 696.5 789.5 c 128,-1,49
 724 743 724 743 759 702.5 c 128,-1,50
 794 662 794 662 830 632 c 128,-1,51
 866 602 866 602 899.5 584.5 c 128,-1,52
 933 567 933 567 958 567 c 0,53,54
 981 567 981 567 995 581 c 128,-1,55
 1009 595 1009 595 1016.5 615 c 128,-1,56
 1024 635 1024 635 1026 658.5 c 128,-1,57
 1028 682 1028 682 1028 702 c 0,58,59
 1028 747 1028 747 1021.5 800 c 128,-1,60
 1015 853 1015 853 1015 907 c 0,61,62
 1015 963 1015 963 1028 1015.5 c 128,-1,63
 1041 1068 1041 1068 1058.5 1114.5 c 128,-1,64
 1076 1161 1076 1161 1094.5 1200 c 128,-1,65
 1113 1239 1113 1239 1124 1268 c 0,66,67
 1127 1277 1127 1277 1129 1284.5 c 128,-1,68
 1131 1292 1131 1292 1131 1299 c 0,69,70
 1131 1307 1131 1307 1128 1315 c 0,39,40
EndSplineSet
Substitution2: "'liga' Standard Ligatures in Latin lookup 2 subtable" uniF8E8
EndChar

StartChar: quotesingle
Encoding: 39 39 85
Width: 666
Flags: W
LayerCount: 2
Fore
SplineSet
102 946 m 2,0,1
 104 974 104 974 120 1003.5 c 128,-1,2
 136 1033 136 1033 159 1065 c 128,-1,3
 182 1097 182 1097 209.5 1131.5 c 128,-1,4
 237 1166 237 1166 262 1204 c 0,5,6
 288 1242 288 1242 298 1284 c 128,-1,7
 308 1326 308 1326 309 1374 c 0,8,9
 304 1471 304 1471 199 1593 c 1,10,-1
 244 1638 l 1,11,12
 338 1590 338 1590 399.5 1545.5 c 128,-1,13
 461 1501 461 1501 497 1457.5 c 128,-1,14
 533 1414 533 1414 547.5 1371 c 128,-1,15
 562 1328 562 1328 562 1283 c 0,16,17
 562 1250 562 1250 550.5 1212 c 128,-1,18
 539 1174 539 1174 521 1136 c 128,-1,19
 503 1098 503 1098 481 1061 c 128,-1,20
 459 1024 459 1024 438 991 c 0,21,22
 406 941 406 941 392.5 895.5 c 128,-1,23
 379 850 379 850 379 807 c 0,24,25
 382 779 382 779 401 750 c 128,-1,26
 420 721 420 721 441.5 692.5 c 128,-1,27
 463 664 463 664 480.5 638 c 128,-1,28
 498 612 498 612 498 590 c 0,29,30
 498 563 498 563 472 544.5 c 128,-1,31
 446 526 446 526 383 512 c 1,32,33
 331 519 331 519 290 545 c 128,-1,34
 249 571 249 571 218 607.5 c 128,-1,35
 187 644 187 644 165 689 c 128,-1,36
 143 734 143 734 129 778.5 c 128,-1,37
 115 823 115 823 108.5 865 c 128,-1,38
 102 907 102 907 102 938 c 2,39,-1
 102 946 l 2,0,1
EndSplineSet
Substitution2: "'liga' Standard Ligatures in Latin lookup 2 subtable" uniF8E9
EndChar

StartChar: quoteleft
Encoding: 8216 8216 86
Width: 666
Flags: W
LayerCount: 2
Fore
SplineSet
102 946 m 2,0,1
 104 974 104 974 120 1003.5 c 128,-1,2
 136 1033 136 1033 159 1065 c 128,-1,3
 182 1097 182 1097 209.5 1131.5 c 128,-1,4
 237 1166 237 1166 262 1204 c 0,5,6
 288 1242 288 1242 298 1284 c 128,-1,7
 308 1326 308 1326 309 1374 c 0,8,9
 304 1471 304 1471 199 1593 c 1,10,-1
 244 1638 l 1,11,12
 338 1590 338 1590 399.5 1545.5 c 128,-1,13
 461 1501 461 1501 497 1457.5 c 128,-1,14
 533 1414 533 1414 547.5 1371 c 128,-1,15
 562 1328 562 1328 562 1283 c 0,16,17
 562 1250 562 1250 550.5 1212 c 128,-1,18
 539 1174 539 1174 521 1136 c 128,-1,19
 503 1098 503 1098 481 1061 c 128,-1,20
 459 1024 459 1024 438 991 c 0,21,22
 406 941 406 941 392.5 895.5 c 128,-1,23
 379 850 379 850 379 807 c 0,24,25
 382 779 382 779 401 750 c 128,-1,26
 420 721 420 721 441.5 692.5 c 128,-1,27
 463 664 463 664 480.5 638 c 128,-1,28
 498 612 498 612 498 590 c 0,29,30
 498 563 498 563 472 544.5 c 128,-1,31
 446 526 446 526 383 512 c 1,32,33
 331 519 331 519 290 545 c 128,-1,34
 249 571 249 571 218 607.5 c 128,-1,35
 187 644 187 644 165 689 c 128,-1,36
 143 734 143 734 129 778.5 c 128,-1,37
 115 823 115 823 108.5 865 c 128,-1,38
 102 907 102 907 102 938 c 2,39,-1
 102 946 l 2,0,1
EndSplineSet
Substitution2: "'liga' Standard Ligatures in Latin lookup 2 subtable" uniF8E9
EndChar

StartChar: quoteright
Encoding: 8217 8217 87
Width: 666
Flags: W
LayerCount: 2
Fore
SplineSet
102 946 m 2,0,1
 104 974 104 974 120 1003.5 c 128,-1,2
 136 1033 136 1033 159 1065 c 128,-1,3
 182 1097 182 1097 209.5 1131.5 c 128,-1,4
 237 1166 237 1166 262 1204 c 0,5,6
 288 1242 288 1242 298 1284 c 128,-1,7
 308 1326 308 1326 309 1374 c 0,8,9
 304 1471 304 1471 199 1593 c 1,10,-1
 244 1638 l 1,11,12
 338 1590 338 1590 399.5 1545.5 c 128,-1,13
 461 1501 461 1501 497 1457.5 c 128,-1,14
 533 1414 533 1414 547.5 1371 c 128,-1,15
 562 1328 562 1328 562 1283 c 0,16,17
 562 1250 562 1250 550.5 1212 c 128,-1,18
 539 1174 539 1174 521 1136 c 128,-1,19
 503 1098 503 1098 481 1061 c 128,-1,20
 459 1024 459 1024 438 991 c 0,21,22
 406 941 406 941 392.5 895.5 c 128,-1,23
 379 850 379 850 379 807 c 0,24,25
 382 779 382 779 401 750 c 128,-1,26
 420 721 420 721 441.5 692.5 c 128,-1,27
 463 664 463 664 480.5 638 c 128,-1,28
 498 612 498 612 498 590 c 0,29,30
 498 563 498 563 472 544.5 c 128,-1,31
 446 526 446 526 383 512 c 1,32,33
 331 519 331 519 290 545 c 128,-1,34
 249 571 249 571 218 607.5 c 128,-1,35
 187 644 187 644 165 689 c 128,-1,36
 143 734 143 734 129 778.5 c 128,-1,37
 115 823 115 823 108.5 865 c 128,-1,38
 102 907 102 907 102 938 c 2,39,-1
 102 946 l 2,0,1
EndSplineSet
Substitution2: "'liga' Standard Ligatures in Latin lookup 2 subtable" uniF8E9
EndChar

StartChar: Z
Encoding: 90 90 88
Width: 666
Flags: W
LayerCount: 2
Fore
SplineSet
102 946 m 2,0,1
 104 974 104 974 120 1003.5 c 128,-1,2
 136 1033 136 1033 159 1065 c 128,-1,3
 182 1097 182 1097 209.5 1131.5 c 128,-1,4
 237 1166 237 1166 262 1204 c 0,5,6
 288 1242 288 1242 298 1284 c 128,-1,7
 308 1326 308 1326 309 1374 c 0,8,9
 304 1471 304 1471 199 1593 c 1,10,-1
 244 1638 l 1,11,12
 338 1590 338 1590 399.5 1545.5 c 128,-1,13
 461 1501 461 1501 497 1457.5 c 128,-1,14
 533 1414 533 1414 547.5 1371 c 128,-1,15
 562 1328 562 1328 562 1283 c 0,16,17
 562 1250 562 1250 550.5 1212 c 128,-1,18
 539 1174 539 1174 521 1136 c 128,-1,19
 503 1098 503 1098 481 1061 c 128,-1,20
 459 1024 459 1024 438 991 c 0,21,22
 406 941 406 941 392.5 895.5 c 128,-1,23
 379 850 379 850 379 807 c 0,24,25
 382 779 382 779 401 750 c 128,-1,26
 420 721 420 721 441.5 692.5 c 128,-1,27
 463 664 463 664 480.5 638 c 128,-1,28
 498 612 498 612 498 590 c 0,29,30
 498 563 498 563 472 544.5 c 128,-1,31
 446 526 446 526 383 512 c 1,32,33
 331 519 331 519 290 545 c 128,-1,34
 249 571 249 571 218 607.5 c 128,-1,35
 187 644 187 644 165 689 c 128,-1,36
 143 734 143 734 129 778.5 c 128,-1,37
 115 823 115 823 108.5 865 c 128,-1,38
 102 907 102 907 102 938 c 2,39,-1
 102 946 l 2,0,1
EndSplineSet
Substitution2: "'liga' Standard Ligatures in Latin lookup 2 subtable" uniF8E9
EndChar

StartChar: T
Encoding: 84 84 89
Width: 1915
Flags: W
LayerCount: 2
Fore
SplineSet
676 358 m 0,0,1
 859 368 859 368 1026 565 c 0,2,3
 1110 664 1110 664 1188.5 777 c 128,-1,4
 1267 890 1267 890 1343 1020 c 0,5,6
 1419 1149 1419 1149 1492.5 1258.5 c 128,-1,7
 1566 1368 1566 1368 1638 1462 c 0,8,9
 1774 1638 1774 1638 1910 1638 c 2,10,-1
 1925 1638 l 1,11,12
 1892 1570 1892 1570 1861.5 1485.5 c 128,-1,13
 1831 1401 1831 1401 1808 1306 c 128,-1,14
 1785 1211 1785 1211 1771.5 1108.5 c 128,-1,15
 1758 1006 1758 1006 1758 903 c 0,16,17
 1758 770 1758 770 1782.5 651.5 c 128,-1,18
 1807 533 1807 533 1864 430 c 1,19,-1
 1864 369 l 1,20,21
 1802 372 1802 372 1744 372 c 0,22,23
 1597 372 1597 372 1461.5 350 c 128,-1,24
 1326 328 1326 328 1194 286.5 c 128,-1,25
 1062 245 1062 245 931 185.5 c 128,-1,26
 800 126 800 126 661.5 50.5 c 128,-1,27
 523 -25 523 -25 375 -115 c 128,-1,28
 227 -205 227 -205 61 -307 c 1,29,-1
 0 -307 l 1,30,31
 -4 -288 -4 -288 -4 -259 c 0,32,33
 -4 -196 -4 -196 16 -102.5 c 128,-1,34
 36 -9 36 -9 71.5 101.5 c 128,-1,35
 107 212 107 212 154.5 333.5 c 128,-1,36
 202 455 202 455 257 574 c 128,-1,37
 312 693 312 693 372 804 c 128,-1,38
 432 915 432 915 492 1004 c 1,39,-1
 553 1004 l 1,40,41
 547 968 547 968 536 918.5 c 128,-1,42
 525 869 525 869 514.5 813 c 128,-1,43
 504 757 504 757 496 698.5 c 128,-1,44
 488 640 488 640 488 586 c 0,45,46
 488 537 488 537 497.5 495.5 c 128,-1,47
 507 454 507 454 529 424 c 128,-1,48
 551 394 551 394 587 376.5 c 128,-1,49
 623 359 623 359 676 358 c 0,0,1
EndSplineSet
Substitution2: "'liga' Standard Ligatures in Latin lookup 2 subtable" uniF8E3
EndChar

StartChar: L
Encoding: 76 76 90
Width: 1509
Flags: W
LayerCount: 2
Fore
SplineSet
0 4 m 1,0,1
 17 38 17 38 35 70 c 128,-1,2
 53 102 53 102 77.5 142.5 c 128,-1,3
 102 183 102 183 136.5 238 c 128,-1,4
 171 293 171 293 221 372.5 c 128,-1,5
 271 452 271 452 340 563 c 128,-1,6
 409 674 409 674 502.5 826.5 c 128,-1,7
 596 979 596 979 717 1179 c 128,-1,8
 838 1379 838 1379 993 1638 c 1,9,10
 1062 1603 1062 1603 1107 1571 c 128,-1,11
 1152 1539 1152 1539 1184 1503.5 c 128,-1,12
 1216 1468 1216 1468 1242 1426 c 128,-1,13
 1268 1384 1268 1384 1300 1329 c 0,14,15
 1320 1295 1320 1295 1348 1255 c 128,-1,16
 1376 1215 1376 1215 1413 1167 c 1,17,-1
 1413 1106 l 1,18,19
 1330 1091 1330 1091 1270.5 1085 c 128,-1,20
 1211 1079 1211 1079 1168.5 1075.5 c 128,-1,21
 1126 1072 1126 1072 1097 1068 c 128,-1,22
 1068 1064 1068 1064 1046.5 1054.5 c 128,-1,23
 1025 1045 1025 1045 1007.5 1026.5 c 128,-1,24
 990 1008 990 1008 970 975 c 128,-1,25
 950 942 950 942 924 891.5 c 128,-1,26
 898 841 898 841 860 768 c 1,27,28
 811 687 811 687 777 624.5 c 128,-1,29
 743 562 743 562 721.5 514.5 c 128,-1,30
 700 467 700 467 690.5 433 c 128,-1,31
 681 399 681 399 681 375 c 0,32,33
 681 335 681 335 707 320 c 128,-1,34
 733 305 733 305 776.5 298.5 c 128,-1,35
 820 292 820 292 876.5 285.5 c 128,-1,36
 933 279 933 279 993 256 c 0,37,38
 1059 226 1059 226 1108.5 196 c 128,-1,39
 1158 166 1158 166 1197 130 c 128,-1,40
 1236 94 1236 94 1267 49 c 128,-1,41
 1298 4 1298 4 1327.5 -55.5 c 128,-1,42
 1357 -115 1357 -115 1388.5 -191 c 128,-1,43
 1420 -267 1420 -267 1458 -365 c 1,44,-1
 1413 -410 l 1,45,46
 1380 -368 1380 -368 1340.5 -323 c 128,-1,47
 1301 -278 1301 -278 1247 -235.5 c 128,-1,48
 1193 -193 1193 -193 1120 -155 c 128,-1,49
 1047 -117 1047 -117 947 -88.5 c 128,-1,50
 847 -60 847 -60 716 -43 c 128,-1,51
 585 -26 585 -26 415 -26 c 0,52,53
 248 -26 248 -26 41 -41 c 1,54,-1
 0 4 l 1,0,1
EndSplineSet
Substitution2: "'liga' Standard Ligatures in Latin lookup 2 subtable" uniF8D9
EndChar

StartChar: C
Encoding: 67 67 91
Width: 2304
Flags: W
LayerCount: 2
Fore
SplineSet
0 266 m 1,0,1
 123 399 123 399 227 558.5 c 128,-1,2
 331 718 331 718 416 894.5 c 128,-1,3
 501 1071 501 1071 566.5 1259 c 128,-1,4
 632 1447 632 1447 676 1638 c 1,5,6
 727 1621 727 1621 778 1570 c 128,-1,7
 829 1519 829 1519 879.5 1446.5 c 128,-1,8
 930 1374 930 1374 979.5 1286.5 c 128,-1,9
 1029 1199 1029 1199 1078 1108.5 c 128,-1,10
 1127 1018 1127 1018 1174.5 930.5 c 128,-1,11
 1222 843 1222 843 1268 772 c 0,12,13
 1359 631 1359 631 1448 625 c 1,14,15
 1503 627 1503 627 1556 657.5 c 128,-1,16
 1609 688 1609 688 1660.5 739 c 128,-1,17
 1712 790 1712 790 1761.5 858 c 128,-1,18
 1811 926 1811 926 1858.5 1004 c 128,-1,19
 1906 1082 1906 1082 1950.5 1166 c 128,-1,20
 1995 1250 1995 1250 2037 1333 c 128,-1,21
 2079 1416 2079 1416 2117.5 1494 c 128,-1,22
 2156 1572 2156 1572 2191 1638 c 1,23,-1
 2253 1638 l 1,24,25
 2125 1106 2125 1106 2122 721 c 0,26,27
 2120 526 2120 526 2119.5 367.5 c 128,-1,28
 2119 209 2119 209 2116 82 c 256,29,30
 2113 -45 2113 -45 2076.5 -136.5 c 128,-1,31
 2040 -228 2040 -228 1972 -289 c 0,32,33
 1900 -355 1900 -355 1762.5 -383 c 128,-1,34
 1625 -411 1625 -411 1413 -410 c 0,35,36
 1348 -410 1348 -410 1267 -401.5 c 128,-1,37
 1186 -393 1186 -393 1084 -362 c 128,-1,38
 982 -331 982 -331 856 -269.5 c 128,-1,39
 730 -208 730 -208 573 -102 c 1,40,-1
 618 -57 l 1,41,42
 893 -92 893 -92 1092 -112.5 c 128,-1,43
 1291 -133 1291 -133 1424 -133 c 0,44,45
 1518 -133 1518 -133 1584.5 -121 c 128,-1,46
 1651 -109 1651 -109 1692.5 -81 c 128,-1,47
 1734 -53 1734 -53 1753 -6.5 c 128,-1,48
 1772 40 1772 40 1772 109 c 0,49,50
 1772 205 1772 205 1741 344 c 1,51,52
 1732 356 1732 356 1643 356 c 0,53,54
 1585 356 1585 356 1509 352.5 c 128,-1,55
 1433 349 1433 349 1355 345.5 c 128,-1,56
 1277 342 1277 342 1204.5 338.5 c 128,-1,57
 1132 335 1132 335 1083 335 c 0,58,59
 1017 335 1017 335 1014 348 c 2,60,-1
 1014 380 l 2,61,62
 1014 477 1014 477 1004.5 544 c 128,-1,63
 995 611 995 611 976.5 652 c 128,-1,64
 958 693 958 693 930.5 711 c 128,-1,65
 903 729 903 729 867 729 c 0,66,67
 833 729 833 729 787 710 c 128,-1,68
 741 691 741 691 685.5 658 c 128,-1,69
 630 625 630 625 566 580 c 128,-1,70
 502 535 502 535 432 483 c 0,71,72
 336 413 336 413 228.5 344 c 128,-1,73
 121 275 121 275 0 205 c 1,74,-1
 0 266 l 1,0,1
EndSplineSet
Substitution2: "'liga' Standard Ligatures in Latin lookup 2 subtable" uniF8D2
EndChar

StartChar: G
Encoding: 71 71 92
Width: 2386
Flags: W
LayerCount: 2
Fore
SplineSet
1225 1243 m 1,0,1
 1155 1284 1155 1284 1105.5 1307.5 c 128,-1,2
 1056 1331 1056 1331 1020 1343.5 c 128,-1,3
 984 1356 984 1356 959 1362.5 c 128,-1,4
 934 1369 934 1369 914 1377 c 128,-1,5
 894 1385 894 1385 876.5 1399 c 128,-1,6
 859 1413 859 1413 837 1440.5 c 128,-1,7
 815 1468 815 1468 786.5 1512.5 c 128,-1,8
 758 1557 758 1557 717 1628 c 1,9,10
 723 1626 723 1626 850 1626 c 2,11,-1
 1593 1626 l 2,12,13
 1702 1626 1702 1626 1802 1627 c 128,-1,14
 1902 1628 1902 1628 1993 1628 c 0,15,16
 2052 1628 2052 1628 2096.5 1600 c 128,-1,17
 2141 1572 2141 1572 2179 1530.5 c 128,-1,18
 2217 1489 2217 1489 2254 1441 c 128,-1,19
 2291 1393 2291 1393 2335 1352 c 1,20,-1
 2335 1290 l 1,21,22
 2278 1307 2278 1307 2226 1313.5 c 128,-1,23
 2174 1320 2174 1320 2120 1320 c 0,24,25
 2068 1320 2068 1320 2010 1313.5 c 128,-1,26
 1952 1307 1952 1307 1882 1296 c 2,27,-1
 1673 1268 l 1,28,29
 1657 1213 1657 1213 1638.5 1137.5 c 128,-1,30
 1620 1062 1620 1062 1600.5 974.5 c 128,-1,31
 1581 887 1581 887 1561.5 792 c 128,-1,32
 1542 697 1542 697 1525.5 603 c 128,-1,33
 1509 509 1509 509 1496.5 420 c 128,-1,34
 1484 331 1484 331 1477 256 c 1,35,36
 1534 247 1534 247 1590.5 240.5 c 128,-1,37
 1647 234 1647 234 1706 223.5 c 128,-1,38
 1765 213 1765 213 1828 195 c 128,-1,39
 1891 177 1891 177 1962 145 c 128,-1,40
 2033 113 2033 113 2113.5 64 c 128,-1,41
 2194 15 2194 15 2288 -57 c 1,42,-1
 2243 -102 l 1,43,44
 2106 -58 2106 -58 1960 -36 c 128,-1,45
 1814 -14 1814 -14 1656 -14 c 0,46,47
 1490 -14 1490 -14 1322.5 -32.5 c 128,-1,48
 1155 -51 1155 -51 996 -82.5 c 128,-1,49
 837 -114 837 -114 691.5 -154.5 c 128,-1,50
 546 -195 546 -195 424 -239 c 128,-1,51
 302 -283 302 -283 209 -327 c 128,-1,52
 116 -371 116 -371 61 -410 c 1,53,-1
 0 -410 l 1,54,55
 37 -313 37 -313 132.5 -224.5 c 128,-1,56
 228 -136 228 -136 362.5 -58 c 128,-1,57
 497 20 497 20 661 88 c 128,-1,58
 825 156 825 156 999 213 c 1,59,60
 1012 266 1012 266 1033 348 c 128,-1,61
 1054 430 1054 430 1077.5 526.5 c 128,-1,62
 1101 623 1101 623 1126 726.5 c 128,-1,63
 1151 830 1151 830 1171.5 926.5 c 128,-1,64
 1192 1023 1192 1023 1206.5 1106 c 128,-1,65
 1221 1189 1221 1189 1225 1243 c 1,0,1
EndSplineSet
Substitution2: "'liga' Standard Ligatures in Latin lookup 2 subtable" uniF8D5
EndChar

StartChar: N
Encoding: 78 78 93
Width: 1782
Flags: W
LayerCount: 2
Fore
SplineSet
6 881 m 0,0,1
 0 899 0 899 0 920 c 0,2,3
 0 981 0 981 53 1055.5 c 128,-1,4
 106 1130 106 1130 202 1219 c 128,-1,5
 298 1308 298 1308 431 1412.5 c 128,-1,6
 564 1517 564 1517 723 1638 c 1,7,8
 805 1619 805 1619 884 1582 c 128,-1,9
 963 1545 963 1545 1033.5 1492.5 c 128,-1,10
 1104 1440 1104 1440 1163 1373.5 c 128,-1,11
 1222 1307 1222 1307 1266 1229 c 1,12,13
 1203 1169 1203 1169 1148 1141.5 c 128,-1,14
 1093 1114 1093 1114 1044 1114 c 0,15,16
 950 1114 950 1114 862 1147 c 0,17,18
 840 1155 840 1155 818 1159 c 128,-1,19
 796 1163 796 1163 773 1163 c 0,20,21
 735 1163 735 1163 699.5 1154 c 128,-1,22
 664 1145 664 1145 626 1120.5 c 128,-1,23
 588 1096 588 1096 546.5 1053 c 128,-1,24
 505 1010 505 1010 457 942 c 0,25,26
 455 938 455 938 455 935 c 0,27,28
 455 921 455 921 501 915 c 128,-1,29
 547 909 547 909 625 909 c 0,30,31
 689 909 689 909 765.5 912 c 128,-1,32
 842 915 842 915 922.5 919.5 c 128,-1,33
 1003 924 1003 924 1083 930 c 128,-1,34
 1163 936 1163 936 1235 942 c 1,35,36
 1308 913 1308 913 1364.5 850 c 128,-1,37
 1421 787 1421 787 1460 676 c 1,38,39
 1438 656 1438 656 1412.5 644.5 c 128,-1,40
 1387 633 1387 633 1357.5 627.5 c 128,-1,41
 1328 622 1328 622 1293.5 620.5 c 128,-1,42
 1259 619 1259 619 1219 619 c 0,43,44
 1191 619 1191 619 1162 620 c 128,-1,45
 1133 621 1133 621 1104 621 c 0,46,47
 1062 621 1062 621 1024.5 613.5 c 128,-1,48
 987 606 987 606 958.5 586.5 c 128,-1,49
 930 567 930 567 913.5 534 c 128,-1,50
 897 501 897 501 897 449 c 0,51,52
 897 429 897 429 926 374 c 128,-1,53
 955 319 955 319 1008.5 245 c 128,-1,54
 1062 171 1062 171 1137 85.5 c 128,-1,55
 1212 0 1212 0 1305 -82 c 128,-1,56
 1398 -164 1398 -164 1505.5 -234 c 128,-1,57
 1613 -304 1613 -304 1731 -348 c 1,58,-1
 1731 -410 l 1,59,60
 1707 -411 1707 -411 1675.5 -411.5 c 128,-1,61
 1644 -412 1644 -412 1606 -412 c 0,62,63
 1548 -412 1548 -412 1482.5 -410.5 c 128,-1,64
 1417 -409 1417 -409 1352 -404.5 c 128,-1,65
 1287 -400 1287 -400 1227 -391.5 c 128,-1,66
 1167 -383 1167 -383 1120 -369 c 1,67,68
 996 -199 996 -199 865.5 -59.5 c 128,-1,69
 735 80 735 80 610.5 198.5 c 128,-1,70
 486 317 486 317 373 420.5 c 128,-1,71
 260 524 260 524 170 623 c 0,72,73
 52 751 52 751 6 881 c 0,0,1
EndSplineSet
Substitution2: "'liga' Standard Ligatures in Latin lookup 2 subtable" uniF8DB
EndChar

StartChar: A
Encoding: 65 65 94
Width: 2099
Flags: W
LayerCount: 2
Fore
SplineSet
0 20 m 1,0,1
 157 99 157 99 344 336 c 0,2,3
 434 451 434 451 528.5 586.5 c 128,-1,4
 623 722 623 722 714 860.5 c 128,-1,5
 805 999 805 999 889.5 1130.5 c 128,-1,6
 974 1262 974 1262 1044 1368 c 0,7,8
 1193 1592 1193 1592 1270 1638 c 1,9,-1
 2028 1638 l 1,10,-1
 2028 1577 l 1,11,12
 1860 1532 1860 1532 1715 1469.5 c 128,-1,13
 1570 1407 1570 1407 1463.5 1333 c 128,-1,14
 1357 1259 1357 1259 1296.5 1177 c 128,-1,15
 1236 1095 1236 1095 1236 1013 c 0,16,17
 1236 956 1236 956 1266 903.5 c 128,-1,18
 1296 851 1296 851 1359.5 803 c 128,-1,19
 1423 755 1423 755 1522.5 713 c 128,-1,20
 1622 671 1622 671 1761 635 c 1,21,-1
 1761 573 l 1,22,23
 1710 568 1710 568 1653 564 c 128,-1,24
 1596 560 1596 560 1530 557 c 2,25,-1
 1270 545 l 2,26,27
 1208 541 1208 541 1154 535.5 c 128,-1,28
 1100 530 1100 530 1059.5 522.5 c 128,-1,29
 1019 515 1019 515 995.5 504 c 128,-1,30
 972 493 972 493 971 479 c 0,31,32
 977 419 977 419 1124 391 c 0,33,34
 1199 377 1199 377 1286.5 354 c 128,-1,35
 1374 331 1374 331 1475 299 c 0,36,37
 1677 235 1677 235 1839 76 c 0,38,39
 2004 -85 2004 -85 2048 -410 c 1,40,-1
 1987 -410 l 1,41,42
 1929 -326 1929 -326 1871.5 -266 c 128,-1,43
 1814 -206 1814 -206 1747 -165.5 c 128,-1,44
 1680 -125 1680 -125 1599 -100.5 c 128,-1,45
 1518 -76 1518 -76 1414 -63.5 c 128,-1,46
 1310 -51 1310 -51 1178.5 -47 c 128,-1,47
 1047 -43 1047 -43 879 -43 c 0,48,49
 816 -43 816 -43 747 -43.5 c 128,-1,50
 678 -44 678 -44 602 -44 c 0,51,52
 340 -44 340 -44 0 -41 c 1,53,-1
 0 20 l 1,0,1
EndSplineSet
Substitution2: "'liga' Standard Ligatures in Latin lookup 2 subtable" uniF8D0
EndChar

StartChar: B
Encoding: 66 66 95
Width: 2048
Flags: W
LayerCount: 2
Fore
SplineSet
10 1149 m 1,0,1
 83 1186 83 1186 151 1249 c 128,-1,2
 219 1312 219 1312 276 1387 c 128,-1,3
 333 1462 333 1462 376.5 1543.5 c 128,-1,4
 420 1625 420 1625 446 1700 c 1,5,6
 513 1698 513 1698 559.5 1683.5 c 128,-1,7
 606 1669 606 1669 638 1646.5 c 128,-1,8
 670 1624 670 1624 690 1594.5 c 128,-1,9
 710 1565 710 1565 723 1532 c 2,10,-1
 774 1405 l 2,11,12
 790 1366 790 1366 822 1338.5 c 128,-1,13
 854 1311 854 1311 897 1311 c 0,14,15
 942 1311 942 1311 997.5 1336 c 128,-1,16
 1053 1361 1053 1361 1110.5 1399.5 c 128,-1,17
 1168 1438 1168 1438 1224 1485 c 128,-1,18
 1280 1532 1280 1532 1327 1577 c 0,19,20
 1328 1577 1328 1577 1346 1579.5 c 128,-1,21
 1364 1582 1364 1582 1399 1587 c 2,22,-1
 1575 1612 l 2,23,24
 1623 1617 1623 1617 1675 1622 c 128,-1,25
 1727 1627 1727 1627 1779 1630.5 c 128,-1,26
 1831 1634 1831 1634 1881 1636 c 128,-1,27
 1931 1638 1931 1638 1975 1638 c 2,28,-1
 2007 1638 l 1,29,-1
 2007 1577 l 1,30,31
 1935 1565 1935 1565 1844 1530.5 c 128,-1,32
 1753 1496 1753 1496 1659.5 1444 c 128,-1,33
 1566 1392 1566 1392 1476.5 1326 c 128,-1,34
 1387 1260 1387 1260 1316.5 1186 c 128,-1,35
 1246 1112 1246 1112 1203 1034 c 128,-1,36
 1160 956 1160 956 1159 879 c 0,37,38
 1159 742 1159 742 1182.5 619.5 c 128,-1,39
 1206 497 1206 497 1247.5 386 c 128,-1,40
 1289 275 1289 275 1344.5 175.5 c 128,-1,41
 1400 76 1400 76 1464 -14.5 c 128,-1,42
 1528 -105 1528 -105 1597 -188 c 128,-1,43
 1666 -271 1666 -271 1735 -348 c 1,44,-1
 1735 -410 l 1,45,46
 1572 -312 1572 -312 1446.5 -201.5 c 128,-1,47
 1321 -91 1321 -91 1221 30 c 128,-1,48
 1121 151 1121 151 1040.5 282 c 128,-1,49
 960 413 960 413 887 553 c 0,50,51
 837 647 837 647 787 745 c 128,-1,52
 737 843 737 843 686 946 c 1,53,54
 666 952 666 952 649.5 954.5 c 128,-1,55
 633 957 633 957 618 957 c 0,56,57
 593 957 593 957 572.5 947 c 128,-1,58
 552 937 552 937 535.5 920.5 c 128,-1,59
 519 904 519 904 505.5 882.5 c 128,-1,60
 492 861 492 861 481 838 c 0,61,62
 469 813 469 813 453.5 789 c 128,-1,63
 438 765 438 765 417 746.5 c 128,-1,64
 396 728 396 728 369 716.5 c 128,-1,65
 342 705 342 705 307 705 c 0,66,67
 279 705 279 705 248 711 c 1,68,69
 249 719 249 719 249.5 728 c 128,-1,70
 250 737 250 737 250 745 c 0,71,72
 250 808 250 808 225 860.5 c 128,-1,73
 200 913 200 913 163 961 c 128,-1,74
 126 1009 126 1009 84.5 1054.5 c 128,-1,75
 43 1100 43 1100 10 1149 c 1,0,1
EndSplineSet
Substitution2: "'liga' Standard Ligatures in Latin lookup 2 subtable" uniF8D1
EndChar

StartChar: d
Encoding: 100 100 96
Width: 1743
Flags: W
LayerCount: 2
Fore
SplineSet
952 494 m 0,0,1
 901 533 901 533 844 586.5 c 128,-1,2
 787 640 787 640 731.5 704 c 128,-1,3
 676 768 676 768 624.5 840.5 c 128,-1,4
 573 913 573 913 532 989 c 0,5,6
 484 1077 484 1077 455.5 1174 c 128,-1,7
 427 1271 427 1271 427 1365 c 0,8,9
 427 1504 427 1504 502 1638 c 1,10,-1
 537 1683 l 1,11,12
 557 1552 557 1552 604.5 1428 c 128,-1,13
 652 1304 652 1304 718.5 1189 c 128,-1,14
 785 1074 785 1074 865.5 968.5 c 128,-1,15
 946 863 946 863 1032 768 c 128,-1,16
 1118 673 1118 673 1205 589 c 128,-1,17
 1292 505 1292 505 1370.5 434 c 128,-1,18
 1449 363 1449 363 1516 305 c 128,-1,19
 1583 247 1583 247 1628 203 c 1,20,21
 1692 130 1692 130 1692 63 c 0,22,23
 1692 4 1692 4 1646 -50.5 c 128,-1,24
 1600 -105 1600 -105 1524.5 -152.5 c 128,-1,25
 1449 -200 1449 -200 1352.5 -239.5 c 128,-1,26
 1256 -279 1256 -279 1155 -306.5 c 128,-1,27
 1054 -334 1054 -334 957 -349.5 c 128,-1,28
 860 -365 860 -365 783 -365 c 0,29,30
 757 -365 757 -365 733 -363.5 c 128,-1,31
 709 -362 709 -362 686 -358 c 1,32,-1
 686 -195 l 1,33,34
 817 -179 817 -179 911.5 -148.5 c 128,-1,35
 1006 -118 1006 -118 1066.5 -76 c 128,-1,36
 1127 -34 1127 -34 1155.5 17.5 c 128,-1,37
 1184 69 1184 69 1184 126 c 0,38,39
 1184 171 1184 171 1167.5 218 c 128,-1,40
 1151 265 1151 265 1121 312 c 128,-1,41
 1091 359 1091 359 1048 405 c 128,-1,42
 1005 451 1005 451 952 494 c 0,0,1
502 -410 m 1,43,44
 359 -395 359 -395 263 -371.5 c 128,-1,45
 167 -348 167 -348 108.5 -316 c 128,-1,46
 50 -284 50 -284 25 -242.5 c 128,-1,47
 0 -201 0 -201 0 -150 c 0,48,49
 0 -60 0 -60 84 51 c 0,50,51
 147 135 147 135 215 218.5 c 128,-1,52
 283 302 283 302 360 387 c 0,53,54
 514 558 514 558 532 696 c 1,55,-1
 578 641 l 1,56,-1
 578 623 l 2,57,58
 578 459 578 459 500 324 c 0,59,60
 458 252 458 252 419 190 c 128,-1,61
 380 128 380 128 342 76 c 0,62,63
 278 -10 278 -10 278 -63 c 0,64,65
 278 -98 278 -98 321 -115.5 c 128,-1,66
 364 -133 364 -133 472 -133 c 2,67,-1
 502 -133 l 1,68,-1
 502 -410 l 1,43,44
EndSplineSet
Substitution2: "'liga' Standard Ligatures in Latin lookup 2 subtable" uniF8D3
EndChar

StartChar: E
Encoding: 69 69 97
Width: 1444
Flags: W
LayerCount: 2
Fore
SplineSet
244 -389 m 1,0,-1
 182 -389 l 1,1,2
 163 -249 163 -249 145.5 -135 c 128,-1,3
 128 -21 128 -21 111.5 74 c 128,-1,4
 95 169 95 169 80 248.5 c 128,-1,5
 65 328 65 328 52.5 399.5 c 128,-1,6
 40 471 40 471 30 538 c 128,-1,7
 20 605 20 605 13 675.5 c 128,-1,8
 6 746 6 746 2 823.5 c 128,-1,9
 -2 901 -2 901 -2 993 c 0,10,11
 3 1224 3 1224 49 1618 c 1,12,13
 196 1618 196 1618 318 1620 c 128,-1,14
 440 1622 440 1622 541.5 1624.5 c 128,-1,15
 643 1627 643 1627 726 1630.5 c 128,-1,16
 809 1634 809 1634 877.5 1636.5 c 128,-1,17
 946 1639 946 1639 1003 1641 c 128,-1,18
 1060 1643 1060 1643 1110 1643 c 0,19,20
 1178 1643 1178 1643 1238.5 1637 c 128,-1,21
 1299 1631 1299 1631 1360 1618 c 1,22,23
 1365 1579 1365 1579 1367.5 1549 c 128,-1,24
 1370 1519 1370 1519 1370 1499 c 0,25,26
 1370 1469 1370 1469 1365 1448 c 128,-1,27
 1360 1427 1360 1427 1353.5 1404.5 c 128,-1,28
 1347 1382 1347 1382 1340 1351 c 128,-1,29
 1333 1320 1333 1320 1329 1270 c 1,30,-1
 1114 1270 l 2,31,32
 959 1270 959 1270 804 1262 c 128,-1,33
 649 1254 649 1254 502 1229 c 1,34,35
 472 1089 472 1089 444 969 c 128,-1,36
 416 849 416 849 394 743.5 c 128,-1,37
 372 638 372 638 358.5 544.5 c 128,-1,38
 345 451 345 451 345 366 c 0,39,40
 345 252 345 252 372.5 148.5 c 128,-1,41
 400 45 400 45 469 -61 c 1,42,-1
 244 -389 l 1,0,-1
EndSplineSet
Substitution2: "'liga' Standard Ligatures in Latin lookup 2 subtable" uniF8D4
EndChar

StartChar: i
Encoding: 105 105 98
Width: 1694
Flags: W
LayerCount: 2
Fore
SplineSet
0 1006 m 1,0,1
 1 1084 1 1084 30 1167 c 128,-1,2
 59 1250 59 1250 104 1332.5 c 128,-1,3
 149 1415 149 1415 204 1492.5 c 128,-1,4
 259 1570 259 1570 313 1638 c 1,5,-1
 807 1604 l 1,6,7
 771 1580 771 1580 728.5 1544.5 c 128,-1,8
 686 1509 686 1509 643.5 1467.5 c 128,-1,9
 601 1426 601 1426 561.5 1381.5 c 128,-1,10
 522 1337 522 1337 491.5 1294 c 128,-1,11
 461 1251 461 1251 442.5 1213 c 128,-1,12
 424 1175 424 1175 424 1146 c 0,13,14
 424 1122 424 1122 444.5 1090 c 128,-1,15
 465 1058 465 1058 499.5 1024 c 128,-1,16
 534 990 534 990 581 957 c 128,-1,17
 628 924 628 924 680.5 898 c 128,-1,18
 733 872 733 872 789 856 c 128,-1,19
 845 840 845 840 898 840 c 0,20,21
 974 840 974 840 1031.5 872.5 c 128,-1,22
 1089 905 1089 905 1128 957.5 c 128,-1,23
 1167 1010 1167 1010 1186.5 1076.5 c 128,-1,24
 1206 1143 1206 1143 1206 1211 c 0,25,26
 1206 1294 1206 1294 1184 1392.5 c 128,-1,27
 1162 1491 1162 1491 1116 1604 c 1,28,-1
 1239 1604 l 2,29,30
 1342 1604 1342 1604 1435 1598 c 128,-1,31
 1528 1592 1528 1592 1614 1577 c 1,32,33
 1614 1537 1614 1537 1616 1499 c 128,-1,34
 1618 1461 1618 1461 1622 1425 c 2,35,-1
 1636 1286 l 2,36,37
 1638 1266 1638 1266 1639 1246 c 128,-1,38
 1640 1226 1640 1226 1640 1206 c 0,39,40
 1640 1161 1640 1161 1634 1119 c 128,-1,41
 1628 1077 1628 1077 1614 1036 c 1,42,-1
 1231 694 l 2,43,44
 1203 669 1203 669 1180.5 648.5 c 128,-1,45
 1158 628 1158 628 1136 608.5 c 128,-1,46
 1114 589 1114 589 1091 568 c 128,-1,47
 1068 547 1068 547 1040 522 c 0,48,49
 1014 498 1014 498 997 456.5 c 128,-1,50
 980 415 980 415 980 361 c 0,51,52
 980 299 980 299 1004.5 223 c 128,-1,53
 1029 147 1029 147 1088 61 c 128,-1,54
 1147 -25 1147 -25 1246 -119.5 c 128,-1,55
 1345 -214 1345 -214 1495 -313 c 1,56,-1
 1491 -358 l 1,57,58
 1405 -341 1405 -341 1336 -326 c 128,-1,59
 1267 -311 1267 -311 1210 -294 c 128,-1,60
 1153 -277 1153 -277 1105 -254.5 c 128,-1,61
 1057 -232 1057 -232 1011.5 -201 c 128,-1,62
 966 -170 966 -170 921 -128 c 128,-1,63
 876 -86 876 -86 824.5 -29 c 128,-1,64
 773 28 773 28 713 103 c 128,-1,65
 653 178 653 178 578 274 c 0,66,67
 476 405 476 405 333 587 c 128,-1,68
 190 769 190 769 0 1006 c 1,0,1
EndSplineSet
Substitution2: "'liga' Standard Ligatures in Latin lookup 2 subtable" uniF8D7
EndChar

StartChar: J
Encoding: 74 74 99
Width: 2007
Flags: W
LayerCount: 2
Fore
SplineSet
225 1323 m 1,0,1
 247 1339 247 1339 269.5 1356 c 128,-1,2
 292 1373 292 1373 315 1393 c 2,3,-1
 502 1554 l 2,4,5
 525 1576 525 1576 548 1597 c 128,-1,6
 571 1618 571 1618 594 1638 c 1,7,8
 699 1597 699 1597 811 1568.5 c 128,-1,9
 923 1540 923 1540 1040.5 1523 c 128,-1,10
 1158 1506 1158 1506 1280.5 1498.5 c 128,-1,11
 1403 1491 1403 1491 1528 1491 c 0,12,13
 1625 1491 1625 1491 1719.5 1492.5 c 128,-1,14
 1814 1494 1814 1494 1911 1499 c 1,15,-1
 1956 1454 l 1,16,17
 1945 1333 1945 1333 1917.5 1194 c 128,-1,18
 1890 1055 1890 1055 1847.5 910.5 c 128,-1,19
 1805 766 1805 766 1748 623.5 c 128,-1,20
 1691 481 1691 481 1620.5 354 c 128,-1,21
 1550 227 1550 227 1467 122 c 128,-1,22
 1384 17 1384 17 1290 -51 c 1,23,-1
 1229 -51 l 1,24,25
 1284 69 1284 69 1327 188 c 128,-1,26
 1370 307 1370 307 1399 418 c 128,-1,27
 1428 529 1428 529 1443 630 c 128,-1,28
 1458 731 1458 731 1458 815 c 0,29,30
 1458 956 1458 956 1414 1034.5 c 128,-1,31
 1370 1113 1370 1113 1280 1118 c 1,32,33
 1202 1114 1202 1114 1141 1072.5 c 128,-1,34
 1080 1031 1080 1031 1032 950 c 0,35,36
 984 870 984 870 935 774 c 128,-1,37
 886 678 886 678 836 563 c 0,38,39
 784 448 784 448 714 339.5 c 128,-1,40
 644 231 644 231 555 123 c 0,41,42
 466 16 466 16 344 -66.5 c 128,-1,43
 222 -149 222 -149 61 -205 c 1,44,-1
 0 -205 l 1,45,46
 156 -39 156 -39 273 117.5 c 128,-1,47
 390 274 390 274 468 416.5 c 128,-1,48
 546 559 546 559 585 684.5 c 128,-1,49
 624 810 624 810 624 914 c 0,50,51
 624 1093 624 1093 523.5 1197.5 c 128,-1,52
 423 1302 423 1302 225 1323 c 1,0,1
EndSplineSet
Substitution2: "'liga' Standard Ligatures in Latin lookup 2 subtable" uniF8D8
EndChar

StartChar: M
Encoding: 77 77 100
Width: 1454
Flags: W
LayerCount: 2
Fore
SplineSet
983 -410 m 1,0,1
 829 -332 829 -332 696 -228.5 c 128,-1,2
 563 -125 563 -125 454 -4.5 c 128,-1,3
 345 116 345 116 260.5 249 c 128,-1,4
 176 382 176 382 118 520 c 128,-1,5
 60 658 60 658 30 796 c 128,-1,6
 0 934 0 934 0 1065 c 1,7,8
 127 1122 127 1122 221.5 1175 c 128,-1,9
 316 1228 316 1228 384.5 1277.5 c 128,-1,10
 453 1327 453 1327 498 1372 c 128,-1,11
 543 1417 543 1417 573 1456 c 0,12,13
 604 1496 604 1496 628 1527.5 c 128,-1,14
 652 1559 652 1559 676 1582.5 c 128,-1,15
 700 1606 700 1606 729 1620 c 128,-1,16
 758 1634 758 1634 799 1638 c 1,17,18
 876 1620 876 1620 945.5 1576 c 128,-1,19
 1015 1532 1015 1532 1086 1459 c 128,-1,20
 1157 1386 1157 1386 1234 1283 c 128,-1,21
 1311 1180 1311 1180 1403 1044 c 1,22,23
 1401 948 1401 948 1385 848.5 c 128,-1,24
 1369 749 1369 749 1329 642 c 128,-1,25
 1289 535 1289 535 1220 417 c 128,-1,26
 1151 299 1151 299 1044 164 c 1,27,-1
 983 164 l 1,28,29
 1004 227 1004 227 1022 300.5 c 128,-1,30
 1040 374 1040 374 1053 451 c 128,-1,31
 1066 528 1066 528 1073.5 606 c 128,-1,32
 1081 684 1081 684 1081 756 c 256,33,34
 1081 828 1081 828 1067.5 888.5 c 128,-1,35
 1054 949 1054 949 1026 992.5 c 128,-1,36
 998 1036 998 1036 954 1060.5 c 128,-1,37
 910 1085 910 1085 850 1085 c 0,38,39
 782 1081 782 1081 727 1052.5 c 128,-1,40
 672 1024 672 1024 633.5 972 c 128,-1,41
 595 920 595 920 574 845 c 128,-1,42
 553 770 553 770 553 674 c 0,43,44
 554 579 554 579 581 464.5 c 128,-1,45
 608 350 608 350 665.5 219 c 128,-1,46
 723 88 723 88 812.5 -59 c 128,-1,47
 902 -206 902 -206 1028 -365 c 1,48,-1
 983 -410 l 1,0,1
EndSplineSet
Substitution2: "'liga' Standard Ligatures in Latin lookup 2 subtable" uniF8DA
EndChar

StartChar: O
Encoding: 79 79 101
Width: 1976
Flags: W
LayerCount: 2
Fore
SplineSet
45 1638 m 1,0,1
 164 1614 164 1614 276.5 1598.5 c 128,-1,2
 389 1583 389 1583 498.5 1573.5 c 128,-1,3
 608 1564 608 1564 715.5 1560 c 128,-1,4
 823 1556 823 1556 932 1556 c 0,5,6
 1019 1556 1019 1556 1107.5 1557.5 c 128,-1,7
 1196 1559 1196 1559 1288 1563 c 2,8,-1
 1761 1587 l 1,9,10
 1761 1574 1761 1574 1761.5 1563 c 128,-1,11
 1762 1552 1762 1552 1762 1542 c 0,12,13
 1762 1531 1762 1531 1761.5 1522 c 128,-1,14
 1761 1513 1761 1513 1761 1505 c 0,15,16
 1761 1479 1761 1479 1765 1451.5 c 128,-1,17
 1769 1424 1769 1424 1785 1382.5 c 128,-1,18
 1801 1341 1801 1341 1834 1280 c 128,-1,19
 1867 1219 1867 1219 1925 1126 c 1,20,-1
 1880 1081 l 1,21,22
 1816 1110 1816 1110 1769 1131.5 c 128,-1,23
 1722 1153 1722 1153 1700 1153 c 0,24,25
 1668 1153 1668 1153 1668 1119 c 0,26,27
 1668 1098 1668 1098 1677.5 1062.5 c 128,-1,28
 1687 1027 1687 1027 1707.5 974.5 c 128,-1,29
 1728 922 1728 922 1759 850.5 c 128,-1,30
 1790 779 1790 779 1833 686 c 1,31,32
 1790 641 1790 641 1736 604 c 128,-1,33
 1682 567 1682 567 1616 537 c 0,34,35
 1566 514 1566 514 1519 486 c 128,-1,36
 1472 458 1472 458 1435.5 424 c 128,-1,37
 1399 390 1399 390 1377 348.5 c 128,-1,38
 1355 307 1355 307 1355 257 c 0,39,40
 1355 205 1355 205 1374.5 144 c 128,-1,41
 1394 83 1394 83 1438.5 8 c 128,-1,42
 1483 -67 1483 -67 1555.5 -159 c 128,-1,43
 1628 -251 1628 -251 1735 -365 c 1,44,-1
 1690 -410 l 1,45,46
 1463 -334 1463 -334 1314.5 -250.5 c 128,-1,47
 1166 -167 1166 -167 1079 -77 c 128,-1,48
 992 13 992 13 957 109 c 128,-1,49
 922 205 922 205 922 307 c 0,50,51
 923 379 923 379 936.5 433.5 c 128,-1,52
 950 488 950 488 972.5 529 c 128,-1,53
 995 570 995 570 1024 600 c 128,-1,54
 1053 630 1053 630 1085 653 c 0,55,56
 1116 675 1116 675 1145 699.5 c 128,-1,57
 1174 724 1174 724 1196.5 755 c 128,-1,58
 1219 786 1219 786 1233 826.5 c 128,-1,59
 1247 867 1247 867 1249 922 c 0,60,61
 1248 991 1248 991 1224 1037 c 128,-1,62
 1200 1083 1200 1083 1155 1114.5 c 128,-1,63
 1110 1146 1110 1146 1044.5 1167.5 c 128,-1,64
 979 1189 979 1189 895 1208 c 0,65,66
 810 1227 810 1227 710 1255.5 c 128,-1,67
 610 1284 610 1284 497.5 1328 c 128,-1,68
 385 1372 385 1372 260 1436.5 c 128,-1,69
 135 1501 135 1501 0 1593 c 1,70,-1
 45 1638 l 1,0,1
EndSplineSet
Substitution2: "'liga' Standard Ligatures in Latin lookup 2 subtable" uniF8DD
EndChar

StartChar: P
Encoding: 80 80 102
Width: 1444
Flags: W
LayerCount: 2
Fore
SplineSet
51 717 m 1,0,1
 136 775 136 775 204 843.5 c 128,-1,2
 272 912 272 912 326 987 c 128,-1,3
 380 1062 380 1062 421.5 1140 c 128,-1,4
 463 1218 463 1218 496 1296 c 128,-1,5
 529 1374 529 1374 554 1449.5 c 128,-1,6
 579 1525 579 1525 600 1593 c 1,7,-1
 645 1638 l 1,8,9
 666 1636 666 1636 678 1616.5 c 128,-1,10
 690 1597 690 1597 690 1559 c 0,11,12
 690 1513 690 1513 686 1455.5 c 128,-1,13
 682 1398 682 1398 682 1333 c 0,14,15
 682 1291 682 1291 686 1255.5 c 128,-1,16
 690 1220 690 1220 701.5 1194 c 128,-1,17
 713 1168 713 1168 734 1153 c 128,-1,18
 755 1138 755 1138 788 1137 c 0,19,20
 808 1139 808 1139 827.5 1139 c 128,-1,21
 847 1139 847 1139 867 1139 c 0,22,23
 995 1139 995 1139 1093 1109 c 128,-1,24
 1191 1079 1191 1079 1257.5 1024.5 c 128,-1,25
 1324 970 1324 970 1358 893 c 128,-1,26
 1392 816 1392 816 1392 723 c 0,27,28
 1392 540 1392 540 1272.5 354 c 128,-1,29
 1153 168 1153 168 920 -4 c 0,30,31
 752 -129 752 -129 522 -217 c 128,-1,32
 292 -305 292 -305 0 -358 c 1,33,-1
 0 -297 l 1,34,35
 133 -243 133 -243 253.5 -175 c 128,-1,36
 374 -107 374 -107 476.5 -30 c 128,-1,37
 579 47 579 47 662 130.5 c 128,-1,38
 745 214 745 214 803 298 c 128,-1,39
 861 382 861 382 892.5 464 c 128,-1,40
 924 546 924 546 924 621 c 0,41,42
 924 682 924 682 899.5 734 c 128,-1,43
 875 786 875 786 841 825.5 c 128,-1,44
 807 865 807 865 769.5 890 c 128,-1,45
 732 915 732 915 707 922 c 0,46,47
 675 930 675 930 647 930 c 0,48,49
 590 930 590 930 529 902.5 c 128,-1,50
 468 875 468 875 400 835.5 c 128,-1,51
 332 796 332 796 256.5 751 c 128,-1,52
 181 706 181 706 96 672 c 1,53,-1
 51 717 l 1,0,1
EndSplineSet
Substitution2: "'liga' Standard Ligatures in Latin lookup 2 subtable" uniF8DE
EndChar

StartChar: R
Encoding: 82 82 103
Width: 1812
Flags: W
LayerCount: 2
Fore
SplineSet
0 1638 m 1,0,1
 94 1638 94 1638 187.5 1633.5 c 128,-1,2
 281 1629 281 1629 377 1624 c 2,3,-1
 770 1602 l 2,4,5
 891 1594 891 1594 1015.5 1589 c 128,-1,6
 1140 1584 1140 1584 1268 1584 c 0,7,8
 1351 1584 1351 1584 1435.5 1587 c 128,-1,9
 1520 1590 1520 1590 1608 1597 c 1,10,11
 1632 1568 1632 1568 1653.5 1538 c 128,-1,12
 1675 1508 1675 1508 1694 1471.5 c 128,-1,13
 1713 1435 1713 1435 1729.5 1391 c 128,-1,14
 1746 1347 1746 1347 1761 1290 c 1,15,16
 1737 1291 1737 1291 1708 1294.5 c 128,-1,17
 1679 1298 1679 1298 1647.5 1302.5 c 128,-1,18
 1616 1307 1616 1307 1583.5 1310.5 c 128,-1,19
 1551 1314 1551 1314 1520 1314 c 0,20,21
 1477 1314 1477 1314 1439 1306 c 128,-1,22
 1401 1298 1401 1298 1372.5 1275 c 128,-1,23
 1344 1252 1344 1252 1327.5 1211.5 c 128,-1,24
 1311 1171 1311 1171 1311 1106 c 0,25,26
 1311 1062 1311 1062 1319 1034.5 c 128,-1,27
 1327 1007 1327 1007 1341 990.5 c 128,-1,28
 1355 974 1355 974 1374.5 968 c 128,-1,29
 1394 962 1394 962 1417 962 c 0,30,31
 1446 962 1446 962 1479.5 967.5 c 128,-1,32
 1513 973 1513 973 1549 979.5 c 128,-1,33
 1585 986 1585 986 1622 992 c 128,-1,34
 1659 998 1659 998 1696 999 c 1,35,-1
 1741 952 l 1,36,37
 1590 878 1590 878 1451 780.5 c 128,-1,38
 1312 683 1312 683 1182 570 c 128,-1,39
 1052 457 1052 457 930.5 332.5 c 128,-1,40
 809 208 809 208 694 81.5 c 128,-1,41
 579 -45 579 -45 470 -170 c 128,-1,42
 361 -295 361 -295 256 -410 c 1,43,-1
 154 -410 l 1,44,45
 215 -268 215 -268 289 -127.5 c 128,-1,46
 363 13 363 13 439.5 146.5 c 128,-1,47
 516 280 516 280 588.5 405 c 128,-1,48
 661 530 661 530 718 639.5 c 128,-1,49
 775 749 775 749 811 841.5 c 128,-1,50
 847 934 847 934 850 1004 c 1,51,52
 847 1045 847 1045 808.5 1092.5 c 128,-1,53
 770 1140 770 1140 706.5 1190 c 128,-1,54
 643 1240 643 1240 560 1291.5 c 128,-1,55
 477 1343 477 1343 383.5 1393 c 128,-1,56
 290 1443 290 1443 191.5 1489.5 c 128,-1,57
 93 1536 93 1536 0 1577 c 1,58,-1
 0 1638 l 1,0,1
EndSplineSet
Substitution2: "'liga' Standard Ligatures in Latin lookup 2 subtable" uniF8E1
EndChar

StartChar: s
Encoding: 115 115 104
Width: 2161
Flags: W
LayerCount: 2
Fore
SplineSet
645 645 m 1,0,1
 680 774 680 774 680 887 c 0,2,3
 680 973 680 973 663 1052 c 128,-1,4
 646 1131 646 1131 621 1203 c 128,-1,5
 596 1275 596 1275 566.5 1339 c 128,-1,6
 537 1403 537 1403 511.5 1458 c 128,-1,7
 486 1513 486 1513 469 1558 c 128,-1,8
 452 1603 452 1603 451 1638 c 1,9,-1
 512 1638 l 1,10,11
 564 1595 564 1595 633 1555 c 128,-1,12
 702 1515 702 1515 782.5 1484 c 128,-1,13
 863 1453 863 1453 951 1434 c 128,-1,14
 1039 1415 1039 1415 1131 1415 c 0,15,16
 1231 1415 1231 1415 1330.5 1439 c 128,-1,17
 1430 1463 1430 1463 1536 1516 c 1,18,19
 1556 1511 1556 1511 1579 1511 c 0,20,21
 1592 1511 1592 1511 1603.5 1513.5 c 128,-1,22
 1615 1516 1615 1516 1626 1516 c 0,23,24
 1652 1516 1652 1516 1673 1509 c 128,-1,25
 1694 1502 1694 1502 1710 1485 c 1,26,27
 1698 1449 1698 1449 1664 1413.5 c 128,-1,28
 1630 1378 1630 1378 1582 1340.5 c 128,-1,29
 1534 1303 1534 1303 1476 1262 c 128,-1,30
 1418 1221 1418 1221 1358 1174 c 0,31,32
 1295 1125 1295 1125 1239 1067 c 128,-1,33
 1183 1009 1183 1009 1140.5 938.5 c 128,-1,34
 1098 868 1098 868 1072 785 c 128,-1,35
 1046 702 1046 702 1044 604 c 1,36,37
 1053 381 1053 381 1210 248 c 0,38,39
 1367 114 1367 114 1577 29 c 0,40,41
 1681 -13 1681 -13 1772 -52 c 128,-1,42
 1863 -91 1863 -91 1942 -127 c 0,43,44
 2098 -200 2098 -200 2109 -297 c 1,45,-1
 2064 -342 l 1,46,47
 1913 -286 1913 -286 1779.5 -247 c 128,-1,48
 1646 -208 1646 -208 1526 -183 c 128,-1,49
 1406 -158 1406 -158 1298 -147 c 128,-1,50
 1190 -136 1190 -136 1090 -136 c 0,51,52
 938 -136 938 -136 802.5 -160.5 c 128,-1,53
 667 -185 667 -185 542 -224 c 128,-1,54
 417 -263 417 -263 298.5 -312 c 128,-1,55
 180 -361 180 -361 61 -410 c 1,56,-1
 0 -410 l 1,57,58
 0 -368 0 -368 13.5 -336 c 128,-1,59
 27 -304 27 -304 57 -281 c 256,60,61
 87 -258 87 -258 126 -229 c 128,-1,62
 165 -200 165 -200 211.5 -156.5 c 128,-1,63
 258 -113 258 -113 311 -49.5 c 128,-1,64
 364 14 364 14 422 106 c 0,65,66
 479 197 479 197 534 331.5 c 128,-1,67
 589 466 589 466 645 645 c 1,0,1
EndSplineSet
Substitution2: "'liga' Standard Ligatures in Latin lookup 2 subtable" uniF8E2
EndChar

StartChar: U
Encoding: 85 85 105
Width: 2120
Flags: W
LayerCount: 2
Fore
SplineSet
0 -365 m 1,0,1
 89 -236 89 -236 174 -95 c 128,-1,2
 259 46 259 46 343 191.5 c 128,-1,3
 427 337 427 337 512 484.5 c 128,-1,4
 597 632 597 632 686 774 c 0,5,6
 775 917 775 917 875 1047 c 128,-1,7
 975 1177 975 1177 1090 1288 c 128,-1,8
 1205 1399 1205 1399 1337 1488 c 128,-1,9
 1469 1577 1469 1577 1622 1638 c 1,10,11
 1654 1619 1654 1619 1654 1587 c 0,12,13
 1654 1569 1654 1569 1645 1543.5 c 128,-1,14
 1636 1518 1636 1518 1625 1482.5 c 128,-1,15
 1614 1447 1614 1447 1605 1400.5 c 128,-1,16
 1596 1354 1596 1354 1595 1294 c 0,17,18
 1595 1186 1595 1186 1653 1024 c 1,19,-1
 1591 1024 l 1,20,21
 1526 1067 1526 1067 1456 1067 c 0,22,23
 1405 1067 1405 1067 1352.5 1044.5 c 128,-1,24
 1300 1022 1300 1022 1249 984.5 c 128,-1,25
 1198 947 1198 947 1149.5 899 c 128,-1,26
 1101 851 1101 851 1058.5 799.5 c 128,-1,27
 1016 748 1016 748 980.5 697 c 128,-1,28
 945 646 945 646 919.5 604 c 128,-1,29
 894 562 894 562 879.5 532 c 128,-1,30
 865 502 865 502 864 492 c 0,31,32
 869 431 869 431 954 431 c 0,33,34
 1003 431 1003 431 1068 447 c 128,-1,35
 1133 463 1133 463 1203.5 491 c 128,-1,36
 1274 519 1274 519 1346 556.5 c 128,-1,37
 1418 594 1418 594 1483 637.5 c 128,-1,38
 1548 681 1548 681 1601 728.5 c 128,-1,39
 1654 776 1654 776 1686 823 c 1,40,-1
 1688 823 l 2,41,42
 1692 823 1692 823 1696 819 c 2,43,-1
 1706 809 l 1,44,-1
 1718 793 l 2,45,46
 1725 783 1725 783 1731 778 c 0,47,48
 1761 703 1761 703 1788 651.5 c 128,-1,49
 1815 600 1815 600 1839 566 c 128,-1,50
 1863 532 1863 532 1884.5 512 c 128,-1,51
 1906 492 1906 492 1926.5 480 c 128,-1,52
 1947 468 1947 468 1967 460 c 128,-1,53
 1987 452 1987 452 2007 442 c 0,54,55
 2040 426 2040 426 2068 369 c 1,56,57
 2005 372 2005 372 1944 372 c 0,58,59
 1684 372 1684 372 1439.5 315 c 128,-1,60
 1195 258 1195 258 960 154.5 c 128,-1,61
 725 51 725 51 497.5 -92.5 c 128,-1,62
 270 -236 270 -236 45 -410 c 1,63,-1
 0 -365 l 1,0,1
EndSplineSet
Substitution2: "'liga' Standard Ligatures in Latin lookup 2 subtable" uniF8E5
EndChar

StartChar: V
Encoding: 86 86 106
Width: 2451
Flags: W
LayerCount: 2
Fore
SplineSet
1382 451 m 1,0,1
 1428 552 1428 552 1484.5 667 c 128,-1,2
 1541 782 1541 782 1608.5 899.5 c 128,-1,3
 1676 1017 1676 1017 1755.5 1131 c 128,-1,4
 1835 1245 1835 1245 1928 1343 c 128,-1,5
 2021 1441 2021 1441 2127.5 1518 c 128,-1,6
 2234 1595 2234 1595 2355 1638 c 1,7,-1
 2400 1593 l 1,8,9
 2275 1441 2275 1441 2191 1295.5 c 128,-1,10
 2107 1150 2107 1150 2056 1012 c 128,-1,11
 2005 874 2005 874 1983 743 c 128,-1,12
 1961 612 1961 612 1961 489 c 0,13,14
 1961 355 1961 355 1979.5 232.5 c 128,-1,15
 1998 110 1998 110 2026 3.5 c 128,-1,16
 2054 -103 2054 -103 2085.5 -191 c 128,-1,17
 2117 -279 2117 -279 2144 -344 c 1,18,-1
 2099 -389 l 1,19,20
 2036 -389 2036 -389 1983.5 -378 c 128,-1,21
 1931 -367 1931 -367 1885.5 -346.5 c 128,-1,22
 1840 -326 1840 -326 1799.5 -298.5 c 128,-1,23
 1759 -271 1759 -271 1722 -238 c 2,24,-1
 1567 -94 l 2,25,26
 1484 -17 1484 -17 1376 51 c 1,27,28
 1110 51 1110 51 924.5 45.5 c 128,-1,29
 739 40 739 40 631 29 c 0,30,31
 416 6 416 6 365 -45 c 0,32,33
 312 -98 312 -98 270 -188 c 0,34,35
 249 -233 249 -233 192.5 -288 c 128,-1,36
 136 -343 136 -343 45 -410 c 1,37,-1
 0 -365 l 1,38,39
 22 -318 22 -318 32 -251.5 c 128,-1,40
 42 -185 42 -185 46.5 -106.5 c 128,-1,41
 51 -28 51 -28 52.5 60 c 128,-1,42
 54 148 54 148 58 238.5 c 128,-1,43
 62 329 62 329 72 419.5 c 128,-1,44
 82 510 82 510 104 594 c 0,45,46
 144 765 144 765 266 881 c 1,47,-1
 328 881 l 1,48,49
 328 733 328 733 364 636.5 c 128,-1,50
 400 540 400 540 465.5 484 c 128,-1,51
 531 428 531 428 623.5 405.5 c 128,-1,52
 716 383 716 383 830 383 c 0,53,54
 951 383 951 383 1091 403.5 c 128,-1,55
 1231 424 1231 424 1382 451 c 1,0,1
EndSplineSet
Substitution2: "'liga' Standard Ligatures in Latin lookup 2 subtable" uniF8E6
EndChar

StartChar: W
Encoding: 87 87 107
Width: 1851
Flags: W
LayerCount: 2
Fore
SplineSet
666 -410 m 1,0,1
 570 -318 570 -318 483 -205 c 128,-1,2
 396 -92 396 -92 322 46.5 c 128,-1,3
 248 185 248 185 188.5 350.5 c 128,-1,4
 129 516 129 516 87 713 c 128,-1,5
 45 910 45 910 22.5 1140 c 128,-1,6
 0 1370 0 1370 0 1638 c 1,7,-1
 1802 1638 l 1,8,-1
 1802 1577 l 1,9,10
 1728 1529 1728 1529 1635.5 1494.5 c 128,-1,11
 1543 1460 1543 1460 1441 1435.5 c 128,-1,12
 1339 1411 1339 1411 1231.5 1395 c 128,-1,13
 1124 1379 1124 1379 1020 1368 c 0,14,15
 915 1355 915 1355 819.5 1341.5 c 128,-1,16
 724 1328 724 1328 647 1309.5 c 128,-1,17
 570 1291 570 1291 514.5 1265 c 128,-1,18
 459 1239 459 1239 434 1202 c 0,19,20
 421 1183 421 1183 415.5 1150 c 128,-1,21
 410 1117 410 1117 410 1070 c 0,22,23
 410 969 410 969 431 815.5 c 128,-1,24
 452 662 452 662 492.5 470 c 128,-1,25
 533 278 533 278 592 54.5 c 128,-1,26
 651 -169 651 -169 727 -410 c 1,27,-1
 666 -410 l 1,0,1
EndSplineSet
Substitution2: "'liga' Standard Ligatures in Latin lookup 2 subtable" uniF8E7
EndChar

